<?xml version="1.0" encoding="iso-8859-1"?>
<!-- Generator: Adobe Illustrator 16.0.0, SVG Export Plug-In . SVG Version: 6.00 Build 0)  -->
<!DOCTYPE svg PUBLIC "-//W3C//DTD SVG 1.1//EN" "http://www.w3.org/Graphics/SVG/1.1/DTD/svg11.dtd">
<svg version="1.1" id="Capa_1" xmlns="http://www.w3.org/2000/svg" xmlns:xlink="http://www.w3.org/1999/xlink" x="0px" y="0px"
	 width="512px" height="512px" viewBox="0 0 512 512" style="enable-background:new 0 0 512 512;"
	 xml:space="preserve">
<g>
      <path d="m160 346c54.585938 0 100-44.125 100-100 0-55.140625-44.859375-100-100-100s-100 44.859375-100 100c0 55.910156 45.449219 100 100 100zm-44.222656-33.34375c8.558594-16.191406 25.527344-26.65625 44.222656-26.65625s35.664062 10.464844 44.222656 26.65625c-13.027344 8.640625-28.464844 13.34375-44.222656 13.34375s-31.195312-4.703125-44.222656-13.34375zm44.222656-146.65625c44.113281 0 80 35.886719 80 80 0 19.925781-7.304688 38.777344-20.371094 53.339844-12.558594-20.386719-35.023437-33.339844-59.628906-33.339844s-47.070312 12.953125-59.628906 33.339844c-13.066406-14.5625-20.371094-33.410156-20.371094-53.339844 0-44.113281 35.886719-80 80-80zm0 0"/>
      <path d="m200 226c0-22.054688-17.945312-40-40-40s-40 17.945312-40 40 17.945312 40 40 40 40-17.945312 40-40zm-40 20c-11.027344 0-20-8.972656-20-20s8.972656-20 20-20 20 8.972656 20 20-8.972656 20-20 20zm0 0"/>
      <path d="m70 386h180c5.523438 0 10-4.476562 10-10s-4.476562-10-10-10h-180c-5.523438 0-10 4.476562-10 10s4.476562 10 10 10zm0 0"/>
      <path d="m70 449h180c5.523438 0 10-4.476562 10-10s-4.476562-10-10-10h-180c-5.523438 0-10 4.476562-10 10s4.476562 10 10 10zm0 0"/>
      <path d="m170 502c0 5.523438-4.476562 10-10 10s-10-4.476562-10-10 4.476562-10 10-10 10 4.476562 10 10zm0 0"/>
      <path d="m30 512h85c5.523438 0 10-4.476562 10-10s-4.476562-10-10-10h-85c-5.515625 0-10-4.484375-10-10v-382c0-5.515625 4.484375-10 10-10h30v10c0 5.523438 4.476562 10 10 10h180c5.523438 0 10-4.476562 10-10v-10h30c5.515625 0 10 4.484375 10 10v382c0 5.515625-4.484375 10-10 10h-85c-5.523438 0-10 4.476562-10 10s4.476562 10 10 10h85c16.542969 0 30-13.457031 30-30v-382c0-16.542969-13.457031-30-30-30h-31.71875c-4.128906-11.640625-15.246094-20-28.28125-20h-20c0-27.570312-22.429688-50-50-50s-50 22.429688-50 50h-20c-13.035156 0-24.152344 8.359375-28.28125 20h-31.71875c-16.542969 0-30 13.457031-30 30v382c0 16.542969 13.457031 30 30 30zm60-442h30c5.523438 0 10-4.476562 10-10v-10c0-16.542969 13.457031-30 30-30s30 13.457031 30 30v10c0 5.523438 4.476562 10 10 10h30c5.515625 0 10 4.484375 10 10v10h-160v-10c0-5.515625 4.484375-10 10-10zm0 0"/>
    </g>
</svg>
