<?xml version="1.0" encoding="iso-8859-1"?>
<!-- Generator: Adobe Illustrator 16.0.0, SVG Export Plug-In . SVG Version: 6.00 Build 0)  -->
<!DOCTYPE svg PUBLIC "-//W3C//DTD SVG 1.1//EN" "http://www.w3.org/Graphics/SVG/1.1/DTD/svg11.dtd">
<svg version="1.1" id="Capa_1" xmlns="http://www.w3.org/2000/svg" xmlns:xlink="http://www.w3.org/1999/xlink" x="0px" y="0px"
	 width="474px" height="474px" viewBox="0 -89 474 474" style="enable-background:new 0 0 474 474;"
	 xml:space="preserve">
<g>
        <path d="m50.386719 295.738281h373.226562c27.785157 0 50.386719-22.863281 50.386719-50.644531v-30.289062c0-3.839844-2.726562-7.136719-6.5-7.855469-28.191406-5.417969-48.539062-30.125-48.445312-58.832031 0-28.929688 19.949218-53.128907 48.507812-58.839844 3.742188-.746094 6.4375-4.03125 6.4375-7.847656v-31.042969c-.042969-27.84375-22.632812-50.3945315-50.480469-50.386719l-373.226562.683594c-27.773438.09375-50.2500002 22.613281-50.292969 50.386718v23.65625c0 4.132813 3.152344 7.585938 7.269531 7.964844 30.570313 2.804688 53.964844 28.441406 53.964844 59.140625 0 30.695313-23.394531 56.335938-53.964844 59.136719-4.121093.378906-7.269531 3.835938-7.269531 7.972656v36.152344c0 27.78125 22.601562 50.644531 50.386719 50.644531zm-34.386719-79.855469c35.53125-6.796874 61.230469-37.875 61.230469-74.050781s-25.699219-67.253906-61.230469-74.050781v-16.710938c.027344-18.953124 15.367188-34.324218 34.324219-34.386718l373.289062-.683594c18.984375.023438 34.367188 15.40625 34.386719 34.386719v24.765625c-33 9.386718-54.941406 38.523437-54.941406 72.941406.03125 33.851562 22.421875 63.617188 54.941406 73.027344v23.972656c0 19.03125-15.351562 34.5-34.386719 34.644531h-373.226562c-19.035157-.144531-34.386719-15.613281-34.386719-34.644531zm0 0"/><path d="m148.359375 175.605469c4.707031 5.003906 11.726563 7.109375 18.40625 5.53125.082031-.019531.164063-.039063.246094-.0625l60.148437-16.265625-15.441406 39.855468c-.027344.066407-.050781.128907-.074219.195313-1.734375 4.828125-.488281 10.226563 3.191407 13.808594 3.679687 3.578125 9.109374 4.671875 13.890624 2.804687l13.964844-5.441406c6.300782-2.457031 11.515625-7.078125 14.710938-13.039062l31.714844-55.625 51.5-18.996094c.046874-.015625.089843-.03125.136718-.050782 6.851563-2.683593 12.261719-8.128906 14.898438-15 2.710937-6.925781 2.691406-14.625-.058594-21.539062-5.832031-14.96875-21.480469-22.382812-35.632812-16.875l-50.75 19.675781-54.3125-17.816406c-6.273438-2.078125-13.078126-1.90625-19.242188.488281l-9.511719 3.707032c-6.738281 2.625-10.074219 10.214843-7.449219 16.953124 1.066407 2.714844 3 4.996094 5.5 6.492188l23.523438 14.019531-40.617188 15.746094c-1.054687.402344-2.246093.203125-3.109374-.519531-.386719-.324219-.800782-.609375-1.238282-.851563l-20-11.140625c-7.800781-4.347656-17.617187-2.230468-22.933594 4.945313-5.316406 7.175781-4.484374 17.183593 1.949219 23.378906zm49.140625-81.902344 3.96875-1.546875c2.699219-1.042969 5.675781-1.113281 8.417969-.199219l35.800781 11.746094-19.035156 7.378906zm-64.664062 42.25c.558593-.578125 1.433593-.710937 2.136718-.320313l19.425782 10.828126c5.28125 4.019531 12.265624 5.019531 18.460937 2.636718l152.878906-59.273437h.011719c5.800781-2.253907 12.351562 1.15625 14.929688 7.769531 1.273437 3.148438 1.308593 6.664062.09375 9.835938-1.011719 2.703124-3.101563 4.863281-5.773438 5.960937l-54.152344 19.972656c-1.769531.652344-3.25 1.90625-4.183594 3.542969l-33.21875 58.261719c-.039062.070312-.078124.144531-.117187.21875-1.390625 2.621093-3.675781 4.65625-6.441406 5.734375l-7.8125 3.042968 18.71875-48.316406c1.089843-2.8125.503906-5.996094-1.511719-8.242187-2.019531-2.242188-5.125-3.15625-8.039062-2.371094l-75.25 20.351563c-1.101563.226562-2.238282-.144532-3-.972657-.113282-.128906-.234376-.253906-.359376-.375l-26.753906-25.773437c-.339844-.328125-.535156-.773438-.542968-1.246094-.007813-.46875.171874-.925781.5-1.261719zm0 0"/>

</g>
</svg>
