<?xml version="1.0" encoding="iso-8859-1"?>
<!-- Generator: Adobe Illustrator 16.0.0, SVG Export Plug-In . SVG Version: 6.00 Build 0)  -->
<!DOCTYPE svg PUBLIC "-//W3C//DTD SVG 1.1//EN" "http://www.w3.org/Graphics/SVG/1.1/DTD/svg11.dtd">
<svg version="1.1" id="Capa_1" xmlns="http://www.w3.org/2000/svg" xmlns:xlink="http://www.w3.org/1999/xlink" x="0px" y="0px"
	 width="405px" height="405px" viewBox="0 0 405 405" style="enable-background:new 0 0 405 405;"
	 xml:space="preserve">
<g>
	<path d="M5.019,84.23c1.593,0.938,3.339,1.384,5.063,1.384c3.427,0,6.764-1.764,8.627-4.93c2.336-3.969,5.033-7.784,8.028-11.354
    c28.966-34.639,79.476-39.908,114.994-11.998c4.343,3.414,10.63,2.66,14.041-1.684c3.413-4.343,2.658-10.629-1.684-14.041
    c-21.143-16.616-47.532-24.236-74.299-21.471c-26.816,2.774-51.105,15.688-68.383,36.351c-3.695,4.402-7.037,9.131-9.933,14.052
    C-1.328,75.299,0.26,81.429,5.019,84.23z"/>
  <path d="M263.339,57.332c35.517-27.911,86.029-22.641,115.005,12.011c2.984,3.557,5.682,7.372,8.017,11.341
    c1.864,3.167,5.201,4.93,8.627,4.93c1.724,0,3.47-0.446,5.063-1.384c4.76-2.801,6.348-8.931,3.546-13.69
    c-2.896-4.921-6.238-9.649-9.922-14.039c-17.289-20.675-41.579-33.589-68.395-36.363c-26.766-2.774-53.156,4.854-74.299,21.471
    c-4.342,3.412-5.097,9.698-1.684,14.041C252.709,59.99,258.996,60.744,263.339,57.332z"/>
  <path d="M304.433,311.677c-1.777,1.776-3.744,2.806-6.251,3.256c-9.128-0.295-17.157-8.58-26.424-18.168
    c-15.225-15.751-35.789-37.028-69.245-18.398c-33.456-18.63-54.021,2.647-69.246,18.398c-9.266,9.587-17.295,17.871-26.421,18.168
    c-2.509-0.45-4.476-1.479-6.254-3.256c-3.905-3.904-10.237-3.904-14.143,0c-3.905,3.905-3.905,10.237,0,14.143
    c5.762,5.761,12.152,8.31,18.846,9.086c0.017,0.002,0.033,0.004,0.05,0.005c8.406,0.963,17.289-0.867,26.009-2.667
    c8.321-1.719,16.926-3.495,26.28-3.495c6.98,0,11.841,3.006,17.995,6.813c7.114,4.4,15.177,9.388,26.885,9.388
    c11.708,0,19.771-4.987,26.884-9.388c6.153-3.806,11.014-6.813,17.995-6.813c9.354,0,17.958,1.776,26.28,3.495
    c8.722,1.801,17.609,3.632,26.018,2.667c0.01-0.001,0.02-0.002,0.031-0.003c6.698-0.774,13.092-3.323,18.856-9.088
    c3.905-3.905,3.905-10.237,0-14.143C314.67,307.773,308.338,307.773,304.433,311.677z M218.876,318.552
    c-5.778,3.573-10.341,6.396-16.363,6.396c-6.022,0-10.586-2.823-16.364-6.396c-7.062-4.368-15.85-9.804-28.516-9.804
    c-2.917,0-5.743,0.139-8.487,0.372c16.489-16.935,26.623-24.745,47.85-10.71c3.345,2.213,7.686,2.213,11.031,0
    c21.226-14.035,31.359-6.225,47.851,10.71c-2.744-0.233-5.57-0.372-8.487-0.372C234.725,308.748,225.937,314.184,218.876,318.552z"
    />
  <path d="M403.238,150.426c-4.599-6.514-9.957-12.495-15.926-17.789c-0.017-0.016-0.035-0.031-0.052-0.047
    c-0.044-0.04-0.087-0.081-0.132-0.12c-0.082-0.072-0.17-0.133-0.253-0.202c-0.155-0.128-0.309-0.256-0.469-0.373
    c-0.115-0.084-0.233-0.159-0.35-0.237c-0.157-0.105-0.312-0.21-0.474-0.305c-0.138-0.081-0.279-0.153-0.419-0.227
    c-0.145-0.076-0.288-0.154-0.436-0.223c-0.164-0.076-0.331-0.143-0.498-0.209c-0.129-0.052-0.257-0.105-0.388-0.151
    c-0.186-0.066-0.374-0.121-0.563-0.175c-0.118-0.034-0.235-0.07-0.353-0.1c-0.198-0.05-0.398-0.088-0.599-0.125
    c-0.114-0.02-0.228-0.044-0.342-0.061c-0.202-0.03-0.405-0.05-0.608-0.067c-0.116-0.01-0.232-0.023-0.349-0.028
    c-0.2-0.01-0.4-0.01-0.601-0.008c-0.121,0.001-0.242,0-0.363,0.005c-0.196,0.009-0.39,0.027-0.585,0.048
    c-0.125,0.013-0.251,0.023-0.376,0.042c-0.192,0.026-0.382,0.064-0.572,0.103c-0.125,0.024-0.249,0.048-0.373,0.077
    c-0.194,0.047-0.385,0.104-0.576,0.163c-0.115,0.035-0.231,0.067-0.345,0.107c-0.202,0.069-0.401,0.151-0.599,0.234
    c-0.098,0.041-0.197,0.079-0.294,0.124c-0.214,0.098-0.423,0.208-0.631,0.321c-0.077,0.042-0.155,0.081-0.231,0.126
    c-0.222,0.129-0.437,0.271-0.651,0.419c-0.06,0.041-0.12,0.078-0.179,0.121c-0.215,0.156-0.423,0.325-0.627,0.5
    c-0.044,0.037-0.09,0.068-0.133,0.106c-6.693,5.914-14.115,10.556-21.949,13.95c-0.143,0.061-0.286,0.124-0.427,0.192
    c-16.142,6.885-34.017,8.441-50.943,4.667c-0.074-0.017-0.147-0.035-0.222-0.05c-8.278-1.869-16.323-5.021-23.825-9.444
    c-0.162-0.099-0.325-0.196-0.494-0.287c-4.317-2.585-8.452-5.593-12.341-9.029c-4.139-3.657-10.458-3.268-14.115,0.871
    c-3.657,4.139-3.267,10.458,0.872,14.115c2.574,2.274,5.239,4.389,7.974,6.362c-1.812,3.25-3.831,6.383-6.056,9.359
    c-3.307,4.424-2.401,10.69,2.023,13.996c1.796,1.343,3.896,1.991,5.979,1.991c3.046,0,6.054-1.387,8.018-4.015
    c2.684-3.59,5.125-7.363,7.324-11.273c3.784,1.734,7.645,3.249,11.573,4.502c-0.719,3.648-1.671,7.247-2.866,10.764
    c-1.778,5.23,1.021,10.909,6.25,12.687c1.067,0.363,2.152,0.535,3.219,0.535c4.164,0,8.052-2.622,9.467-6.784
    c1.446-4.254,2.604-8.606,3.487-13.014c3.97,0.459,7.96,0.713,11.952,0.713c0.145,0,0.291-0.009,0.436-0.01
    c0.446,3.701,0.654,7.429,0.603,11.152c-0.075,5.522,4.341,10.06,9.863,10.135c0.046,0.001,0.092,0.001,0.139,0.001
    c5.459,0,9.922-4.389,9.996-9.864c0.061-4.489-0.182-8.984-0.704-13.449c4.049-0.809,8.06-1.85,12.007-3.146
    c1.564,3.376,2.911,6.852,4.013,10.402c1.329,4.29,5.281,7.042,9.548,7.042c0.98,0,1.979-0.145,2.964-0.451
    c5.275-1.636,8.226-7.238,6.59-12.513c-1.328-4.283-2.945-8.477-4.817-12.556c3.581-2.016,7.073-4.242,10.443-6.718
    c2.529,2.726,4.883,5.614,7.027,8.65c1.948,2.76,5.038,4.233,8.178,4.233c1.993,0,4.007-0.595,5.759-1.832
    C405.348,161.177,406.424,154.938,403.238,150.426z"/>
  <path d="M166.741,224.834l12.425,5.146c1.251,0.518,2.547,0.764,3.823,0.764c3.924,0,7.647-2.325,9.243-6.176
    c2.113-5.103-0.31-10.952-5.412-13.066l-12.425-5.146c-5.1-2.11-10.951,0.31-13.065,5.412
    C159.216,216.87,161.639,222.72,166.741,224.834z"/>
  <path d="M222.036,230.744c1.275,0,2.572-0.246,3.823-0.765l12.424-5.146c5.102-2.113,7.525-7.963,5.412-13.065
    c-2.114-5.103-7.963-7.525-13.066-5.411l-12.424,5.146c-5.102,2.113-7.525,7.963-5.412,13.065
    C214.388,228.419,218.112,230.744,222.036,230.744z"/>
  <path d="M266.023,337.031c-4.534-3.151-10.767-2.034-13.919,2.5c-11.306,16.255-29.845,25.96-49.591,25.96
    s-38.285-9.705-49.591-25.96c-3.153-4.534-9.385-5.652-13.919-2.5c-4.534,3.154-5.653,9.386-2.499,13.92
    c15.043,21.628,39.72,34.54,66.01,34.54c26.29,0,50.967-12.912,66.01-34.54C271.676,346.417,270.557,340.186,266.023,337.031z"/>
  <path d="M85.842,173.276c0.146,0.001,0.291,0.01,0.436,0.01c3.992,0,7.982-0.254,11.952-0.713c0.883,4.407,2.041,8.76,3.487,13.014
    c1.415,4.162,5.302,6.784,9.467,6.784c1.067,0,2.153-0.173,3.219-0.535c5.229-1.777,8.027-7.457,6.25-12.687
    c-1.195-3.517-2.148-7.117-2.867-10.764c3.928-1.254,7.788-2.768,11.573-4.503c2.199,3.911,4.641,7.685,7.324,11.274
    c1.964,2.628,4.971,4.015,8.018,4.015c2.082,0,4.183-0.648,5.979-1.991c4.424-3.307,5.33-9.572,2.023-13.996
    c-2.225-2.976-4.244-6.109-6.057-9.359c2.735-1.974,5.401-4.088,7.975-6.362c4.139-3.657,4.529-9.977,0.872-14.115
    c-3.657-4.138-9.977-4.528-14.115-0.871c-3.889,3.436-8.024,6.444-12.342,9.03c-0.167,0.09-0.328,0.186-0.488,0.284
    c-7.504,4.424-15.551,7.577-23.831,9.447c-0.072,0.014-0.143,0.032-0.214,0.048c-16.926,3.775-34.802,2.22-50.945-4.664
    c-0.144-0.07-0.289-0.134-0.435-0.196c-7.832-3.394-15.252-8.035-21.944-13.948c-0.045-0.039-0.093-0.071-0.137-0.109
    c-0.202-0.173-0.406-0.34-0.618-0.493c-0.068-0.05-0.138-0.093-0.206-0.14c-0.203-0.14-0.408-0.275-0.619-0.399
    c-0.091-0.053-0.185-0.1-0.278-0.15c-0.191-0.104-0.383-0.205-0.579-0.296c-0.118-0.055-0.239-0.101-0.358-0.15
    c-0.176-0.073-0.351-0.145-0.53-0.208c-0.139-0.048-0.28-0.089-0.421-0.131c-0.166-0.05-0.331-0.1-0.498-0.141
    c-0.15-0.036-0.301-0.064-0.452-0.094c-0.164-0.032-0.327-0.064-0.492-0.089c-0.152-0.021-0.304-0.035-0.456-0.05
    c-0.168-0.017-0.335-0.033-0.504-0.042c-0.147-0.007-0.294-0.006-0.441-0.006c-0.175-0.001-0.35-0.001-0.525,0.007
    c-0.139,0.007-0.278,0.021-0.417,0.034c-0.182,0.017-0.363,0.033-0.544,0.059c-0.134,0.02-0.266,0.047-0.4,0.072
    c-0.182,0.034-0.364,0.068-0.545,0.113c-0.134,0.032-0.265,0.073-0.398,0.111c-0.175,0.052-0.35,0.102-0.523,0.163
    c-0.141,0.049-0.279,0.106-0.418,0.163c-0.158,0.064-0.316,0.126-0.472,0.198c-0.154,0.071-0.304,0.152-0.455,0.231
    c-0.135,0.071-0.271,0.141-0.404,0.219c-0.164,0.097-0.323,0.203-0.482,0.31c-0.115,0.077-0.231,0.151-0.344,0.233
    c-0.162,0.118-0.317,0.247-0.473,0.376c-0.083,0.068-0.17,0.129-0.251,0.2c-0.044,0.039-0.086,0.08-0.131,0.118
    c-0.018,0.017-0.036,0.033-0.054,0.05c-5.969,5.293-11.327,11.274-15.925,17.788c-3.186,4.512-2.11,10.751,2.401,13.937
    c1.753,1.237,3.765,1.832,5.759,1.832c3.139,0,6.229-1.474,8.178-4.233c2.143-3.036,4.498-5.924,7.027-8.65
    c3.369,2.476,6.862,4.703,10.442,6.718c-1.872,4.078-3.489,8.272-4.817,12.556c-1.636,5.274,1.315,10.877,6.59,12.513
    c0.986,0.306,1.983,0.451,2.964,0.451c4.267,0,8.219-2.753,9.548-7.042c1.101-3.551,2.448-7.025,4.012-10.401
    c3.947,1.297,7.958,2.338,12.008,3.146c-0.522,4.464-0.765,8.959-0.704,13.448c0.074,5.477,4.537,9.864,9.996,9.864
    c0.046,0,0.093,0,0.139-0.001c5.522-0.075,9.938-4.612,9.863-10.135C85.188,180.704,85.396,176.977,85.842,173.276z"/>
</g>
</svg>
