<?xml version="1.0" encoding="iso-8859-1"?>
<!-- Generator: Adobe Illustrator 16.0.0, SVG Export Plug-In . SVG Version: 6.00 Build 0)  -->
<!DOCTYPE svg PUBLIC "-//W3C//DTD SVG 1.1//EN" "http://www.w3.org/Graphics/SVG/1.1/DTD/svg11.dtd">
<svg version="1.1" id="Capa_1" xmlns="http://www.w3.org/2000/svg" xmlns:xlink="http://www.w3.org/1999/xlink" x="0px" y="0px"
	 width="512px" height="512px" viewBox="0 -88 512 512" style="enable-background:new 0 0 512 512;"
	 xml:space="preserve">
<g>
	        <path d="m404.5 120.820312c-20.957031 0-41.011719 5.964844-58.410156 17.269532l-16.9375-16.9375h-.003906v-.003906c-1.398438-1.402344-3.289063-2.199219-5.308594-2.199219-1.699219 0-3.3125.5625-4.640625 1.621093-.011719 0-.011719 0-.019531.011719-8.300782 6.578125-15.839844 14.128907-22.421876 22.429688-13.777343 17.351562-23.128906 37.640625-27.289062 59.320312-2.070312 10.710938-11.378906 18.488281-22.140625 18.488281h-32.589844c-1.390625-20.128906-8.398437-39.390624-20.28125-55.699218-8.671875-11.917969-19.632812-21.863282-32.175781-29.300782h10.222656c16.695313 0 32.390625 6.5 44.195313 18.308594l20.652343 20.652344c2.929688 2.925781 7.675782 2.929688 10.605469-.003906 2.929688-2.925782 2.929688-7.675782 0-10.605469l-20.652343-20.652344c-14.640626-14.636719-34.101563-22.699219-54.800782-22.699219h-130.402344c-6.179687-.007812-11.730468-2.339843-16.070312-6.726562-5.378906-5.5-8.117188-13.894531-5.421875-22.453125 5.171875-16.46875 13.652344-31.417969 25.171875-44.429687l45.808594 45.8125c8.542968 8.5625 22.523437 8.878906 31.453125.332031.117187-.113281.25-.214844.367187-.332031l26.140625-26.152344c14-14 32.628907-21.707032 52.449219-21.71875 19.820312.011718 38.441406 7.71875 52.449219 21.71875 1.996093 1.996094 23.195312 23.207031 27.199219 27.210937 1.410156 1.410157 3.300781 2.191407 5.3125 2.191407 1.769531 0 3.480468-.632813 4.828124-1.761719 19.792969-16.710938 42.5-28.578125 67.511719-35.269531l79.710938-21.320313c10.046875-2.714844 20.316406 3.335937 22.960937 13.261719 2.710938 10.28125-3.488281 20.363281-13.273437 22.96875l-79.707031 21.320312c-7.84375 2.101563-15.550782 4.917969-22.921876 8.398438-3.691406 1.734375-5.382812 6.1875-3.578124 9.980468 1.738281 3.695313 6.210937 5.371094 9.976562 3.578126 6.5625-3.089844 13.421875-5.597657 20.390625-7.46875l79.722656-21.328126c18.132813-4.851562 28.636719-23.410156 23.878907-41.320312-4.9375-18.375-23.730469-28.632812-41.328126-23.882812l-22.460937 6.007812c-7.785156-15.613281-25.757813-24.164062-43.25-19.484375-26.847656 7.183594-62.921875 14.636719-103.285156 47.402344-18.640625-18.628907-40.972657-27.203125-64.105469-27.203125h-.0625c-23.03125 0-45.832031 8.890625-63.019531 26.117187l-11.148438 11.144531c-3.625-7.566406-11.363281-12.804687-20.300781-12.804687s-16.671875 5.234375-20.300781 12.800781l-30.808594-30.808594c9.855469-8.738281 20.957031-15.785156 33.089844-20.96875 2.925781-1.257812 6.117187-.574218 8.269531 1.519532 1.5 1.480468 2.230469 3.230468 2.25 5.351562v9.96875c0 4.128906 3.359375 7.5 7.5 7.5s7.5-3.371094 7.5-7.5v-9.96875c.011719-6.082031-2.472656-11.960937-6.820312-16.140625-6.613282-6.3828122-16.230469-8.105469-24.609376-4.523437-57.246093 24.539062-79.011718 79.527344-79.011718 96.550781 0 20.375 16.582031 37.429687 37.5 37.429687h10.730468c-31.574218 18.746094-52.789062 53.191407-52.789062 92.5 0 59.277344 48.226562 107.5 107.5 107.5 56.753906 0 103.371094-44.210937 107.234375-100h.703125.203125 31.6875c18.097656 0 33.480469-12.96875 36.859375-30.660156 3.15625-16.402344 9.785156-32.15625 19.308594-46.023437l10.773437 10.773437c-11.304687 17.398438-17.269531 37.453125-17.269531 58.410156 0 59.277344 48.226562 107.5 107.5 107.5s107.5-48.222656 107.5-107.5c0-59.273437-48.226562-107.5-107.5-107.5zm-31.203125-96.375c9.445313-2.527343 19.117187 1.375 24.367187 9.007813-44.324218 11.855469-74.113281 16.976563-110.195312 45.226563l-10.667969-10.664063c37.148438-29.699219 69.820313-36.4375 96.496094-43.570313zm-264.175781 45.34375c3.359375.742188 5.878906 3.738282 5.878906 7.320313 0 4.132813-3.363281 7.5-7.5 7.5s-7.5-3.367187-7.5-7.5c0-4.789063 4.453125-8.351563 9.121094-7.320313zm5.65625 160.339844c-1 4.015625-5.039063 6.480469-9.085938 5.46875-4.023437-1-6.46875-5.0625-5.46875-9.085937l22.238282-89.472657c4.953124.804688 9.820312 2.007813 14.5625 3.601563-3.253907 13.089844-19.574219 78.742187-22.246094 89.488281zm-7.277344 90.691406c-51.003906 0-92.5-41.496093-92.5-92.5 0-50.941406 41.390625-92.390624 92.308594-92.496093l-9.542969 38.386719c-25.847656 4.640624-45.246094 27.179687-45.265625 54.109374 0 30.355469 24.667969 55 55 55 30.351562 0 55-24.664062 55-55 0-6.929687-1.28125-13.6875-3.8125-20.101562-1.503906-3.835938-5.796875-5.742188-9.71875-4.226562-3.882812 1.535156-5.738281 5.886718-4.230469 9.726562 1.832031 4.652344 2.761719 9.5625 2.761719 14.601562 0 22.035157-17.917969 40-40 40-21.84375 0-40-17.734374-40-40-.015625-17.003906 10.839844-31.8125 26.136719-37.503906l-7.972657 32.078125c-3 12.0625 4.332032 24.261719 16.402344 27.261719 12.011719 2.992188 24.25-4.261719 27.269532-16.40625l21.644531-87.078125c30.042969 15.980469 49.03125 47.136719 49.019531 81.648437 0 51.003907-41.496094 92.5-92.5 92.5zm215.902344-184.203124 86.402344 86.402343c2.929687 2.929688 2.929687 7.671875 0 10.601563-2.933594 2.933594-7.675782 2.933594-10.605469 0l-31.9375-31.933594c-.007813-.007812-.015625-.015625-.023438-.023438l-54.441406-54.441406c3.316406-3.742187 6.859375-7.289062 10.605469-10.605468zm81.097656 184.203124c-51.003906 0-92.5-41.496093-92.5-92.5 0-16.949218 4.53125-33.210937 13.148438-47.53125l27.972656 27.972657c-2.394532 6.234375-3.621094 12.789062-3.621094 19.558593 0 30.328126 24.671875 55 55 55s55-24.671874 55-55c0-22.234374-13.277344-42.160156-33.828125-50.761718-3.816406-1.59375-8.214844.203125-9.8125 4.023437-1.597656 3.820313.203125 8.214844 4.023437 9.8125 14.953126 6.257813 24.617188 20.753907 24.617188 36.925781 0 22.054688-17.945312 40-40 40s-40-17.945312-40-40c0-2.535156.246094-5.027343.710938-7.46875l23.378906 23.378907c8.792968 8.792969 23.023437 8.792969 31.816406 0 8.796875-8.792969 8.796875-23.027344.003906-31.820313l-63.441406-63.441406c14.320312-8.617188 30.582031-13.148438 47.53125-13.148438 51.003906 0 92.5 41.496094 92.5 92.5 0 51.003907-41.496094 92.5-92.5 92.5zm0 0"/>

</g>
</svg>
