<?xml version="1.0" encoding="iso-8859-1"?>
<!-- Generator: Adobe Illustrator 16.0.0, SVG Export Plug-In . SVG Version: 6.00 Build 0)  -->
<!DOCTYPE svg PUBLIC "-//W3C//DTD SVG 1.1//EN" "http://www.w3.org/Graphics/SVG/1.1/DTD/svg11.dtd">
<svg version="1.1" id="Capa_1" xmlns="http://www.w3.org/2000/svg" xmlns:xlink="http://www.w3.org/1999/xlink" x="0px" y="0px"
	 width="512px" height="512px" viewBox="-15 1 511 511.99899" style="enable-background:new 0 0 512 512;"
	 xml:space="preserve">
<g>
        <path d="m296.652344 351.882812c-5.523438 0-10 4.476563-10 10v.269532c0 5.523437 4.476562 10 10 10 5.519531 0 10-4.476563 10-10v-.269532c0-5.523437-4.476563-10-10-10zm0 0"/><path d="m266.261719 20h.273437c5.519532 0 10-4.476562 10-10s-4.480468-10-10-10h-.273437c-5.519531 0-10 4.476562-10 10s4.480469 10 10 10zm0 0"/><path d="m414.496094 0h-107.996094c-5.523438 0-10 4.476562-10 10s4.476562 10 10 10h107.996094c25.367187 0 46 20.636719 46 46v22.152344c0 13.148437-10.695313 23.847656-23.84375 23.847656-5.523438 0-10 4.476562-10 10v216c0 12.128906-9.871094 22-22 22h-34.921875v-163.148438c19.371093-4.539062 33.84375-21.960937 33.84375-42.695312v-22.15625c0-36.390625-29.605469-66-66-66h-177.074219c0-25.363281 20.636719-46 46-46h31.03125c5.523438 0 10-4.476562 10-10s-4.476562-10-10-10h-31.03125c-36.394531 0-66 29.605469-66 66h-10.925781c-36.390625 0-65.996094 29.609375-65.996094 66v.074219c-35.042969 1.535156-63.078125 30.515625-63.078125 65.925781v22.152344c0 20.738281 14.472656 38.160156 33.84375 42.699218v207.148438c0 23.15625 18.84375 42 42 42h188.308594c23.160156 0 42-18.84375 42-42v-24h21.078125c23.160156 0 42-18.84375 42-42v-24h34.921875c23.160156 0 42-18.84375 42-42v-207.152344c19.375-4.535156 33.847656-21.957031 33.847656-42.691406v-22.15625c-.003906-36.394531-29.609375-66-66.003906-66zm-64.765625 404c0 12.128906-9.871094 22-22 22h-21.078125v-35.117188c0-5.523437-4.480469-10-10-10-5.523438 0-10 4.476563-10 10v79.117188c0 12.132812-9.871094 22-22 22h-188.308594c-12.128906 0-22-9.867188-22-22v-216c0-5.519531-4.476562-10-10-10-13.144531 0-23.84375-10.695312-23.84375-23.847656v-22.152344c0-25.363281 20.632812-46 46-46h208c25.363281 0 46 20.636719 46 46v22.152344c0 13.152344-10.699219 23.847656-23.847656 23.847656-5.523438 0-10 4.480469-10 10v67.917969c0 5.519531 4.476562 10 10 10 5.519531 0 10-4.480469 10-10v-59.066407c19.371094-4.539062 33.847656-21.960937 33.847656-42.695312v-22.152344c0-36.394531-29.609375-66-66-66h-190.925781v-.003906c0-25.363281 20.636719-46 46-46h208c25.363281 0 46 20.636719 46 46v22.15625c0 13.148438-10.695313 23.84375-23.84375 23.84375-5.523438 0-10 4.480469-10 10zm0 0"/><path d="m90.496094 191.882812c-5.523438 0-10 4.476563-10 10v.238282c0 5.519531 4.476562 10 10 10 5.523437 0 10-4.480469 10-10v-.238282c0-5.523437-4.476563-10-10-10zm0 0"/><path d="m170.5 191.882812c-5.523438 0-10 4.476563-10 10v.238282c0 5.519531 4.476562 10 10 10 5.519531 0 10-4.480469 10-10v-.238282c0-5.523437-4.480469-10-10-10zm0 0"/><path d="m250.5 191.882812c-5.519531 0-10 4.476563-10 10v.238282c0 5.519531 4.480469 10 10 10 5.523438 0 10-4.480469 10-10v-.238282c0-5.523437-4.476562-10-10-10zm0 0"/><path d="m90.496094 271.882812c-5.523438 0-10 4.476563-10 10v.234376c0 5.523437 4.476562 10 10 10 5.523437 0 10-4.476563 10-10v-.234376c0-5.523437-4.476563-10-10-10zm0 0"/><path d="m170.5 271.882812c-5.523438 0-10 4.476563-10 10v.234376c0 5.523437 4.476562 10 10 10 5.519531 0 10-4.476563 10-10v-.234376c0-5.523437-4.480469-10-10-10zm0 0"/><path d="m250.5 271.882812c-5.519531 0-10 4.476563-10 10v.234376c0 5.523437 4.480469 10 10 10 5.523438 0 10-4.476563 10-10v-.234376c0-5.523437-4.476562-10-10-10zm0 0"/><path d="m90.496094 351.882812c-5.523438 0-10 4.476563-10 10v.234376c0 5.523437 4.476562 10 10 10 5.523437 0 10-4.476563 10-10v-.234376c0-5.523437-4.476563-10-10-10zm0 0"/><path d="m170.5 351.882812c-5.523438 0-10 4.476563-10 10v.234376c0 5.523437 4.476562 10 10 10 5.519531 0 10-4.476563 10-10v-.234376c0-5.523437-4.480469-10-10-10zm0 0"/><path d="m250.5 351.882812c-5.519531 0-10 4.476563-10 10v.234376c0 5.523437 4.480469 10 10 10 5.523438 0 10-4.476563 10-10v-.234376c0-5.523437-4.476562-10-10-10zm0 0"/><path d="m90.496094 431.882812c-5.523438 0-10 4.476563-10 10v.234376c0 5.523437 4.476562 10 10 10 5.523437 0 10-4.476563 10-10v-.234376c0-5.523437-4.476563-10-10-10zm0 0"/><path d="m170.5 431.882812c-5.523438 0-10 4.476563-10 10v.234376c0 5.523437 4.476562 10 10 10 5.519531 0 10-4.476563 10-10v-.234376c0-5.523437-4.480469-10-10-10zm0 0"/><path d="m250.5 431.882812c-5.519531 0-10 4.476563-10 10v.234376c0 5.523437 4.480469 10 10 10 5.523438 0 10-4.476563 10-10v-.234376c0-5.523437-4.476562-10-10-10zm0 0"/><path d="m130.496094 231.886719c-5.519532 0-10 4.476562-10 10v.234375c0 5.523437 4.480468 10 10 10 5.523437 0 10-4.476563 10-10v-.234375c0-5.523438-4.476563-10-10-10zm0 0"/><path d="m210.5 231.886719c-5.523438 0-10 4.476562-10 10v.234375c0 5.523437 4.476562 10 10 10s10-4.476563 10-10v-.234375c0-5.523438-4.476562-10-10-10zm0 0"/><path d="m130.496094 311.886719c-5.519532 0-10 4.476562-10 9.996093v.238282c0 5.519531 4.480468 10 10 10 5.523437 0 10-4.480469 10-10v-.238282c0-5.519531-4.476563-9.996093-10-9.996093zm0 0"/><path d="m210.5 311.886719c-5.523438 0-10 4.476562-10 9.996093v.238282c0 5.519531 4.476562 10 10 10s10-4.480469 10-10v-.238282c0-5.519531-4.476562-9.996093-10-9.996093zm0 0"/><path d="m130.496094 391.882812c-5.519532 0-10 4.480469-10 10v.238282c0 5.519531 4.480468 10 10 10 5.523437 0 10-4.480469 10-10v-.238282c0-5.519531-4.476563-10-10-10zm0 0"/><path d="m210.5 391.882812c-5.523438 0-10 4.480469-10 10v.238282c0 5.519531 4.476562 10 10 10s10-4.480469 10-10v-.238282c0-5.519531-4.476562-10-10-10zm0 0"/>

</g>
</svg>
