<?xml version="1.0" encoding="iso-8859-1"?>
<!-- Generator: Adobe Illustrator 16.0.0, SVG Export Plug-In . SVG Version: 6.00 Build 0)  -->
<!DOCTYPE svg PUBLIC "-//W3C//DTD SVG 1.1//EN" "http://www.w3.org/Graphics/SVG/1.1/DTD/svg11.dtd">
<svg version="1.1" id="Capa_1" xmlns="http://www.w3.org/2000/svg" xmlns:xlink="http://www.w3.org/1999/xlink" x="0px" y="0px"
	 width="44px" height="44px" viewBox="0 0 44 44" style="enable-background:new 0 0 44 44;"
	 xml:space="preserve">
<g>
      <path class="st0" d="M0.6,11.9L0.6,11.9L7.1,15l0,0l1.7,0.8l0,0l12.8,6.1l0,0C21.7,22,21.8,22,22,22s0.3,0,0.4-0.1l0,0l12.6-6l0,0
    l1.9-0.9l0,0l6.5-3.1l0,0c0.3-0.2,0.6-0.5,0.6-0.9c0-0.4-0.2-0.7-0.6-0.9l0,0l-21-10l0,0C22.3,0,22.2,0,22,0s-0.3,0-0.4,0.1l0,0
    l-21,10l0,0C0.2,10.3,0,10.6,0,11C0,11.4,0.2,11.7,0.6,11.9z M22,1.6L41.3,11L22,20.3L2.3,11L22,1.6z"/>
  <path class="st0" d="M43.4,18.1L43.4,18.1l-4.4-2L37.1,17l4.2,2L22,28.4L2.3,19l4.2-2l-1.7-0.8l-4.2,2l0,0C0.2,18.3,0,18.6,0,19
    s0.2,0.7,0.6,0.9l0,0L7.1,23l0,0l1.9,0.9l0,0l12.6,6l0,0C21.7,30,21.8,30,22,30s0.3,0,0.4-0.1l0,0l12.6-6l0,0l1.9-0.9l0,0l6.5-3.1
    l0,0c0.3-0.2,0.6-0.5,0.6-0.9S43.8,18.3,43.4,18.1z"/>
  <path class="st0" d="M43.4,26.1L43.4,26.1l-4.4-2L37.2,25l4.4,2L22,36.5L2.3,27l4.3-2l-1.8-0.9l-4.2,2l0,0C0.2,26.3,0,26.6,0,27
    s0.2,0.7,0.6,0.9l0,0l21,10l0,0C21.7,38,21.8,38,22,38s0.3,0,0.4-0.1l0,0l21-10l0,0c0.3-0.2,0.6-0.5,0.6-0.9S43.8,26.3,43.4,26.1z"
    />


    </g>
</svg>
