<?xml version="1.0" encoding="iso-8859-1"?>
<!-- Generator: Adobe Illustrator 16.0.0, SVG Export Plug-In . SVG Version: 6.00 Build 0)  -->
<!DOCTYPE svg PUBLIC "-//W3C//DTD SVG 1.1//EN" "http://www.w3.org/Graphics/SVG/1.1/DTD/svg11.dtd">
<svg version="1.1" id="Capa_1" xmlns="http://www.w3.org/2000/svg" xmlns:xlink="http://www.w3.org/1999/xlink" x="0px" y="0px"
	 width="20px" height="20px" viewBox="0 0 20 18" style="enable-background:new 0 0 20 20;"
	 xml:space="preserve">
<g>
	<g id="Hamburger" transform="translate(-13.000000, -313.000000)">
        <path d="M17.3846034,325.644409 C17.5439867,325.644409 17.7044117,325.582947 17.826293,325.461066 L22.484869,320.80249 C22.6484192,320.63894 22.9130163,320.63894 23.0755248,320.80249 L24.6787333,322.405698 C25.306891,323.034898 26.4059066,323.034898 27.035106,322.405698 L31.3113704,318.128392 L31.3113704,320.135788 C31.3113704,320.48164 31.5915933,320.761863 31.9364029,320.761863 C32.2812126,320.761863 32.5603938,320.48164 32.5603938,320.135788 L32.5603938,316.61998 C32.5603938,316.538726 32.544768,316.458513 32.5124746,316.381426 C32.4489296,316.228293 32.32809,316.106412 32.1739153,316.043909 C32.0978697,316.011615 32.0176572,315.994948 31.9364029,315.994948 L28.4205948,315.994948 C28.0757852,315.994948 27.7955623,316.275171 27.7955623,316.61998 C27.7955623,316.965832 28.0757852,317.245013 28.4205948,317.245013 L30.427991,317.245013 L26.1517267,321.521277 C25.9892182,321.683786 25.7246211,321.683786 25.5621126,321.521277 L23.9589041,319.918069 C23.3088703,319.268035 22.2515235,319.268035 21.6025314,319.918069 L16.9429137,324.577686 C16.699151,324.821449 16.699151,325.217303 16.9429137,325.461066 C17.064795,325.582947 17.2252201,325.644409 17.3846034,325.644409 M33,330.292567 C33,330.638419 32.7208188,330.9176 32.3760092,330.9176 L14.6667535,330.9176 C13.7479556,330.9176 13,330.170686 13,329.250846 L13,313.625033 C13,313.280223 13.2802229,313 13.6250326,313 C13.9698422,313 14.2490234,313.280223 14.2490234,313.625033 L14.2490234,329.250846 C14.2490234,329.481067 14.4365332,329.667535 14.6667535,329.667535 L32.3760092,329.667535 C32.7208188,329.667535 33,329.947758 33,330.292567" id="Chart" />
      </g>
</g>
</svg>
