<?xml version="1.0" encoding="iso-8859-1"?>
<!-- Generator: Adobe Illustrator 16.0.0, SVG Export Plug-In . SVG Version: 6.00 Build 0)  -->
<!DOCTYPE svg PUBLIC "-//W3C//DTD SVG 1.1//EN" "http://www.w3.org/Graphics/SVG/1.1/DTD/svg11.dtd">
<svg version="1.1" id="Capa_1" xmlns="http://www.w3.org/2000/svg" xmlns:xlink="http://www.w3.org/1999/xlink" x="0px" y="0px"
	 width="512px" height="512px" viewBox="0 0 512 512" style="enable-background:new 0 0 512 512;"
	 xml:space="preserve">
<g>
        <g>
  <path d="M246.716,333.882c-1.07,1.475-2.29,2.825-3.625,4.012c-3.095,2.753-3.373,7.494-0.62,10.588
    c1.482,1.667,3.54,2.516,5.607,2.516c1.772,0,3.553-0.625,4.981-1.896c2.142-1.905,4.091-4.062,5.796-6.409
    c4.93-6.792,7.53-14.816,7.521-23.205c-0.005-4.14-3.361-7.492-7.5-7.492c-0.002,0-0.006,0-0.008,0
    c-4.142,0.004-7.497,3.366-7.492,7.508C251.383,324.702,249.771,329.673,246.716,333.882z"/>
  <path d="M184.877,277.892c20,5.593,44.485,13.122,56.402,21.771c1.331,0.966,2.872,1.431,4.399,1.431
    c2.32,0,4.609-1.073,6.076-3.095c2.433-3.353,1.688-8.042-1.665-10.476c-13.768-9.992-38.649-17.778-61.173-24.077
    c-3.99-1.116-8.128,1.214-9.243,5.203S180.889,276.777,184.877,277.892z"/>
  <path d="M499.332,379.201c7.664-13.232,11.673-28.152,11.673-43.706c0-83.538-67.962-151.5-151.5-151.5H249.989
    c-15.795-9.145-32.576-19.626-40.486-29.133l-15.673-18.836c0.13-0.104,0.259-0.21,0.387-0.316
    c13.352-11.109,15.176-31.01,4.067-44.362c-11.109-13.351-31.01-15.176-44.362-4.066c-6.468,5.382-10.453,12.96-11.221,21.339
    c-0.078,0.854-0.122,1.707-0.132,2.556c-8.789-1.522-18.167,0.667-25.544,6.806c-13.352,11.109-15.176,31.01-4.067,44.362
    c11.108,13.351,31.009,15.176,44.362,4.066c0.128-0.107,0.255-0.214,0.381-0.323l15.672,18.836
    c0.433,0.521,0.871,1.085,1.311,1.674c-18.674,3.958-36.205,12.354-51.097,24.617c-7.727-2.948-14.208-6.051-18.857-9.425
    l-19.832-14.393c0.1-0.133,0.199-0.267,0.297-0.402c4.942-6.81,6.937-15.136,5.617-23.445s-5.797-15.608-12.607-20.551
    c-6.809-4.942-15.136-6.938-23.445-5.616c-8.31,1.32-15.608,5.797-20.55,12.606c-4.942,6.81-6.937,15.136-5.617,23.446
    c0.134,0.842,0.3,1.674,0.498,2.494c-0.84,0.066-1.684,0.166-2.525,0.3c-8.31,1.32-15.608,5.797-20.55,12.606
    c-4.942,6.81-6.937,15.136-5.617,23.446s5.797,15.608,12.606,20.55c6.81,4.942,15.135,6.937,23.446,5.617
    c8.31-1.32,15.608-5.797,20.55-12.607c0.098-0.135,0.194-0.271,0.29-0.407l19.832,14.395c4.344,3.152,8.959,7.901,13.786,13.758
    c-7.229,15.669-10.902,32.433-10.902,49.909c0,65.893,53.607,119.5,119.5,119.5h103.998c0.89,0,1.74-0.164,2.533-0.448
    c7.407,5.453,16.39,8.448,25.965,8.448h147.504c17.369,0,31.5-14.131,31.5-31.5C511.005,390.848,506.307,383.282,499.332,379.201z
     M209.258,175.231c3.677,2.955,7.753,5.879,12.076,8.765h-21.829c-0.264,0-0.528,0.007-0.792,0.009L209.258,175.231z
     M163.497,149.602c-1.559-1.873-3.936-2.874-6.36-2.679c-2.43,0.193-4.614,1.554-5.856,3.651c-1.063,1.791-2.226,3.2-3.556,4.307
    c-6.994,5.82-17.419,4.863-23.237-2.13c-5.819-6.994-4.864-17.418,2.13-23.237s17.418-4.863,23.237,2.13
    c2.649,3.184,7.378,3.617,10.562,0.968c1.782-1.482,2.702-3.616,2.703-5.766c0.001-1.692-0.568-3.394-1.735-4.796
    c-2.819-3.388-4.15-7.671-3.748-12.06s2.49-8.358,5.877-11.177c6.995-5.819,17.418-4.864,23.238,2.13
    c5.819,6.994,4.863,17.418-2.131,23.237c-1.33,1.107-2.927,1.995-4.881,2.713c-2.287,0.841-4.023,2.741-4.655,5.095
    c-0.632,2.354-0.08,4.868,1.479,6.741l21.408,25.728c0.104,0.125,0.224,0.25,0.33,0.375l-13.085,10.888
    c-0.104-0.128-0.208-0.263-0.313-0.389L163.497,149.602z M105.897,248.353c-0.157-0.23-0.332-0.449-0.515-0.661
    c-2.68-3.411-5.334-6.576-7.962-9.442l12.1-16.671c16.12,7.334,38.337,13.249,61.528,19.42
    c34.064,9.065,69.288,18.439,89.028,32.767c25.213,18.3,30.837,53.7,12.538,78.913c-8.865,12.214-21.955,20.245-36.86,22.613
    c-14.906,2.367-29.84-1.21-42.054-10.075c-19.74-14.327-39.57-44.911-58.747-74.488
    C124.948,275.296,115.264,260.365,105.897,248.353z M58.846,208.029c-1.298-0.942-2.844-1.431-4.406-1.431
    c-0.813,0-1.629,0.132-2.418,0.4c-2.307,0.786-4.088,2.644-4.776,4.981c-0.588,1.998-1.368,3.649-2.385,5.051
    c-2.589,3.566-6.412,5.912-10.764,6.604c-4.353,0.691-8.714-0.354-12.281-2.942c-3.567-2.589-5.912-6.412-6.604-10.764
    c-0.691-4.353,0.354-8.714,2.942-12.281s6.412-5.912,10.764-6.604c4.353-0.692,8.714,0.353,12.281,2.942
    c3.353,2.434,8.042,1.688,10.476-1.664c0.964-1.329,1.43-2.868,1.431-4.394c0.001-2.322-1.072-4.613-3.095-6.081
    c-3.567-2.589-5.913-6.412-6.604-10.765s0.354-8.714,2.942-12.281s6.412-5.912,10.764-6.604c4.353-0.69,8.714,0.353,12.281,2.942
    c3.566,2.589,5.912,6.412,6.604,10.765s-0.354,8.714-2.943,12.282c-1.016,1.4-2.344,2.653-4.062,3.832
    c-2.009,1.379-3.224,3.648-3.256,6.085c-0.032,2.437,1.122,4.737,3.094,6.168l27.088,19.66c0.133,0.096,0.274,0.19,0.409,0.287
    l-9.997,13.773c-0.133-0.098-0.266-0.204-0.399-0.3L58.846,208.029z M479.505,415.996H332.001c-9.424,0-17.989-4.385-23.5-12.03
    c-5.51-7.646-6.961-17.158-3.981-26.098c1.31-3.93-0.814-8.177-4.744-9.487c-3.928-1.311-8.177,0.813-9.487,4.743
    c-3.926,11.778-2.778,24.207,3.06,34.872h-93.844c-57.622,0-104.5-46.879-104.5-104.5c0-12.506,2.143-24.592,6.381-36.074
    c6.733,9.492,13.77,20.344,20.981,31.467c19.923,30.728,40.524,62.501,62.522,78.467c12.658,9.188,27.344,13.609,41.904,13.609
    c22.141,0,43.989-10.228,57.959-29.476c23.158-31.907,16.04-76.706-15.867-99.864c-21.998-15.966-58.592-25.705-93.981-35.123
    c-11.916-3.171-23.563-6.271-34.074-9.473c17.22-11.696,37.614-18.035,58.674-18.035h47.792c0.496,0.049,0.992,0.048,1.482,0
    h110.725c75.267,0,136.5,61.233,136.5,136.5c0,14.602-4.271,28.523-12.368,40.5h-92.116c-0.225,0-0.36,0-0.475-0.342
    c-0.114-0.342-0.005-0.423,0.174-0.558l12.8-9.6c3.313-2.485,3.985-7.187,1.5-10.5c-2.486-3.314-7.186-3.985-10.5-1.5l-12.8,9.6
    c-5.429,4.072-7.55,10.863-5.404,17.302s7.918,10.599,14.705,10.599h95.929c0.018,0,0.035,0.004,0.053,0.004
    c0.013,0,0.026-0.002,0.04-0.002c4.67,0.021,8.463,3.824,8.463,8.499C496.005,408.593,488.603,415.996,479.505,415.996z"/>
  <path d="M382.931,225.702c0.589-4.1-2.257-7.901-6.357-8.49c-5.615-0.807-11.358-1.216-17.068-1.216c-4.142,0-7.5,3.357-7.5,7.5
    c0,4.142,3.358,7.5,7.5,7.5c4.999,0,10.023,0.357,14.935,1.063c0.362,0.052,0.721,0.077,1.076,0.077
    C379.185,232.136,382.393,229.44,382.931,225.702z"/>
  <path d="M404.267,241.076c21.696,10.33,39.333,27.968,49.661,49.664c1.285,2.7,3.974,4.278,6.777,4.278
    c1.08,0,2.178-0.235,3.218-0.73c3.74-1.78,5.329-6.255,3.548-9.995c-11.805-24.797-31.961-44.955-56.757-56.761
    c-3.742-1.781-8.215-0.192-9.996,3.548C398.939,234.819,400.527,239.294,404.267,241.076z"/>
</g>

      </g>
</svg>
