<?xml version="1.0" encoding="iso-8859-1"?>
<!-- Generator: Adobe Illustrator 16.0.0, SVG Export Plug-In . SVG Version: 6.00 Build 0)  -->
<!DOCTYPE svg PUBLIC "-//W3C//DTD SVG 1.1//EN" "http://www.w3.org/Graphics/SVG/1.1/DTD/svg11.dtd">
<svg version="1.1" id="Capa_1" xmlns="http://www.w3.org/2000/svg" xmlns:xlink="http://www.w3.org/1999/xlink" x="0px" y="0px"
	 width="512px" height="512px" viewBox="0 0 512 512" style="enable-background:new 0 0 512 512;"
	 xml:space="preserve">
<g>
	      <path d="M359.542,152.458c-4.167-4.167-10.917-4.167-15.083,0L256,240.917l-88.458-88.458c-4.167-4.167-10.917-4.167-15.083,0 c-4.167,4.167-4.167,10.917,0,15.083L240.917,256l-88.458,88.458c-4.167,4.167-4.167,10.917,0,15.083 c2.083,2.083,4.813,3.125,7.542,3.125s5.458-1.042,7.542-3.125L256,271.083l88.458,88.458c2.083,2.083,4.813,3.125,7.542,3.125 c2.729,0,5.458-1.042,7.542-3.125c4.167-4.167,4.167-10.917,0-15.083L271.083,256l88.458-88.458 C363.708,163.375,363.708,156.625,359.542,152.458z"/>


</g>
</svg>
