<?xml version="1.0" encoding="iso-8859-1"?>
<!-- Generator: Adobe Illustrator 16.0.0, SVG Export Plug-In . SVG Version: 6.00 Build 0)  -->
<!DOCTYPE svg PUBLIC "-//W3C//DTD SVG 1.1//EN" "http://www.w3.org/Graphics/SVG/1.1/DTD/svg11.dtd">
<svg version="1.1" id="Capa_1" xmlns="http://www.w3.org/2000/svg" xmlns:xlink="http://www.w3.org/1999/xlink" x="0px" y="0px"
	 width="512px" height="512px" viewBox="0 0 512 512" style="enable-background:new 0 0 512 512;"
	 xml:space="preserve">
<g>
	        <path d="m288.003906 408.007812h-280c-4.421875 0-7.99999975-3.578124-7.99999975-8v-344c0-4.425781 3.57812475-8 7.99999975-8h384c4.425782 0 8 3.574219 8 8v216c0 4.421876-3.574218 8-8 8-4.421875 0-8-3.578124-8-8v-208h-368v328h272c4.425782 0 8 3.574219 8 8 0 4.421876-3.574218 8-8 8zm0 0"/><path d="m392.003906 488.007812c-61.757812 0-112-50.242187-112-112 0-61.761718 50.242188-112 112-112 61.761719 0 112 50.238282 112 112 0 61.757813-50.238281 112-112 112zm0-208c-52.933594 0-96 43.0625-96 96 0 52.933594 43.066406 96 96 96 52.9375 0 96-43.066406 96-96 0-52.9375-43.0625-96-96-96zm0 0"/><path d="m392.003906 512.007812c-61.757812 0-112-50.242187-112-112 0-4.425781 3.578125-8 8-8 4.425782 0 8 3.574219 8 8 0 52.933594 43.066406 96 96 96 52.9375 0 96-43.066406 96-96 0-4.425781 3.578125-8 8-8 4.425782 0 8 3.574219 8 8 0 61.757813-50.238281 112-112 112zm0 0"/><path d="m7.996094 64.007812c-1.808594 0-3.617188-.609374-5.121094-1.847656-3.382812-2.832031-3.847656-7.882812-1.023438-11.28125l40-48c2.832032-3.390625 7.855469-3.839844 11.273438-1.023437 3.390625 2.832031 3.847656 7.871093 1.023438 11.269531l-40 48c-1.582032 1.90625-3.855469 2.882812-6.152344 2.882812zm0 0"/><path d="m392.011719 64.007812c-2.296875 0-4.566407-.976562-6.160157-2.875l-40-48c-2.832031-3.398437-2.367187-8.445312 1.023438-11.269531 3.410156-2.824219 8.449219-2.367187 11.273438 1.023438l40 48c2.832031 3.398437 2.367187 8.449219-1.023438 11.273437-1.496094 1.238282-3.304688 1.847656-5.113281 1.847656zm0 0"/><path d="m352.003906 16.007812h-304c-4.421875 0-8-3.578124-8-8 0-4.425781 3.578125-7.9999995 8-7.9999995h304c4.425782 0 8 3.5742185 8 7.9999995 0 4.421876-3.574218 8-8 8zm0 0"/><path d="m168.011719 64.007812c-.398438 0-.800781-.035156-1.199219-.089843-4.367188-.664063-7.375-4.742188-6.71875-9.113281l7.246094-48c.664062-4.367188 4.730468-7.308594 9.113281-6.7187505 4.367187.6640625 7.375 4.7460935 6.71875 9.1132815l-7.246094 48c-.609375 3.96875-4.023437 6.808593-7.914062 6.808593zm0 0"/><path d="m231.996094 64.007812c-3.839844 0-7.230469-2.777343-7.878906-6.6875l-8-48c-.730469-4.355468 2.214843-8.480468 6.574218-9.203124 4.371094-.757813 8.480469 2.21875 9.203125 6.578124l8 48c.726563 4.351563-2.21875 8.480469-6.578125 9.199219-.449218.078125-.878906.113281-1.320312.113281zm0 0"/><path d="m168.003906 136.007812c-4.421875 0-8-3.578124-8-8v-72c0-4.425781 3.578125-8 8-8 4.425782 0 8 3.574219 8 8v72c0 4.421876-3.574218 8-8 8zm0 0"/><path d="m232.003906 136.007812c-4.421875 0-8-3.578124-8-8v-72c0-4.425781 3.578125-8 8-8 4.425782 0 8 3.574219 8 8v72c0 4.421876-3.574218 8-8 8zm0 0"/><path d="m231.996094 136.007812c-1.199219 0-2.421875-.273437-3.566406-.839843l-32-16c-3.953126-1.976563-5.554688-6.785157-3.578126-10.738281 1.976563-3.949219 6.785157-5.542969 10.738282-3.574219l32 16c3.949218 1.976562 5.550781 6.78125 3.574218 10.734375-1.40625 2.800781-4.230468 4.417968-7.167968 4.417968zm0 0"/><path d="m168.011719 136.007812c-2.933594 0-5.757813-1.617187-7.167969-4.425781-1.976562-3.953125-.375-8.757812 3.578125-10.734375l32-16c3.949219-1.96875 8.75-.378906 10.734375 3.574219 1.976562 3.953125.375 8.761719-3.574219 10.738281l-32 16c-1.144531.574219-2.371093.847656-3.570312.847656zm0 0"/><path d="m72.003906 368.007812h-24c-4.421875 0-8-3.578124-8-8v-24c0-4.425781 3.578125-8 8-8h24c4.425782 0 8 3.574219 8 8v24c0 4.421876-3.574218 8-8 8zm-16-16h8v-8h-8zm0 0"/><path d="m120.003906 368.007812h-24c-4.421875 0-8-3.578124-8-8v-24c0-4.425781 3.578125-8 8-8h24c4.425782 0 8 3.574219 8 8v24c0 4.421876-3.574218 8-8 8zm-16-16h8v-8h-8zm0 0"/><path d="m168.003906 368.007812h-24c-4.421875 0-8-3.578124-8-8v-24c0-4.425781 3.578125-8 8-8h24c4.425782 0 8 3.574219 8 8v24c0 4.421876-3.574218 8-8 8zm-16-16h8v-8h-8zm0 0"/><path d="m160.003906 272.007812h-112c-4.421875 0-8-3.578124-8-8 0-4.425781 3.578125-8 8-8h112c4.425782 0 8 3.574219 8 8 0 4.421876-3.574218 8-8 8zm0 0"/><path d="m104.003906 296.007812h-56c-4.421875 0-8-3.578124-8-8 0-4.425781 3.578125-8 8-8h56c4.425782 0 8 3.574219 8 8 0 4.421876-3.574218 8-8 8zm0 0"/><path d="m288.003906 408.007812c-4.421875 0-8-3.578124-8-8v-24c0-4.425781 3.578125-8 8-8 4.425782 0 8 3.574219 8 8v24c0 4.421876-3.574218 8-8 8zm0 0"/><path d="m496.003906 408.007812c-4.421875 0-8-3.578124-8-8v-24c0-4.425781 3.578125-8 8-8 4.425782 0 8 3.574219 8 8v24c0 4.421876-3.574218 8-8 8zm0 0"/><path d="m392.003906 384c-4.421875 0-8-3.578125-8-8v-55.992188c0-4.425781 3.578125-8 8-8 4.425782 0 8 3.574219 8 8v55.992188c0 4.421875-3.574218 8-8 8zm0 0"/><path d="m431.597656 423.597656c-2.050781 0-4.097656-.78125-5.65625-2.34375l-39.59375-39.589844c-3.128906-3.128906-3.128906-8.183593 0-11.3125 3.128906-3.128906 8.183594-3.128906 11.3125 0l39.59375 39.589844c3.125 3.128906 3.125 8.183594 0 11.3125-1.5625 1.570313-3.609375 2.34375-5.65625 2.34375zm0 0"/>


</g>
</svg>
