<?xml version="1.0" encoding="iso-8859-1"?>
<!-- Generator: Adobe Illustrator 16.0.0, SVG Export Plug-In . SVG Version: 6.00 Build 0)  -->
<!DOCTYPE svg PUBLIC "-//W3C//DTD SVG 1.1//EN" "http://www.w3.org/Graphics/SVG/1.1/DTD/svg11.dtd">
<svg version="1.1" id="Capa_1" xmlns="http://www.w3.org/2000/svg" xmlns:xlink="http://www.w3.org/1999/xlink" x="0px" y="0px"
	 width="469px" height="469px" viewBox="0 0 469 469" style="enable-background:new 0 0 469 469;"
	 xml:space="preserve">
<g>
	<path d="M377.146,0.709C375.909,0.235,374.625,0,373.334,0c-2.341-0.001-4.677,0.767-6.583,2.271
      c-0.375,0.302-39.729,30.917-71.292,40.896c-7.5,2.365-18.063,5.313-30.188,8.708c-57.896,16.188-107.146,30.917-123.479,47.25
      c-18.215,18.215-30.176,89.999-34.029,116.426C46.788,225.3,0,277.653,0,341.334c0,70.583,57.417,128,128,128
      s128-56.958,128-127.542c0-15.505-2.965-30.628-8.499-45.151c18.984-10.654,38.482-18.049,52.186-19.359
      c2.979-0.281,5.813-0.406,8.604-0.542c15.396-0.719,31.333-1.458,60.646-22.781c15.75-11.448,24.813-26.396,34.417-42.208
      c13.167-21.75,26.813-44.229,60.667-63.854c3.292-1.906,5.313-5.427,5.313-9.229C469.334,37.167,378.063,1.063,377.146,0.709z
       M128,448.459c-58.813,0-106.667-47.854-106.667-106.667S69.188,235.125,128,235.125c11.629,0,23.115,2.094,34.053,5.777
      c-8.508,6.656-16.991,14.608-23.919,23.122C136.935,259.444,132.959,256,128,256c-5.896,0-10.667,4.771-10.667,10.667v11.206
      c-18.046,2.615-32,18.036-32,36.794c0,20.583,16.75,37.333,37.333,37.333h10.667c8.813,0,16,7.177,16,16c0,8.823-7.188,16-16,16
      H96c-5.896,0-10.667,4.771-10.667,10.667c0,5.896,4.771,10.667,10.667,10.667h21.333v10.667c0,5.896,4.771,10.667,10.667,10.667
      c5.896,0,10.667-4.771,10.667-10.667v-11.206c18.046-2.615,32-18.036,32-36.794c0-20.583-16.75-37.333-37.333-37.333h-10.667
      c-8.813,0-16-7.177-16-16s7.188-16,16-16h0.495c0.27,6.961,2.926,13.171,7.964,18.208c9.771,9.76,22.125,13.688,35.313,13.688
      c21.161,0,44.445-10.147,62.648-22.518c3.693,10.918,5.581,22.225,5.581,33.747C234.667,400.605,186.813,448.459,128,448.459z
       M385.104,200.688c-8.813,14.531-16.417,27.083-28.708,36.021c-24.146,17.563-35.167,18.073-49.104,18.719
      c-3.125,0.146-6.292,0.302-9.646,0.625c-21.604,2.052-52.896,15.333-79.708,33.833c-23.813,16.469-56.438,27.198-71.729,11.906
      c-1.25-1.25-2.292-2.938-1.521-6.76c3.396-16.708,34.479-43.677,51.312-50.479c20.229-8.167,68.542-30.281,80.521-59.135
      c1.354-3.281,1-7.042-0.979-10c-7.104-10.667-18.229-15.531-26.333-19.094c-2.479-1.083-5.75-2.344-5.771-2.396
      c-3.021-4.385-8.854-5.823-13.542-3.469c-6.5,3.25-23.854,8.25-30,9.906c-3.021,0.813-5.542,2.917-6.875,5.75l-25.591,54.158
      c-12.195-3.949-24.923-6.216-37.822-6.38c5.99-38.84,17.167-89.583,27.267-99.684c13.708-13.698,76.583-31.281,114.146-41.792
      c12.375-3.469,23.188-6.49,30.854-8.917c28.333-8.938,60.458-31.375,72.833-40.51c17.042,8.406,70.271,40.167,73.167,109.719
      C413.167,154.407,397.667,179.959,385.104,200.688z M189.104,224.323l21.125-44.688c5.75-1.635,15.375-4.5,22.875-7.375
      c2.271,1.292,4.813,2.406,7.542,3.594c4.396,1.938,9.229,4.052,12.979,7.01C242.5,198.459,213.229,214.469,189.104,224.323z"/>

</g>
</svg>
