<?xml version="1.0" encoding="iso-8859-1"?>
<!-- Generator: Adobe Illustrator 16.0.0, SVG Export Plug-In . SVG Version: 6.00 Build 0)  -->
<!DOCTYPE svg PUBLIC "-//W3C//DTD SVG 1.1//EN" "http://www.w3.org/Graphics/SVG/1.1/DTD/svg11.dtd">
<svg version="1.1" id="Capa_1" xmlns="http://www.w3.org/2000/svg" xmlns:xlink="http://www.w3.org/1999/xlink" x="0px" y="0px"
	 width="512px" height="512px" viewBox="0 0 512 512" style="enable-background:new 0 0 512 512;"
	 xml:space="preserve">
<g>
        <g>
  <g>
    <path d="M365.091,76.635c-11.189-5.137-21.571-3.693-28.562-1.415c-2.837-6.788-8.52-15.611-19.71-20.749
      c-7.69-3.531-16.057-3.799-24.196-0.775c-9.887,3.672-18.382,11.951-23.306,22.712c-6.272,13.707-11.719,43.424,22.271,88.448
      c1.425,1.884,3.645,2.981,5.987,2.981c0.159,0,0.319-0.005,0.479-0.015c56.25-3.598,75.173-27.135,81.446-40.846
      C388.771,106.714,382.441,84.602,365.091,76.635z M365.859,120.734c-4.741,10.361-19.432,27.982-64.714,31.817
      c-26.663-36.876-22.929-59.537-18.187-69.902c3.28-7.167,8.706-12.595,14.889-14.892c1.615-0.6,3.7-1.122,6.063-1.122
      c2.049,0,4.308,0.393,6.651,1.468c11.81,5.423,13.7,17.788,13.789,18.421c0.332,2.566,1.962,4.781,4.315,5.859
      c2.369,1.085,5.131,0.862,7.295-0.586c0.107-0.072,10.991-6.985,22.871-1.53C369.677,95.247,370.922,109.668,365.859,120.734z"/>
  </g>
</g>
<g>
  <g>
    <path d="M243.223,22.771C236.338,5.086,218.99-4.13,203.726,1.79c-9.146,3.548-14.358,10.085-17.251,15.524
      c-5.81-2.063-14.076-3.374-23.221,0.173c-6.794,2.635-11.976,7.64-14.985,14.474c-3.619,8.22-3.608,18.297,0.031,27.647
      c4.58,11.766,19.2,32.365,65.655,38.143c0.31,0.038,0.619,0.057,0.927,0.057c2.179,0,4.269-0.95,5.704-2.631
      c4.432-5.193,8.352-10.414,11.651-15.517c2.249-3.479,1.252-8.122-2.227-10.371c-3.478-2.25-8.122-1.253-10.37,2.227
      c-2.286,3.535-4.921,7.153-7.862,10.792c-26.107-3.98-44.045-14.131-49.499-28.141c-2.173-5.583-2.279-11.625-0.282-16.16
      c1.39-3.155,3.637-5.354,6.681-6.534c9.21-3.574,17.024,1.991,17.296,2.187c2.076,1.573,4.82,1.956,7.248,1.013
      c2.428-0.944,4.192-3.081,4.66-5.644c0.017-0.096,2.003-9.66,11.268-13.254c8.295-3.219,16.731,3.798,20.095,12.437
      c1.944,4.995,2.415,10.739,1.399,17.072c-0.656,4.091,2.127,7.938,6.217,8.594c4.094,0.653,7.937-2.128,8.593-6.218
      C246.898,38.659,246.147,30.285,243.223,22.771z"/>
  </g>
</g>
<g>
  <g>
    <path d="M254.296,187.28l-77.712-32.816l-77.632-33.065c-3.548-1.509-7.66-0.086-9.514,3.293l-9.006,16.414
      c-0.265,0.482-0.527,0.966-0.787,1.45c-1.961,3.649-0.592,8.196,3.057,10.157c3.648,1.961,8.195,0.593,10.156-3.057
      c0.239-0.444,0.479-0.888,0.724-1.332l5.741-10.462l71.406,30.413l71.478,30.184l-3.53,11.401
      c-1.13,3.649-2.392,7.23-3.754,10.755H73.75c0.467-14.412,2.88-28.834,7.278-42.851c1.24-3.952-0.958-8.162-4.91-9.402
      c-3.956-1.242-8.162,0.959-9.402,4.91c-5.621,17.916-8.28,36.443-8.031,54.856c0,0.03-0.004,0.06-0.003,0.09
      c0.002,0.129,0.008,0.257,0.01,0.385c0.018,1.092,0.046,2.184,0.084,3.276c0.011,0.322,0.022,0.645,0.035,0.967
      c0.04,0.974,0.089,1.947,0.145,2.92c0.025,0.44,0.048,0.88,0.076,1.319c0.051,0.785,0.112,1.569,0.174,2.353
      c0.048,0.617,0.093,1.234,0.148,1.849c0.042,0.466,0.092,0.932,0.137,1.397c0.945,9.763,2.713,19.368,5.29,28.766
      c0.01,0.038,0.021,0.076,0.031,0.114c0.317,1.153,0.646,2.303,0.987,3.449c0.043,0.144,0.087,0.288,0.13,0.432
      c0.317,1.055,0.643,2.109,0.981,3.158c0.084,0.261,0.172,0.522,0.257,0.783c0.309,0.943,0.621,1.886,0.947,2.825
      c0.143,0.412,0.292,0.821,0.438,1.232c0.285,0.801,0.568,1.601,0.864,2.398c0.233,0.627,0.478,1.251,0.719,1.876
      c0.229,0.594,0.452,1.19,0.688,1.782c0.491,1.233,0.995,2.462,1.515,3.686c0.543,1.276,1.057,2.534,1.549,3.776
      c0.124,0.312,0.236,0.616,0.357,0.926c0.366,0.941,0.722,1.875,1.057,2.794c0.119,0.325,0.23,0.643,0.344,0.965
      c0.32,0.899,0.628,1.788,0.918,2.664c0.1,0.301,0.197,0.6,0.293,0.898c0.292,0.908,0.568,1.801,0.826,2.68
      c3.424,11.636,3.892,20.827,1.28,26.965l-33.857,79.701l-11.513-4.901c-5.78-2.461-12.171-2.523-17.998-0.175
      c-5.827,2.347-10.391,6.824-12.85,12.604l-1.882,4.421c-1.12,2.63-1.148,5.54-0.08,8.192s3.105,4.73,5.736,5.849l82.53,35.131
      c1.348,0.574,2.768,0.861,4.19,0.861c1.353,0,2.707-0.26,4.001-0.781c2.652-1.068,4.729-3.106,5.849-5.737l1.882-4.421
      c2.46-5.78,2.522-12.172,0.175-18c-2.348-5.827-6.823-10.391-12.603-12.851l-11.561-4.921l33.777-79.798
      c2.661-6.299,9.875-12.503,21.095-18.252c0.397-0.203,0.8-0.406,1.207-0.608c0.567-0.282,1.142-0.562,1.729-0.842
      c0.286-0.137,0.569-0.274,0.86-0.41c0.799-0.373,1.618-0.743,2.451-1.112c0.265-0.118,0.532-0.235,0.801-0.352
      c0.893-0.388,1.801-0.774,2.731-1.157c0.182-0.075,0.368-0.149,0.551-0.224c1.023-0.416,2.061-0.831,3.129-1.24
      c1.45-0.556,2.89-1.136,4.322-1.732c0.465-0.193,0.925-0.398,1.388-0.596c0.963-0.411,1.926-0.824,2.88-1.253
      c0.564-0.253,1.123-0.516,1.684-0.775c0.838-0.387,1.675-0.777,2.507-1.178c0.628-0.302,1.251-0.612,1.875-0.922
      c0.737-0.366,1.471-0.736,2.202-1.113c0.701-0.361,1.4-0.728,2.096-1.099c0.604-0.323,1.206-0.649,1.806-0.979
      c0.813-0.446,1.624-0.895,2.43-1.354c0.388-0.221,0.774-0.448,1.16-0.672c14.892-8.63,28.556-19.496,40.295-32.167
      c9.401-10.148,17.593-21.488,24.389-33.627c0.339-0.605,0.682-1.207,1.015-1.816c0.321-0.59,0.632-1.184,0.947-1.778
      c0.441-0.83,0.879-1.662,1.307-2.501c0.27-0.53,0.534-1.063,0.799-1.596c0.438-0.88,0.871-1.764,1.295-2.652
      c0.269-0.563,0.533-1.128,0.796-1.695c0.379-0.817,0.751-1.637,1.118-2.46c0.303-0.681,0.604-1.363,0.898-2.047
      c0.112-0.261,0.231-0.517,0.342-0.779c0.028-0.066,0.045-0.134,0.071-0.201c2.294-5.414,4.333-10.934,6.07-16.545l5.539-17.885
      C259.683,192.726,257.847,188.779,254.296,187.28z M86.67,448.548c2.092,0.891,3.713,2.544,4.563,4.654
      c0.85,2.11,0.828,4.425-0.063,6.519l-0.199,0.468l-74.623-31.766l0.199-0.468c0.891-2.093,2.544-3.714,4.654-4.564
      c2.11-0.85,4.425-0.828,6.519,0.063c0.028,0.012,0,0,0.028,0.012L86.67,448.548z M100.945,344.183l-33.757,79.749l-8.277-3.51
      l33.857-79.701c2.626-6.169,3.453-13.464,2.5-21.976L115,327.113C108.22,332.346,103.552,338.01,100.945,344.183z
       M151.134,308.846c-0.518,0.229-1.039,0.453-1.56,0.677c-0.623,0.268-1.247,0.537-1.874,0.797c-1.246,0.515-2.497,1.02-3.76,1.505
      c-0.029,0.011-0.056,0.023-0.085,0.034c-1.27,0.488-2.512,0.984-3.734,1.486c-0.635,0.26-1.248,0.523-1.867,0.785
      c-0.547,0.232-1.094,0.464-1.63,0.699c-0.815,0.355-1.612,0.714-2.4,1.074c-0.238,0.109-0.474,0.219-0.71,0.329
      c-0.921,0.427-1.831,0.857-2.715,1.291l-39.617-16.804c-0.302-0.934-0.624-1.884-0.956-2.84c-0.087-0.251-0.174-0.502-0.263-0.755
      c-0.287-0.812-0.583-1.631-0.892-2.459c-0.207-0.556-0.424-1.119-0.64-1.682c-0.239-0.619-0.472-1.233-0.723-1.861
      c-0.501-1.258-1.02-2.527-1.567-3.811c-0.451-1.061-0.89-2.126-1.317-3.195c-0.073-0.184-0.142-0.369-0.215-0.553
      c-0.356-0.902-0.708-1.806-1.047-2.713c-0.044-0.117-0.084-0.235-0.128-0.351c-0.367-0.989-0.726-1.98-1.072-2.975
      c-0.008-0.023-0.016-0.046-0.024-0.069c-3.415-9.834-5.825-19.963-7.226-30.231c-0.014-0.106-0.029-0.212-0.043-0.318
      c-0.128-0.952-0.244-1.906-0.355-2.86c-0.03-0.262-0.061-0.524-0.09-0.787c-0.086-0.774-0.163-1.55-0.237-2.326
      c-0.042-0.441-0.085-0.881-0.123-1.323c-0.051-0.578-0.094-1.157-0.138-1.735c-0.047-0.628-0.095-1.257-0.135-1.886
      c-0.008-0.125-0.014-0.251-0.022-0.376h154.214C211.538,268.146,184.149,294.21,151.134,308.846z"/>
  </g>
</g>
<g>
  <g>
    <path d="M511.147,461.967l-1.882-4.422c-2.46-5.78-7.024-10.256-12.85-12.604c-5.828-2.347-12.22-2.284-17.998,0.175
      l-11.513,4.901l-33.859-79.706c-2.61-6.131-2.143-15.312,1.274-26.936c0.26-0.886,0.538-1.787,0.833-2.701
      c0.097-0.301,0.195-0.602,0.296-0.906c0.287-0.866,0.592-1.747,0.909-2.637c0.119-0.333,0.233-0.662,0.356-0.998
      c0.33-0.903,0.681-1.822,1.04-2.747c0.126-0.324,0.243-0.641,0.373-0.968c0.48-1.211,0.982-2.437,1.51-3.68
      c0.013-0.03,0.024-0.058,0.036-0.088c0.006-0.014,0.011-0.029,0.018-0.043c0.58-1.365,1.136-2.739,1.68-4.116
      c0.123-0.311,0.242-0.624,0.363-0.936c0.491-1.265,0.967-2.536,1.428-3.811c0.04-0.112,0.082-0.224,0.122-0.336
      c5.447-15.19,8.72-31.065,9.734-47.329c0.005-0.079,0-0.158,0.003-0.237c0.416-6.702,0.448-13.432,0.079-20.141
      c-1.435-26.111-8.876-52.09-21.518-75.129l-9.007-16.415c-1.854-3.38-5.969-4.804-9.514-3.293l-19.168,8.164
      c-3.811,1.623-5.584,6.029-3.961,9.84c1.624,3.811,6.027,5.585,9.839,3.962l12.921-5.503l5.741,10.462
      c13.821,25.187,20.522,52.806,20,80.324h-157.99c-2.72-6.06-5.105-12.326-7.106-18.789l-3.53-11.4l71.5-30.193l29.033-12.366
      c3.811-1.623,5.584-6.029,3.961-9.84c-1.624-3.811-6.029-5.584-9.839-3.962l-29.012,12.357l-77.734,32.826
      c-3.551,1.499-5.387,5.446-4.247,9.128l5.538,17.887c2.647,8.548,5.972,16.891,9.89,24.946c0.028,0.062,0.047,0.127,0.078,0.189
      c0.184,0.378,0.378,0.75,0.564,1.126c0.302,0.608,0.603,1.215,0.912,1.819c0.503,0.988,1.019,1.968,1.539,2.944
      c0.168,0.315,0.332,0.632,0.502,0.946c18.214,33.667,46.513,60.108,80.92,75.673c0.149,0.068,0.297,0.135,0.446,0.202
      c1.221,0.548,2.451,1.083,3.687,1.604c0.281,0.119,0.56,0.241,0.842,0.358c1.429,0.593,2.865,1.172,4.313,1.728
      c1.067,0.409,2.103,0.823,3.125,1.239c0.185,0.076,0.373,0.151,0.557,0.226c0.927,0.382,1.832,0.766,2.722,1.153
      c0.273,0.119,0.545,0.239,0.815,0.358c0.831,0.367,1.647,0.737,2.444,1.109c0.29,0.136,0.573,0.273,0.859,0.409
      c0.589,0.281,1.166,0.562,1.735,0.845c0.4,0.199,0.798,0.398,1.189,0.599c11.228,5.751,18.447,11.958,21.11,18.264l33.775,79.793
      l-11.561,4.921c-5.78,2.46-10.255,7.024-12.603,12.851c-2.347,5.827-2.285,12.219,0.175,17.999l1.882,4.422
      c1.12,2.631,3.197,4.668,5.849,5.737c1.293,0.521,2.648,0.781,4.001,0.781c1.422,0,2.843-0.287,4.19-0.861l82.529-35.131
      C510.921,473.697,513.458,467.398,511.147,461.967z M381.212,352.985c-0.876-0.43-1.777-0.856-2.69-1.279
      c-0.252-0.117-0.503-0.234-0.758-0.351c-0.774-0.354-1.559-0.706-2.359-1.056c-0.555-0.243-1.122-0.483-1.689-0.724
      c-0.602-0.255-1.197-0.51-1.813-0.762c-1.228-0.504-2.475-1.002-3.75-1.492c-0.028-0.011-0.054-0.022-0.082-0.033
      c-1.267-0.486-2.521-0.993-3.771-1.509c-0.413-0.171-0.824-0.346-1.235-0.52c-0.827-0.35-1.65-0.708-2.469-1.071
      c-0.495-0.22-0.991-0.438-1.483-0.662c-0.721-0.328-1.435-0.668-2.149-1.006c-1.222-0.58-2.437-1.173-3.642-1.784
      c-0.238-0.12-0.477-0.238-0.715-0.36c-0.938-0.481-1.871-0.971-2.798-1.471c-0.026-0.014-0.051-0.028-0.077-0.041
      c-25.473-13.753-46.706-34.34-61.517-59.751h149.133c-1.262,11.171-3.708,22.106-7.298,32.688
      c-0.095,0.279-0.19,0.558-0.287,0.836c-0.473,1.37-0.971,2.733-1.483,4.091c-0.145,0.384-0.285,0.769-0.433,1.153
      c-0.633,1.64-1.289,3.274-1.978,4.895c-0.548,1.288-1.068,2.561-1.571,3.823c-0.245,0.612-0.472,1.213-0.706,1.817
      c-0.223,0.579-0.446,1.157-0.658,1.729c-0.305,0.819-0.597,1.628-0.881,2.431c-0.092,0.261-0.182,0.521-0.272,0.781
      c-0.33,0.952-0.652,1.897-0.952,2.827L381.212,352.985z M411.068,379.655c-2.61-6.177-7.278-11.843-14.059-17.075l19.733-8.369
      c-0.953,8.511-0.126,15.804,2.499,21.971l33.859,79.706l-8.277,3.51L411.068,379.655z M421.039,495.654l-0.199-0.468
      c-0.891-2.093-0.914-4.408-0.063-6.518c0.85-2.11,2.471-3.763,4.564-4.654l58.95-25.095c1.073-0.457,2.203-0.685,3.334-0.685
      c1.077,0,2.155,0.207,3.184,0.622c2.11,0.85,3.763,2.471,4.654,4.564l0.199,0.468L421.039,495.654z"/>
  </g>
</g>

      </g>
</svg>
