<?xml version="1.0" encoding="iso-8859-1"?>
<!-- Generator: Adobe Illustrator 16.0.0, SVG Export Plug-In . SVG Version: 6.00 Build 0)  -->
<!DOCTYPE svg PUBLIC "-//W3C//DTD SVG 1.1//EN" "http://www.w3.org/Graphics/SVG/1.1/DTD/svg11.dtd">
<svg version="1.1" id="Capa_1" xmlns="http://www.w3.org/2000/svg" xmlns:xlink="http://www.w3.org/1999/xlink" x="0px" y="0px"
	 width="512px" height="512px" viewBox="0 0 512 512" style="enable-background:new 0 0 512 512;"
	 xml:space="preserve">
<g>
	<path d="M506.103,188.455L260.77,65.788c-3.003-1.501-6.538-1.501-9.54,0L5.897,188.455C2.283,190.262,0,193.956,0,197.995
              c0,4.041,2.283,7.734,5.897,9.54l81.215,40.607v81.514c0,50.342,74.185,89.778,168.889,89.778S424.889,380,424.889,329.656
              v-81.514l28.346-14.173v77.795c-13.067,4.453-22.494,16.838-22.494,31.393c0,13.196,7.748,24.612,18.932,29.949l-22.659,59.783
              c-1.242,3.278-0.795,6.957,1.197,9.841s5.273,4.606,8.778,4.606h53.833c3.505,0,6.786-1.722,8.779-4.606
              c1.991-2.884,2.438-6.563,1.197-9.84l-22.659-59.783c11.182-5.337,18.93-16.753,18.93-29.949c0-14.556-9.43-26.942-22.499-31.394
              v-88.461l31.536-15.767c3.614-1.807,5.896-5.501,5.896-9.54C512,193.956,509.717,190.262,506.103,188.455z M363.109,376.057
              c-28.431,14.215-66.47,22.045-107.109,22.045c-40.639,0-78.677-7.829-107.109-22.045c-25.703-12.852-40.446-29.764-40.446-46.4
              V258.81l142.785,71.393c1.502,0.751,3.136,1.126,4.77,1.126s3.268-0.375,4.77-1.126l142.785-71.393v70.847h0
              C403.555,346.293,388.813,363.205,363.109,376.057z M452.437,426.005l11.467-30.253l11.466,30.253H452.437z M475.732,343.159
              c0.001,6.524-5.306,11.83-11.828,11.83c-6.524,0-11.83-5.307-11.83-11.83c0-6.506,5.279-11.798,11.777-11.827
              c0.017,0,0.033,0.002,0.05,0.002c0.018,0,0.035-0.002,0.052-0.002C470.452,331.36,475.732,336.652,475.732,343.159z
               M461.736,205.868l-204.78-18.492c-5.867-0.534-11.053,3.797-11.583,9.664c-0.53,5.868,3.797,11.053,9.664,11.583l170.412,15.388
              L256,308.737L34.518,197.995L256,87.255l221.482,110.741L461.736,205.868z"/>
</g>
</svg>
