<?xml version="1.0" encoding="iso-8859-1"?>
<!-- Generator: Adobe Illustrator 16.0.0, SVG Export Plug-In . SVG Version: 6.00 Build 0)  -->
<!DOCTYPE svg PUBLIC "-//W3C//DTD SVG 1.1//EN" "http://www.w3.org/Graphics/SVG/1.1/DTD/svg11.dtd">
<svg version="1.1" id="Capa_1" xmlns="http://www.w3.org/2000/svg" xmlns:xlink="http://www.w3.org/1999/xlink" x="0px" y="0px"
	 width="512px" height="512px" viewBox="0 0 512 512" style="enable-background:new 0 0 512 512;"
	 xml:space="preserve">
<g>
	<g>
        <g>
          <g>
            <path d="M106.503,137.776c0-15.773-12.833-28.605-28.605-28.605c-6.92,0-13.421,2.429-18.54,6.809
              c-2.96-1.01-6.084-1.532-9.249-1.532c-15.773,0-28.605,12.832-28.605,28.605c0,12.176,7.847,22.919,18.968,26.929
              c3.353,12.148,14.552,21.023,27.577,21.023c15.773,0,28.605-12.832,28.605-28.605c0-0.974-0.049-1.944-0.147-2.906
              C102.775,154.114,106.503,146.198,106.503,137.776z M84.548,149.643l-5.272,2.964l1.779,5.78c0.398,1.294,0.601,2.644,0.601,4.011
              c0,7.502-6.104,13.605-13.605,13.605c-7.099,0-13.057-5.54-13.563-12.612l-0.431-6.005l-5.956-0.879
              c-6.61-0.975-11.595-6.76-11.595-13.456c0-7.502,6.104-13.605,13.605-13.605c2.504,0,4.948,0.684,7.069,1.978l5.781,3.527
              l4.097-5.392c2.603-3.426,6.554-5.39,10.842-5.39c7.502,0,13.605,6.104,13.605,13.605
              C91.504,142.683,88.839,147.231,84.548,149.643z"/>
          </g>
        </g>
        <g>
          <g>
            <path d="M186.502,41.827c0-14.518-11.811-26.328-26.329-26.328c-6.214,0-12.06,2.127-16.715,5.973
              c-2.595-0.835-5.317-1.266-8.075-1.266c-14.518,0-26.329,11.811-26.329,26.328c0,0.896,0.046,1.791,0.138,2.682
              c-3.716,4.639-5.786,10.44-5.786,16.461c0,14.518,11.811,26.328,26.329,26.328c4.54,0,8.984-1.18,12.9-3.381
              c2.8,0.987,5.761,1.498,8.752,1.498c14.518,0,26.329-11.811,26.329-26.328c0-0.755-0.032-1.507-0.096-2.255
              C183.197,56.595,186.502,49.437,186.502,41.827z M165.711,51.709l-5.273,2.964l1.78,5.781c0.332,1.076,0.5,2.2,0.5,3.34
              c0,6.246-5.082,11.328-11.329,11.328c-2.008,0-3.981-0.534-5.707-1.544l-4.583-2.684l-4.053,3.431
              c-2.071,1.753-4.599,2.68-7.311,2.68c-6.247,0-11.329-5.082-11.329-11.328c0.001-3.234,1.393-6.324,3.819-8.476l3.504-3.108
              l-1.255-4.513c-0.277-0.996-0.418-2.021-0.418-3.045c0-6.246,5.082-11.328,11.329-11.328c2.085,0,4.12,0.569,5.886,1.646
              l5.781,3.526l4.096-5.393c2.166-2.852,5.457-4.487,9.027-4.487c6.247,0,11.329,5.082,11.329,11.328
              C171.504,45.914,169.284,49.7,165.711,51.709z"/>
          </g>
        </g>
        <g>
          <g>
            <path d="M490.499,97.332c0-14.518-11.811-26.328-26.329-26.328c-6.213,0-12.059,2.127-16.715,5.974
              c-2.594-0.836-5.318-1.267-8.076-1.267c-14.518,0-26.329,11.811-26.329,26.328c0,0.896,0.046,1.791,0.138,2.683
              c-3.716,4.639-5.786,10.439-5.786,16.46c0,14.518,11.811,26.328,26.329,26.328c4.54,0,8.984-1.18,12.9-3.381
              c2.8,0.987,5.761,1.498,8.752,1.498c14.518,0,26.329-11.811,26.329-26.328c0-0.754-0.032-1.507-0.096-2.254
              C487.194,112.102,490.499,104.943,490.499,97.332z M469.706,107.215l-5.274,2.965l1.781,5.781
              c0.331,1.075,0.499,2.198,0.499,3.338c0,6.246-5.082,11.328-11.329,11.328c-2.008,0-3.981-0.534-5.707-1.544l-4.583-2.684
              l-4.053,3.431c-2.071,1.753-4.599,2.68-7.311,2.68c-6.247,0-11.329-5.082-11.329-11.328c0-3.233,1.392-6.323,3.818-8.476
              l3.503-3.107l-1.254-4.512c-0.278-0.998-0.418-2.023-0.418-3.048c0-6.246,5.082-11.328,11.329-11.328
              c2.085,0,4.12,0.569,5.884,1.646l5.782,3.528l4.097-5.394c2.167-2.853,5.457-4.488,9.027-4.488
              c6.247,0,11.329,5.082,11.329,11.328C475.499,101.42,473.279,105.206,469.706,107.215z"/>
          </g>
        </g>
        <g>
          <g>
            <path d="M410.668,32.557c-3.889-5.725-9.552-9.736-16.051-11.508c-0.828-3.018-2.151-5.894-3.93-8.512
              c-4.294-6.32-10.792-10.59-18.298-12.022c-7.507-1.432-15.12,0.145-21.439,4.438c-10.071,6.843-14.548,19.371-11.614,30.823
              c-8.164,9.6-9.211,23.851-1.891,34.625c4.294,6.32,10.792,10.59,18.298,12.022c1.808,0.345,3.621,0.516,5.422,0.516
              c5.675-0.001,11.22-1.694,16.018-4.955c0.804-0.546,1.578-1.131,2.319-1.753c7.975,2.161,16.615,0.796,23.583-3.938h-0.001
              C416.13,63.429,419.533,45.604,410.668,32.557z M400.373,51.183c-0.681,3.569-2.712,6.66-5.718,8.703h-0.001
              c-4.06,2.759-9.32,3.11-13.726,0.916l-5.414-2.693l-3.781,4.719c-0.847,1.057-1.85,1.982-2.98,2.751
              c-3.006,2.042-6.627,2.793-10.197,2.11c-3.57-0.682-6.66-2.712-8.703-5.718c-3.99-5.872-2.756-13.913,2.809-18.307l4.725-3.731
              l-2.621-5.42c-2.909-6.016-0.925-13.391,4.614-17.154c2.282-1.55,4.918-2.355,7.618-2.355c0.856,0,1.719,0.081,2.579,0.245
              c3.57,0.682,6.66,2.712,8.703,5.718c1.407,2.071,2.215,4.478,2.337,6.959l0.332,6.765l6.763,0.357
              c4.295,0.228,8.141,2.393,10.55,5.938C400.304,43.992,401.054,47.614,400.373,51.183z"/>
          </g>
        </g>
        <g>
          <g>
            <path d="M412.5,210.729c0-4.029-0.938-8.009-2.695-11.596c1.774-3.588,2.695-7.531,2.695-11.634
              c0-12.74-9.094-23.391-21.131-25.81c1.384-3.225,2.131-6.739,2.131-10.355c0-14.519-11.812-26.33-26.33-26.33
              c-3.958,0-7.817,0.887-11.325,2.562c-6.351-6.08-14.851-9.562-23.845-9.562c-2.31,0-4.591,0.227-6.824,0.678
              c-2.036-2.028-4.382-3.702-6.945-4.962c5.22-5.283,8.27-12.485,8.27-20.105c0-15.775-12.834-28.61-28.61-28.61
              c-6.914,0-13.414,2.43-18.536,6.811c-2.959-1.009-6.082-1.53-9.245-1.53c-5.62,0-10.99,1.62-15.562,4.594
              c-9.545-9.011-24.419-10.531-35.714-2.857c-9.659,6.564-14.171,18.363-11.934,29.426c-11.188,2.077-19.914,11.254-21.314,22.663
              c-3.221-0.931-6.885-1.427-10.953-1.078c-6.21,0.528-11.708,2.605-15.99,5.975c-2.62-0.853-5.374-1.292-8.164-1.292
              c-14.519,0-26.33,11.812-26.33,26.33c0,0.896,0.045,1.788,0.136,2.675c-3.715,4.639-5.786,10.441-5.786,16.465
              c0,4.347,1.05,8.488,2.947,12.148c-15.004,0.864-26.947,13.34-26.947,28.552c0,7.152,2.676,13.922,7.31,19.096
              c-7.3,8.982-10.916,20.539-9.971,32.134l40.799,246.888h234.721l40.724-246.273l0.076-0.614
              c0.719-8.823-1.203-17.624-5.379-25.285c0.611-2.382,0.927-4.801,0.927-7.144c0-0.753-0.032-1.503-0.095-2.249
              C409.194,225.495,412.5,218.336,412.5,210.729z M145.365,496.999L145.365,496.999l-38.596-233.398
              c-0.604-8.375,2.194-16.377,7.895-22.562c5.767-6.257,13.629-9.702,22.139-9.702h0.313c16.247,0,29.463,12.718,30.088,28.952
              l0.006,0.151l0.071,0.906c-0.001,0.611,0.01,1.223,0.034,1.837l18.569,233.816H145.365z M200.933,496.999l-18.647-236.173
              c0.144-7.595,3.093-14.733,8.408-20.257c5.729-5.953,13.435-9.232,21.697-9.232c16.603,0,30.11,13.508,30.11,30.11v235.552
              H200.933z M257.502,497L257.502,497V261.448c0-16.603,13.508-30.11,30.111-30.11c8.262,0,15.968,3.279,21.697,9.232
              c5.316,5.524,8.265,12.661,8.408,20.257L299.07,497H257.502z M393.234,263.601l-38.596,233.398H314.12l18.551-233.511l0.018-0.306
              c0.024-0.615,0.035-1.229,0.034-1.841l0.059-0.751l0.018-0.302c0.625-16.234,13.841-28.952,30.088-28.952h0.313
              c8.509,0,16.372,3.445,22.139,9.702C391.04,247.224,393.838,255.226,393.234,263.601z M391.702,220.607l-4.606,2.592
              c-7.108-4.433-15.393-6.86-23.896-6.86h-0.313c-15.745,0-29.59,7.973-37.658,20.187c-1.494-2.241-3.201-4.368-5.113-6.355
              c-8.583-8.92-20.127-13.832-32.506-13.832c-15.685,0-29.525,8.046-37.61,20.228c-8.086-12.181-21.926-20.228-37.611-20.228
              c-12.378,0-23.922,4.912-32.505,13.832c-1.912,1.987-3.619,4.113-5.113,6.355c-8.069-12.214-21.913-20.187-37.658-20.187h-0.313
              c-8.431,0-16.647,2.386-23.714,6.746c-2.271-2.479-3.586-5.747-3.586-9.201c0-7.499,6.105-13.6,13.61-13.6
              c2.503,0,4.948,0.683,7.069,1.975l5.775,3.518l4.095-5.382c0.901-1.185,1.997-2.218,3.256-3.069l12.802-8.667l-14.731-4.69
              c-4.71-1.5-7.875-5.834-7.875-10.784c0-3.237,1.391-6.327,3.817-8.479l3.508-3.111l-1.262-4.518
              c-0.274-0.981-0.413-2.001-0.413-3.031c0-6.247,5.083-11.33,11.33-11.33c2.089,0,4.123,0.567,5.882,1.642l5.783,3.531l4.098-5.397
              c2.476-3.26,6.622-4.253,9.664-4.513c6.653-0.56,11.512,3.381,14.412,5.742c0.898,0.729,1.673,1.36,2.518,1.872l5.832,3.528
              l4.029-5.417l3.674-4.832l-3.572-4.554c-1.577-2.012-2.411-4.426-2.411-6.982c0-6.206,5.015-11.263,11.206-11.329l4.226,0.241
              l2.414-3.142c0.699-0.909,1.478-1.706,2.314-2.367l4.72-3.73l-2.618-5.417c-2.91-6.021-0.927-13.398,4.612-17.162
              c6.205-4.219,14.685-2.597,18.896,3.603c0.25,0.368,0.498,0.79,0.74,1.253l5.351,10.255l7.179-9.07
              c2.607-3.294,6.5-5.184,10.679-5.184c2.503,0,4.948,0.683,7.069,1.975l5.773,3.517l4.095-5.379
              c2.609-3.427,6.562-5.393,10.843-5.393c7.504,0,13.61,6.105,13.61,13.61c0,4.908-2.664,9.452-6.951,11.859l-5.26,2.952
              l1.756,5.771c0.386,1.27,0.589,2.575,0.604,3.885c-0.012,0.2-0.019,0.403-0.019,0.612v6.565l6.508,0.868
              c3.297,0.44,6.225,2.315,8.033,5.145l3.279,5.132l5.695-2.155c2.183-0.826,4.49-1.245,6.855-1.245
              c6.515,0,12.571,3.232,16.201,8.646l4.862,7.252l6.436-5.9c2.109-1.934,4.834-2.998,7.672-2.998c6.248,0,11.33,5.083,11.33,11.33
              c0,4.084-2.222,7.871-5.798,9.884l-5.301,2.983l1.824,5.803c0.175,0.556,0.304,1.189,0.385,1.884l1.292,11.137l9.8-5.445
              c1.655-0.919,3.545-1.405,5.467-1.405c6.248,0,11.33,5.078,11.33,11.32c0,2.563-0.834,4.98-2.411,6.992l-3.636,4.636l3.644,4.626
              c1.573,1.999,2.404,4.409,2.404,6.972C397.5,214.807,395.278,218.594,391.702,220.607z"/>
          </g>
        </g>
        <g>
          <g>
            <path d="M275.501,142.503c-2.223,0-4.394,0.328-6.467,0.967c-5.222-5.651-12.606-8.967-20.533-8.967
              c-13.392,0-24.618,9.451-27.36,22.032c-14.81,0.712-26.64,12.984-26.64,27.968h15c0-7.168,5.832-13,13-13
              c1.178,0,2.381,0.173,3.576,0.515l10.764,3.077l-1.249-11.125c-0.061-0.545-0.091-1.024-0.091-1.467c0-7.168,5.832-13,13-13
              c4.849,0,9.264,2.681,11.52,6.995l4.142,7.921l7.081-5.455c0.865-0.667,2.306-1.461,4.257-1.461c3.86,0,7,3.141,7,7h15
              C297.501,152.372,287.632,142.503,275.501,142.503z"/>
          </g>
        </g>
        <g>
          <g>
            <path d="M325.501,170.003c-7.337,0-14.259,3.155-19.115,8.417c-2.67-0.936-5.492-1.417-8.385-1.417
              c-14.061,0-25.5,11.439-25.5,25.5h15c0-5.79,4.71-10.5,10.5-10.5c2.27,0,4.442,0.729,6.28,2.11l7.354,5.522l3.931-8.314
              c1.814-3.838,5.714-6.318,9.935-6.318c6.065,0,11,4.935,11,11h15C351.5,181.666,339.838,170.003,325.501,170.003z"/>
          </g>
        </g>
        <g>
          <g>
            <Rect x="126.515" y="260.88" transform="matrix(0.9866 -0.1632 0.1632 0.9866 -45.595 25.7646)" width="15" height="59.02"/>
          </g>
        </g>
        <g>
          <g>
            <Rect x="148.393" y="404.273" transform="matrix(0.9866 -0.1631 0.1631 0.9866 -66.8536 31.0864)" width="15" height="36.83"/>
          </g>
        </g>
        <g>
          <g>
            <Rect x="271.013" y="435.7" transform="matrix(0.0792 -0.9969 0.9969 0.0792 -183.2717 687.9919)" width="19.52" height="15"/>
          </g>
        </g>
        <g>
          <g>
            <Rect x="259.906" y="338.478" transform="matrix(0.0792 -0.9969 0.9969 0.0792 -79.2431 606.1688)" width="57.182" height="15"/>
          </g>
        </g>
        <g>
          <g>
            <Rect x="277.271" y="270.41" transform="matrix(0.0792 -0.9969 0.9969 0.0792 -6.4115 548.8785)" width="33.261" height="15"/>
          </g>
        </g>

      </g>
</g>
</svg>
