<?xml version="1.0" encoding="iso-8859-1"?>
<!-- Generator: Adobe Illustrator 16.0.0, SVG Export Plug-In . SVG Version: 6.00 Build 0)  -->
<!DOCTYPE svg PUBLIC "-//W3C//DTD SVG 1.1//EN" "http://www.w3.org/Graphics/SVG/1.1/DTD/svg11.dtd">
<svg version="1.1" id="Capa_1" xmlns="http://www.w3.org/2000/svg" xmlns:xlink="http://www.w3.org/1999/xlink" x="0px" y="0px"
	 width="512px" height="512px" viewBox="0 0 512 512" style="enable-background:new 0 0 512 512;"
	 xml:space="preserve">
<g>
	        <path d="m30.265625 337.03125c-.085937.074219-.195313.101562-.273437.1875-.074219.082031-.109376.1875-.1875.273438-39.738282 39.875-39.738282 104.386718 0 144.261718.078124.085938.101562.195313.1875.273438.085937.078125.1875.113281.273437.1875 39.878906 39.742187 104.386719 39.742187 144.265625 0 .085938-.074219.195312-.101563.273438-.1875.074218-.085938.109374-.1875.1875-.273438 16.988281-17.070312 27.390624-39.597656 29.371093-63.597656h163.976563l14.269531 78.507812c1.648437 8.890626 9.410156 15.34375 18.457031 15.34375 9.042969 0 16.804688-6.453124 18.457032-15.34375l14.265624-78.507812h27.007813c3.25.015625 6.230469-1.8125 7.679687-4.71875l42.667969-85.332031c1.328125-2.65625 1.179688-5.804688-.386719-8.324219-1.566406-2.515625-4.328124-4.042969-7.292968-4.023438h-49.894532l22.503907-157.375c11.515625-5.742187 18.8125-17.488281 18.859375-30.359374v-25.710938c-.054688-.542969-.160156-1.078125-.316406-1.597656-.082032-.578125-.214844-1.152344-.402344-1.707032v-.101562l-35.839844-78.863281c-5.570312-12.179688-17.722656-20.0000002-31.113281-20.0195315h-342.527344c-13.371094.0429687-25.5 7.8593745-31.0625 20.0195315l-35.839844 78.847656v.101563c-.1875.554687-.320312 1.125-.398437 1.707031-.179688.523437-.300782 1.0625-.367188 1.613281v25.710938c.042969 12.871093 7.339844 24.617187 18.855469 30.359374l22.734375 158.789063c-10.515625 4.96875-20.117188 11.683594-28.390625 19.859375zm126.097656 6.558594-43 42.992187c-.792969-.375-1.601562-.703125-2.429687-.988281v-60.871094c16.671875 1.667969 32.480468 8.230469 45.429687 18.867188zm30.933594 57.5h-60.867187c-.289063-.828125-.621094-1.640625-1-2.433594l43-43c10.636718 12.949219 17.203124 28.757812 18.867187 45.433594zm-169.8125 17.066406h60.882813c.289062.828125.621093 1.640625 1 2.433594l-43 42.996094c-10.636719-12.949219-17.203126-28.753907-18.867188-45.429688zm18.867187-62.5 43.007813 43c-.375.792969-.707031 1.605469-.992187 2.433594h-60.867188c1.664062-16.675782 8.230469-32.484375 18.867188-45.433594zm66.046876 45.433594c4.710937 0 8.535156 3.820312 8.535156 8.53125 0 4.714844-3.824219 8.535156-8.535156 8.535156-4.710938 0-8.535157-3.820312-8.535157-8.535156 0-4.710938 3.824219-8.53125 8.535157-8.53125zm-10.964844 31.574218c.789062.375 1.601562.710938 2.429687.996094v60.867188c-16.671875-1.664063-32.480469-8.230469-45.429687-18.867188zm19.5.988282c.828125-.285156 1.640625-.621094 2.429687-1l43 43c-12.949219 10.636718-28.757812 17.203125-45.429687 18.867187zm-17.070313-48.058594c-.828125.285156-1.640625.621094-2.429687.996094l-43-43c12.949218-10.636719 28.757812-17.199219 45.429687-18.867188zm74.566407 77.992188-42.992188-42.996094c.375-.792969.707031-1.605469.992188-2.433594h60.867187c-1.664063 16.675781-8.230469 32.480469-18.867187 45.429688zm234.34375 29.980468c-.234376.71875-.90625 1.207032-1.664063 1.207032-.761719 0-1.433594-.488282-1.664063-1.207032l-13.738281-75.410156h30.71875zm74.085937-135.144531h-92.859375c-4.714844 0-8.535156 3.820313-8.535156 8.535156 0 4.710938 3.820312 8.53125 8.535156 8.53125h84.324219l-12.800781 25.601563h-251.160157c-1.980469-24.003906-12.382812-46.53125-29.371093-63.597656-.078126-.085938-.101563-.199219-.1875-.273438-.085938-.078125-.1875-.113281-.273438-.1875-1.476562-1.46875-3.0625-2.828125-4.625-4.207031h319.75zm-75.792969-128h-42.667968v-8.53125h8.535156c9.425781 0 17.066406-7.640625 17.066406-17.066406h17.066406zm-46.890625 51.199219h21.289063c4.714844 0 8.535156-3.820313 8.535156-8.53125 0-4.714844-3.820312-8.535156-8.535156-8.535156h-22.996094l-1.707031-17.066407h57.984375l-6.828125 68.269531h-44.289063zm64.851563 34.136718 7.636718-75.949218c.242188-2.40625-.546874-4.804688-2.175781-6.59375-1.625-1.789063-3.9375-2.804688-6.355469-2.792969v-25.597656c0-9.425781-7.640624-17.066407-17.066406-17.066407h-17.066406c-9.425781 0-17.066406 7.640626-17.066406 17.066407h-8.535156c-9.425782 0-17.066407 7.640625-17.066407 17.066406v8.53125c-2.410156 0-4.710937 1.019531-6.328125 2.808594-1.617187 1.789062-2.402344 4.179687-2.164062 6.578125l7.636718 75.949218h-24.746093v-154.8125c6.628906-1.726562 12.578125-5.414062 17.066406-10.582031 6.402344 7.484375 15.753906 11.792969 25.601563 11.792969 9.847656 0 19.199218-4.308594 25.601562-11.792969 6.398438 7.484375 15.75 11.792969 25.597656 11.792969s19.203125-4.308594 25.601563-11.792969c5.882812 6.753907 14.199219 10.90625 23.132812 11.546875l-22 153.847656zm-384.894532-211.492187 35.0625-77.140625c2.777344-6.089844 8.84375-10.007812 15.539063-10.035156h342.527344c6.683593.027344 12.746093 3.933594 15.53125 10.007812l35.070312 77.167969v23.757813c0 9.425781-7.640625 17.066406-17.066406 17.066406s-17.066406-7.640625-17.066406-17.066406v-17.066407c0-4.714843-3.820313-8.535156-8.53125-8.535156-4.714844 0-8.535157 3.820313-8.535157 8.535156v17.066407c0 9.425781-7.640624 17.066406-17.066406 17.066406-9.425781 0-17.066406-7.640625-17.066406-17.066406v-17.066407c0-4.714843-3.820312-8.535156-8.53125-8.535156-4.714844 0-8.535156 3.820313-8.535156 8.535156v17.066407c0 9.425781-7.640625 17.066406-17.066406 17.066406-9.425782 0-17.066407-7.640625-17.066407-17.066406v-17.066407c0-4.714843-3.820312-8.535156-8.535156-8.535156-4.710937 0-8.53125 3.820313-8.53125 8.535156v17.066407c0 9.425781-7.640625 17.066406-17.066406 17.066406s-17.066407-7.640625-17.066407-17.066406v-17.066407c0-4.714843-3.820312-8.535156-8.535156-8.535156-4.710937 0-8.53125 3.820313-8.53125 8.535156v17.066407c0 9.425781-7.640625 17.066406-17.066406 17.066406s-17.066406-7.640625-17.066406-17.066406v-17.066407c0-4.714843-3.824219-8.535156-8.535156-8.535156-4.710938 0-8.535157 3.820313-8.535157 8.535156v17.066407c0 9.425781-7.640625 17.066406-17.066406 17.066406s-17.066406-7.640625-17.066406-17.066406v-17.066407c0-4.714843-3.820313-8.535156-8.53125-8.535156-4.714844 0-8.535157 3.820313-8.535157 8.535156v17.066407c0 9.425781-7.640624 17.066406-17.066406 17.066406-9.425781 0-17.066406-7.640625-17.066406-17.066406v-17.066407c0-4.714843-3.820312-8.535156-8.53125-8.535156-4.714844 0-8.535156 3.820313-8.535156 8.535156v17.066407c0 9.425781-7.640625 17.066406-17.066406 17.066406-9.425782 0-17.066407-7.640625-17.066407-17.066406v-17.066407c0-4.714843-3.820312-8.535156-8.535156-8.535156-4.710937 0-8.53125 3.820313-8.53125 8.535156v17.066407c0 9.425781-7.640625 17.066406-17.066406 17.066406s-17.066407-7.640625-17.066407-17.066406zm19.53125 57.644531c8.933594-.640625 17.253907-4.792968 23.132813-11.546875 6.402344 7.484375 15.753906 11.792969 25.601563 11.792969 9.847656 0 19.199218-4.308594 25.601562-11.792969 6.398438 7.484375 15.75 11.792969 25.597656 11.792969s19.203125-4.308594 25.601563-11.792969c6.398437 7.484375 15.753906 11.792969 25.597656 11.792969 9.847656 0 19.203125-4.308594 25.601563-11.792969 6.398437 7.484375 15.753906 11.792969 25.601562 11.792969 9.84375 0 19.199219-4.308594 25.597656-11.792969 4.492188 5.167969 10.441406 8.855469 17.066406 10.582031v154.8125h-153.597656c-.445312.050782-.886718.140626-1.316406.261719-21.617188-9.671875-45.949219-11.429687-68.734375-4.964843zm0 0"/><path d="m341.332031 358.421875h-110.933593c-4.710938 0-8.535157 3.820313-8.535157 8.535156 0 4.710938 3.824219 8.53125 8.535157 8.53125h110.933593c4.710938 0 8.53125-3.820312 8.53125-8.53125 0-4.714843-3.820312-8.535156-8.53125-8.535156zm0 0"/>


</g>
</svg>
