<?xml version="1.0" encoding="iso-8859-1"?>
<!-- Generator: Adobe Illustrator 16.0.0, SVG Export Plug-In . SVG Version: 6.00 Build 0)  -->
<!DOCTYPE svg PUBLIC "-//W3C//DTD SVG 1.1//EN" "http://www.w3.org/Graphics/SVG/1.1/DTD/svg11.dtd">
<svg version="1.1" id="Capa_1" xmlns="http://www.w3.org/2000/svg" xmlns:xlink="http://www.w3.org/1999/xlink" x="0px" y="0px"
	 width="502px" height="502px" viewBox="-83 0 502 502.01009" style="enable-background:new 0 0 502 502;"
	 xml:space="preserve">
<g>
	        <path d="m289.691406 89.007812h-8.6875v-81.375c-.015625-2.085937-.875-4.074218-2.382812-5.507812-1.507813-1.4375-3.535156-2.203125-5.617188-2.1171875h-210c-2.082031-.0859375-4.105468.6796875-5.613281 2.1171875-1.507813 1.433594-2.371094 3.421875-2.386719 5.507812v81.375h-8.6875c-25.363281 0-46.31249975 20.199219-46.31249975 45.558594v280.566406c0 25.363282 20.94921875 45.875 46.31249975 45.875h14.6875v33.375c0 4.417969 4.082032 7.625 8.5 7.625h197c2.03125.0625 3.996094-.722656 5.421875-2.171874 1.425781-1.449219 2.179688-3.425782 2.078125-5.453126v-33.375h15.6875c25.367188 0 46.3125-20.511718 46.3125-45.875v-280.566406c0-25.359375-20.945312-45.558594-46.3125-45.558594zm-218.6875-73h194v73h-23v-39.625c-.144531-4.566406-3.808594-8.230468-8.375-8.375h-131.25c-4.5625.144532-8.226562 3.808594-8.375 8.375v39.625h-23zm110 73h-26v-6h26zm7.585938-22h-41.171875c-4.414063 0-8.414063 3.546876-8.414063 7.96875v14.03125h-29v-32h116v32h-29v-14.03125c0-4.421874-4-7.96875-8.414062-7.96875zm69.414062 419h-181v-25h181zm61-70c0 16.566407-13.429687 30-30 30h-243c-16.566406 0-30-13.433593-30-30v-281c0-16.570312 13.433594-30 30-30h243c16.570313 0 30 13.429688 30 30zm0 0"/><path d="m173.734375 192.574219c-1.503906-1.546875-3.570313-2.421875-5.730469-2.421875-2.15625 0-4.222656.875-5.730468 2.421875-12.28125 12.863281-23.859376 26.375-34.691407 40.484375-23.699219 30.984375-35.71875 55.652344-35.71875 73.316406 0 42.585938 34.160157 77.234375 76.140625 77.234375 41.984375 0 76.140625-34.648437 76.140625-77.234375 0-17.664062-12.015625-42.332031-35.714843-73.316406-10.832032-14.109375-22.414063-27.621094-34.695313-40.484375zm22.101563 161.109375c-7.386719 7.347656-17.414063 11.425781-27.832032 11.324218h-.003906c-10.414062.03125-20.414062-4.078124-27.800781-11.421874-7.382813-7.34375-11.542969-17.324219-11.5625-27.738282 0-14.667968 22.507812-36.785156 39.367187-49.710937 16.859375 12.925781 39.371094 35.097656 39.371094 49.761719.027344 10.429687-4.128906 20.4375-11.535156 27.785156zm27.328124-22.945313c.128907-1.550781.207032-3.113281.207032-4.6875 0-13.097656-8.769532-28.382812-26.070313-45.414062-7.710937-7.546875-15.957031-14.523438-24.679687-20.871094-2.765625-1.960937-6.472656-1.960937-9.238282 0-8.722656 6.347656-16.96875 13.320313-24.679687 20.867187-17.296875 17.035157-26.070313 32.316407-26.070313 45.417969 0 1.585938.082032 3.148438.214844 4.699219-3.296875-7.703125-4.992187-15.996094-4.984375-24.375 0-26.050781 39.210938-73.910156 60.140625-96.578125 20.925782 22.667969 60.136719 70.527344 60.136719 96.578125.011719 8.375-1.683594 16.664062-4.972656 24.363281zm0 0"/>


</g>
</svg>
