<?xml version="1.0" encoding="iso-8859-1"?>
<!-- Generator: Adobe Illustrator 16.0.0, SVG Export Plug-In . SVG Version: 6.00 Build 0)  -->
<!DOCTYPE svg PUBLIC "-//W3C//DTD SVG 1.1//EN" "http://www.w3.org/Graphics/SVG/1.1/DTD/svg11.dtd">
<svg version="1.1" id="Capa_1" xmlns="http://www.w3.org/2000/svg" xmlns:xlink="http://www.w3.org/1999/xlink" x="0px" y="0px"
	 width="512px" height="512px" viewBox="0 0 512 512" style="enable-background:new 0 0 512 512;"
	 xml:space="preserve">
<g>
          <path d="M509.07,2.995c-1.86-1.861-4.44-2.93-7.069-2.93c-2.63,0-5.209,1.07-7.069,2.93c-1.86,1.86-2.93,4.44-2.93,7.069 c0,2.63,1.07,5.209,2.93,7.068c1.86,1.87,4.44,2.931,7.069,2.931c2.63,0,5.209-1.06,7.069-2.931c1.87-1.859,2.93-4.439,2.93-7.068 C512,7.435,510.94,4.855,509.07,2.995z"/>
          <path d="M389.954,165.014h-37.063c4.439-6.82,7.028-14.947,7.028-23.674c0-24.003-19.528-43.531-43.531-43.531 c-15.915,0-29.856,8.59-37.449,21.373c-6.303-5.03-14.281-8.048-22.954-8.048s-16.65,3.018-22.954,8.048 c-7.592-12.783-21.533-21.373-37.449-21.373c-24.003,0-43.531,19.528-43.531,43.531c0,8.725,2.59,16.852,7.028,23.673h-37.062 c-13.243,0-24.016,10.773-24.016,24.017v34.959c0,8.866,4.832,16.619,11.999,20.78v164.21c0,18.751,15.255,34.006,34.007,34.006             h223.957c18.751,0,34.006-15.255,34.006-34.006V244.77c7.166-4.161,11.999-11.914,11.999-20.78v-34.959 C413.97,175.788,403.196,165.014,389.954,165.014z M292.855,141.341c0-12.977,10.557-23.533,23.534-23.533 c12.977,0,23.534,10.558,23.534,23.534s-10.557,23.533-23.534,23.533h-23.534V141.341z M303.124,185.012l30.366,53.511 l-7.151-1.92c-2.564-0.686-5.293-0.329-7.591,0.998c-2.298,1.327-3.975,3.513-4.66,6.075l-1.749,6.534l-36.672-65.199H303.124z M255.987,131.133c9.303,0,16.871,7.567,16.871,16.87s-7.568,16.871-16.871,16.871s-16.871-7.568-16.871-16.871 S246.683,131.133,255.987,131.133z M237.215,185.012L237.215,185.012l-30.608,53.492l-1.814-6.781 c-0.686-2.563-2.362-4.748-4.66-6.075c-2.298-1.326-5.027-1.685-7.591-0.998l-7.081,1.9l23.691-41.538H237.215z M195.584,117.808 c12.977,0,23.534,10.557,23.534,23.533v23.534h-23.534c-12.977,0-23.534-10.558-23.534-23.534S182.608,117.808,195.584,117.808z M118.001,223.989v-34.958c0-2.216,1.803-4.019,4.019-4.019h64.11l-24.521,42.996h-39.589             C119.804,228.008,118.001,226.205,118.001,223.989z M273.984,422.988H144.007c-7.724,0-14.008-6.284-14.008-14.009V248.006h26.635 c0.118,0.175,0.217,0.358,0.347,0.526c2.465,3.194,6.609,4.593,10.507,3.548l20.571-5.52l5.504,20.576 c1.047,3.915,4.354,6.81,8.371,7.332c0.432,0.056,0.863,0.083,1.291,0.083c3.552,0,6.879-1.895,8.676-5.032l6.087-10.639v101.116 c0,5.521,4.477,9.999,9.999,9.999s9.999-4.478,9.999-9.999V248.595h35.996V422.988z M235.318,228.597l21.14-36.945l20.78,36.945 H235.318z M381.973,408.979c0,7.724-6.284,14.009-14.009,14.009h-73.982V258.369l12.958,23.039 c1.786,3.175,5.133,5.097,8.712,5.097c0.416,0,0.834-0.025,1.254-0.079c4.034-0.509,7.357-3.409,8.408-7.336l5.504-20.576 l20.572,5.52c3.894,1.045,8.034-0.35,10.501-3.539c2.467-3.189,2.777-7.547,0.788-11.054l-0.815-1.436h20.109V408.979z M393.972,223.99c0,2.216-1.803,4.019-4.019,4.019h-39.438l-24.398-42.996h63.836c2.216-0.001,4.019,1.802,4.019,4.018V223.99z"/>
          <path d="M235.059,389.415c-1.86-1.86-4.44-2.92-7.069-2.92c-2.63,0-5.209,1.06-7.069,2.92c-1.86,1.86-2.93,4.44-2.93,7.079 c0,2.63,1.07,5.209,2.93,7.069c1.86,1.859,4.44,2.93,7.069,2.93c2.63,0,5.209-1.07,7.069-2.93c1.86-1.87,2.93-4.44,2.93-7.069 C237.988,393.855,236.918,391.285,235.059,389.415z"/>
          <path d="M482.825,29.248c-3.904-3.904-10.236-3.904-14.141,0l-91.782,91.784c-3.904,3.906-3.904,10.237,0,14.142 c1.953,1.952,4.512,2.929,7.07,2.929s5.118-0.977,7.07-2.929l91.783-91.784C486.73,39.485,486.73,33.154,482.825,29.248z"/>
          <path d="M100.073,87.951L43.578,31.457c-3.905-3.904-10.236-3.904-14.142,0c-3.905,3.905-3.905,10.236,0,14.142l56.495,56.494 c1.953,1.952,4.512,2.929,7.07,2.929s5.118-0.977,7.07-2.929C103.977,98.188,103.977,91.857,100.073,87.951z"/>
          <path d="M95.53,417.46c-3.904-3.904-10.235-3.904-14.141,0L3.941,494.909c-3.905,3.905-3.905,10.236,0,14.142 c1.953,1.952,4.512,2.929,7.07,2.929s5.118-0.977,7.07-2.929l77.449-77.449C99.435,427.697,99.435,421.366,95.53,417.46z"/>
          <path d="M484.018,469.896l-49.919-49.919c-3.905-3.904-10.236-3.904-14.141,0c-3.905,3.905-3.905,10.236,0,14.142l49.919,49.919 c1.953,1.952,4.512,2.929,7.07,2.929s5.118-0.977,7.07-2.929C487.923,480.133,487.923,473.802,484.018,469.896z"/>
          <path d="M66.493,246.006H9.999c-5.522,0-9.999,4.478-9.999,9.999c0,5.521,4.477,9.999,9.999,9.999h56.494 c5.522,0,9.999-4.477,9.999-9.999C76.492,250.484,72.016,246.006,66.493,246.006z"/>
          <path d="M501.948,246.006h-57.036c-5.522,0-9.999,4.478-9.999,9.999c0,5.521,4.477,9.999,9.999,9.999h57.036 c5.522,0,9.999-4.477,9.999-9.999C511.947,250.484,507.471,246.006,501.948,246.006z"/>
          <path d="M255.987,0.021c-5.522,0-9.999,4.478-9.999,9.999v76.659c0,5.521,4.477,9.999,9.999,9.999 c5.522,0,9.999-4.478,9.999-9.999V10.019C265.985,4.498,261.509,0.021,255.987,0.021z"/>
          <path d="M255.987,453.757c-5.522,0-9.999,4.478-9.999,9.999v38.225c0,5.521,4.477,9.999,9.999,9.999 c5.522,0,9.999-4.478,9.999-9.999v-38.225C265.985,458.233,261.509,453.757,255.987,453.757z"/>
          <path d="M501.961,353.875h-6.858c-5.522,0-9.999,4.478-9.999,9.999s4.477,9.999,9.999,9.999h6.858 c5.522,0,9.999-4.478,9.999-9.999S507.484,353.875,501.961,353.875z"/>
          <path d="M453.445,353.875h-6.858c-5.522,0-9.999,4.478-9.999,9.999s4.477,9.999,9.999,9.999h6.858 c5.522,0,9.999-4.478,9.999-9.999S458.968,353.875,453.445,353.875z"/>
          <path d="M474.274,374.703c-5.522,0-9.999,4.478-9.999,9.999v6.858c0,5.521,4.477,9.999,9.999,9.999s9.999-4.478,9.999-9.999 v-6.858C484.273,379.18,479.796,374.703,474.274,374.703z"/>
          <path d="M474.274,326.188c-5.522,0-9.999,4.478-9.999,9.999v6.858c0,5.521,4.477,9.999,9.999,9.999s9.999-4.477,9.999-9.999 v-6.858C484.273,330.665,479.796,326.188,474.274,326.188z"/>
          <path d="M66.445,159.03h-6.858c-5.522,0-9.999,4.478-9.999,9.999c0,5.521,4.477,9.999,9.999,9.999h6.858 c5.522,0,9.999-4.477,9.999-9.999C76.444,163.508,71.968,159.03,66.445,159.03z"/>
          <path d="M17.93,159.03h-6.858c-5.522,0-9.999,4.478-9.999,9.999c0,5.521,4.477,9.999,9.999,9.999h6.858 c5.522,0,9.999-4.477,9.999-9.999C27.929,163.508,23.453,159.03,17.93,159.03z"/>
          <path d="M38.759,179.859c-5.522,0-9.999,4.478-9.999,9.999v6.857c0,5.521,4.477,9.999,9.999,9.999 c5.522,0,9.999-4.478,9.999-9.999v-6.857C48.758,184.335,44.281,179.859,38.759,179.859z"/>
          <path d="M38.759,131.343c-5.522,0-9.999,4.478-9.999,9.999v6.857c0,5.521,4.477,9.999,9.999,9.999 c5.522,0,9.999-4.478,9.999-9.999v-6.857C48.758,135.82,44.281,131.343,38.759,131.343z"/>
          <path d="M373.64,19.696c-16.54,0-29.997,13.457-29.997,29.997S357.1,79.69,373.64,79.69s29.997-13.457,29.997-29.997 S390.181,19.696,373.64,19.696z M373.64,59.692c-5.513,0-9.999-4.486-9.999-9.999s4.486-9.999,9.999-9.999 s9.999,4.486,9.999,9.999S379.154,59.692,373.64,59.692z"/>
          <path d="M43.019,333.877c-16.54,0-29.997,13.457-29.997,29.997s13.457,29.997,29.997,29.997s29.997-13.457,29.997-29.997 S59.559,333.877,43.019,333.877z M43.019,373.873c-5.513,0-9.999-4.486-9.999-9.999s4.486-9.999,9.999-9.999 s9.999,4.486,9.999,9.999S48.532,373.873,43.019,373.873z"/>
          <path d="M380.714,466.688c-1.86-1.861-4.44-2.93-7.069-2.93c-2.64,0-5.209,1.069-7.079,2.93c-1.86,1.859-2.92,4.439-2.92,7.069 c0,2.63,1.06,5.198,2.92,7.068c1.87,1.86,4.45,2.931,7.079,2.931s5.209-1.07,7.069-2.931c1.86-1.87,2.93-4.439,2.93-7.068 C383.643,471.127,382.573,468.547,380.714,466.688z"/>
          <path d="M165.066,466.688c-1.86-1.861-4.44-2.93-7.069-2.93c-2.63,0-5.209,1.069-7.069,2.93c-1.86,1.859-2.93,4.43-2.93,7.069 c0,2.63,1.07,5.198,2.93,7.068c1.86,1.86,4.44,2.931,7.069,2.931c2.63,0,5.209-1.07,7.069-2.931c1.86-1.87,2.93-4.439,2.93-7.068 C167.996,471.117,166.926,468.547,165.066,466.688z"/>
          <path d="M171.954,42.911c-1.86-1.859-4.44-2.93-7.069-2.93c-2.63,0-5.209,1.07-7.069,2.93s-2.93,4.44-2.93,7.069 c0,2.64,1.07,5.209,2.93,7.069c1.86,1.87,4.44,2.93,7.069,2.93c2.63,0,5.209-1.061,7.069-2.93c1.86-1.86,2.93-4.431,2.93-7.069 C174.884,47.351,173.814,44.781,171.954,42.911z"/>
          <path d="M480.553,155.949c-1.86-1.87-4.44-2.93-7.069-2.93c-2.63,0-5.209,1.06-7.069,2.93c-1.86,1.86-2.93,4.431-2.93,7.069 c0,2.63,1.07,5.199,2.93,7.069c1.86,1.859,4.44,2.93,7.069,2.93c2.63,0,5.209-1.07,7.069-2.93c1.86-1.87,2.93-4.44,2.93-7.069 C483.483,160.379,482.413,157.809,480.553,155.949z"/>
      </g>
</svg>
