<?xml version="1.0" encoding="iso-8859-1"?>
<!-- Generator: Adobe Illustrator 16.0.0, SVG Export Plug-In . SVG Version: 6.00 Build 0)  -->
<!DOCTYPE svg PUBLIC "-//W3C//DTD SVG 1.1//EN" "http://www.w3.org/Graphics/SVG/1.1/DTD/svg11.dtd">
<svg version="1.1" id="Capa_1" xmlns="http://www.w3.org/2000/svg" xmlns:xlink="http://www.w3.org/1999/xlink" x="0px" y="0px"
	 width="290px" height="290px" viewBox="0 0 290 290" style="enable-background:new 0 0 290 290;"
	 xml:space="preserve">
<g>
	 <path style="fill:#010002;" d="M24.476,78.344h38.726l16.464,54.13c0.647,3.231,1.55,6.511,2.845,9.839l0.669,1.724l1.479,4.868
              l0.37-0.114l26.129,67.183c-0.81,2.991-1.284,6.124-1.284,9.372c0,19.831,16.132,35.958,35.958,35.958
              s35.958-16.132,35.958-35.958c0-1.648-0.152-3.258-0.364-4.846h12.009c-0.218,1.588-0.364,3.198-0.364,4.846
              c0,19.831,16.132,35.958,35.958,35.958c19.831,0,35.963-16.132,35.963-35.958c0-3.437-0.511-6.75-1.42-9.899l24.16-72.481
              c5.162-15.49,3.557-30.187-4.514-41.386c-8.072-11.199-21.512-17.367-37.834-17.367H122.259c-2.056,0-4.063,0.098-6.016,0.288
              l-11.487-37.753c-3.16-10.378-12.57-17.351-23.421-17.351h-56.86C10.981,29.398,0,40.38,0,53.874S10.976,78.344,24.476,78.344z
               M145.838,250.431c-13.832,0-25.08-11.248-25.08-25.08c0-13.832,11.248-25.085,25.08-25.085s25.08,11.253,25.08,25.085
              C170.917,239.183,159.669,250.431,145.838,250.431z M229.034,250.431c-13.832,0-25.08-11.248-25.08-25.08
              c0-13.832,11.248-25.085,25.08-25.085c13.832,0,25.085,11.253,25.085,25.085C254.118,239.183,242.865,250.431,229.034,250.431z
               M245.394,95.086c12.733,0,23.034,4.563,29.007,12.853c5.978,8.284,7.049,19.504,3.03,31.585l-20.897,62.691
              c-6.603-7.832-16.469-12.831-27.494-12.831c-14.185,0-26.445,8.278-32.292,20.244h-18.612
              c-5.847-11.966-18.107-20.244-32.292-20.244c-11.357,0-21.484,5.309-28.082,13.554l-24.258-62.37l-3.372-11.085
              c-1.474-8.354-0.158-15.942,3.938-21.919c5.504-8.044,15.518-12.477,28.196-12.477H245.394z M24.476,40.271h56.865
              c6.026,0,11.253,3.873,13.01,9.638l11.183,36.757c-8.632,2.752-15.654,7.756-20.44,14.756c-0.865,1.262-1.615,2.578-2.301,3.922
              L71.268,67.466H24.476c-7.5,0-13.598-6.097-13.598-13.598S16.975,40.271,24.476,40.271z"/>
            <circle style="fill:#010002;" cx="145.838" cy="225.346" r="13.271"/>
            <circle style="fill:#010002;" cx="229.034" cy="225.346" r="13.271"/>
            <path style="fill:#010002;" d="M120.154,127.932h140.35c3.008,0,5.439-2.431,5.439-5.439c0-3.008-2.431-5.439-5.439-5.439h-140.35
              c-3.008,0-5.439,2.431-5.439,5.439C114.715,125.501,117.152,127.932,120.154,127.932z"/>
            <path style="fill:#010002;" d="M254.119,138.294H127.127c-3.008,0-5.439,2.431-5.439,5.439s2.431,5.439,5.439,5.439h126.997
              c3.008,0,5.439-2.431,5.439-5.439S257.126,138.294,254.119,138.294z"/>
            <path style="fill:#010002;" d="M246.569,157.864H135.754c-3.008,0-5.439,2.431-5.439,5.439c0,3.008,2.431,5.439,5.439,5.439
              h110.816c3.008,0,5.439-2.431,5.439-5.439C252.008,160.295,249.571,157.864,246.569,157.864z"/>

</g>
</svg>
