<?xml version="1.0" encoding="iso-8859-1"?>
<!-- Generator: Adobe Illustrator 16.0.0, SVG Export Plug-In . SVG Version: 6.00 Build 0)  -->
<!DOCTYPE svg PUBLIC "-//W3C//DTD SVG 1.1//EN" "http://www.w3.org/Graphics/SVG/1.1/DTD/svg11.dtd">
<svg version="1.1" id="Capa_1" xmlns="http://www.w3.org/2000/svg" xmlns:xlink="http://www.w3.org/1999/xlink" x="0px" y="0px"
	 width="512px" height="512px" viewBox="0 0 512 512" style="enable-background:new 0 0 512 512;"
	 xml:space="preserve">
<g>
        <g>
  <g>
    <path d="M317.648,194.353c-3.91-3.9-10.24-3.9-14.14,0c-3.91,3.91-3.91,10.24,0,14.139c3.9,3.91,10.23,3.91,14.14,0
      C321.548,204.592,321.548,198.263,317.648,194.353z"/>
  </g>
</g>
<g>
  <g>
    <path d="M500.274,195.562l-14.14-14.139c0.521-0.762,15.859-13.252,15.859-36.564c0-13.358-5.204-25.914-14.651-35.355
      l-7.071-7.071l7.066-7.072c19.541-19.513,19.561-51.174,0.007-70.701c-19.533-19.546-51.16-19.558-70.698-0.006l-7.079,7.074
      l-7.069-7.069c-19.535-19.549-51.171-19.556-70.713-0.002l-1.209,1.209l-14.138-14.138c-15.631-15.63-40.929-15.641-56.567-0.003
      c-15.635,15.623-15.643,40.935-0.003,56.563l56.567,56.567l-191.581,191.58l-56.561-56.561
      c-15.605-15.63-40.945-15.653-56.563-0.009C-3.909,275.492-3.911,300.8,11.728,316.44l14.138,14.138l-1.206,1.206
      c-19.549,19.535-19.556,51.171-0.002,70.713l7.071,7.071l-7.066,7.072c-19.541,19.513-19.561,51.174-0.007,70.702
      c19.533,19.544,51.158,19.559,70.7,0.005l7.079-7.074l7.069,7.069c19.535,19.549,51.171,19.557,70.713,0.002l1.208-1.208
      l14.138,14.139c15.632,15.631,40.931,15.64,56.568,0.003c15.635-15.623,15.643-40.935,0.003-56.563l-56.567-56.567l191.58-191.58
      l56.561,56.561c15.605,15.63,40.945,15.653,56.563,0.009C515.91,236.509,515.912,211.201,500.274,195.562z M430.788,38.797
      c11.691-11.7,30.658-11.763,42.418,0.007c11.72,11.703,11.733,30.689-0.007,42.414l-7.068,7.074L423.709,45.87L430.788,38.797z
       M345.93,38.797c11.72-11.728,30.697-11.735,42.424,0.002l84.849,84.849c11.728,11.72,11.735,30.697-0.002,42.424l-1.208,1.209
      L344.719,40.008L345.93,38.797z M81.212,473.204c-11.691,11.7-30.658,11.763-42.418-0.007
      c-11.72-11.703-11.733-30.689,0.007-42.414l7.068-7.074l42.422,42.422L81.212,473.204z M166.07,473.204
      c-11.72,11.728-30.697,11.735-42.424-0.002l-84.849-84.849c-11.728-11.72-11.735-30.697,0.002-42.424l1.208-1.209L167.28,471.993
      L166.07,473.204z M237.992,457.858c7.816,7.807,7.822,20.457-0.002,28.274c-7.836,7.836-20.481,7.805-28.287,0
      c-8.36-8.36-174.684-174.684-183.834-183.834c-7.753-7.753-7.886-20.407,0.006-28.293c7.779-7.792,20.443-7.835,28.27,0.006
      L237.992,457.858z M181.423,373.003l-42.425-42.425l191.58-191.58l42.425,42.426L181.423,373.003z M486.125,237.996
      c-7.779,7.792-20.443,7.835-28.27-0.006L274.008,54.144c-7.815-7.807-7.821-20.457,0.003-28.274c7.836-7.836,20.48-7.805,28.287,0
      c9.151,9.151,175.607,175.607,183.833,183.834C493.884,217.456,494.017,230.111,486.125,237.996z"/>
  </g>
</g>
<g>
  <g>
    <path d="M289.361,222.641c-3.906-3.906-10.238-3.906-14.143,0l-80.867,80.867c-3.905,3.905-3.905,10.237,0,14.143
      c3.905,3.905,10.237,3.905,14.142,0l80.867-80.867C293.266,232.878,293.266,226.547,289.361,222.641z"/>
  </g>
</g>

      </g>
</svg>
