<?xml version="1.0" encoding="iso-8859-1"?>
<!-- Generator: Adobe Illustrator 16.0.0, SVG Export Plug-In . SVG Version: 6.00 Build 0)  -->
<!DOCTYPE svg PUBLIC "-//W3C//DTD SVG 1.1//EN" "http://www.w3.org/Graphics/SVG/1.1/DTD/svg11.dtd">
<svg version="1.1" id="Capa_1" xmlns="http://www.w3.org/2000/svg" xmlns:xlink="http://www.w3.org/1999/xlink" x="0px" y="0px"
	 width="20px" height="20px" viewBox="0 0 20 19" style="enable-background:new 0 0 20 20;"
	 xml:space="preserve">
<g id="Hamburger" transform="translate(-23.000000, -107.000000)">
        <path d="M39.3300394,122.949581 C39.3300394,123.880691 38.5262848,124.63822 37.5376288,124.63822 L35.4527723,124.63822 L35.4527723,119.506266 C35.4527723,119.194009 35.1999481,118.940241 34.886748,118.940241 L31.113252,118.940241 C30.8000519,118.940241 30.5472277,119.194009 30.5472277,119.506266 L30.5472277,124.63822 L28.1038891,124.63822 C27.1152331,124.63822 26.3114785,123.880691 26.3114785,122.949581 L26.3114785,115.322402 L32.7330252,108.899912 C32.8811349,108.752746 33.1198085,108.752746 33.2669748,108.899912 L39.3300394,114.96392 L39.3300394,122.949581 Z M31.6792764,124.600485 L34.3207236,124.600485 L34.3207236,120.07229 L31.6792764,120.07229 L31.6792764,124.600485 Z M42.8337303,116.866705 L34.066956,108.099931 C33.4971581,107.52919 32.5028419,107.52919 31.933044,108.099931 L23.1662697,116.866705 C22.9445768,117.088398 22.9445768,117.44688 23.1662697,117.66763 C23.3870192,117.888379 23.7455013,117.888379 23.9662508,117.66763 L25.1794297,116.454451 L25.1794297,122.949581 C25.1794297,124.505204 26.4916629,125.770269 28.1038891,125.770269 L37.5376288,125.770269 C39.1507983,125.770269 40.4620882,124.505204 40.4620882,122.949581 L40.4620882,116.095969 L42.0337492,117.66763 C42.144124,117.778005 42.2884602,117.833664 42.4337398,117.833664 C42.578076,117.833664 42.7233556,117.778005 42.8337303,117.66763 C43.0554232,117.44688 43.0554232,117.088398 42.8337303,116.866705 Z" id="Home" />
      </g>
</svg>
