<?xml version="1.0" encoding="iso-8859-1"?>
<!-- Generator: Adobe Illustrator 16.0.0, SVG Export Plug-In . SVG Version: 6.00 Build 0)  -->
<!DOCTYPE svg PUBLIC "-//W3C//DTD SVG 1.1//EN" "http://www.w3.org/Graphics/SVG/1.1/DTD/svg11.dtd">
<svg version="1.1" id="Capa_1" xmlns="http://www.w3.org/2000/svg" xmlns:xlink="http://www.w3.org/1999/xlink" x="0px" y="0px"
	 width="20px" height="20px" viewBox="0 0 20 19" style="enable-background:new 0 0 20 20;"
	 xml:space="preserve">
<g>
	<g id="Hamburger" transform="translate(-13.000000, -244.000000)">
        <path d="M31.8688146,259.87056 C31.8688146,260.714939 31.1810463,261.400821 30.3376103,261.400821 L15.6623897,261.400821 C14.8189537,261.400821 14.1311854,260.714939 14.1311854,259.87056 L14.1311854,255.719421 L20.0663711,255.719421 C20.3314779,257.097788 21.5466296,258.141233 23.0004717,258.141233 C24.4543139,258.141233 25.6685221,257.097788 25.9336289,255.719421 L31.8688146,255.719421 L31.8688146,259.87056 Z M16.8350866,246.259541 C17.0171706,245.596302 17.6228596,245.132129 18.3125147,245.132129 L27.6874853,245.132129 C28.3771404,245.132129 28.9828294,245.596302 29.1696306,246.273692 L31.6735223,254.587292 L25.4213406,254.587292 C25.1090617,254.587292 24.8552762,254.840134 24.8552762,255.153356 C24.8552762,256.176046 24.0231615,257.009104 23.0004717,257.009104 C21.977782,257.009104 21.1447238,256.176046 21.1447238,255.153356 C21.1447238,254.840134 20.8909383,254.587292 20.5786594,254.587292 L14.3264777,254.587292 L16.8350866,246.259541 Z M32.9801877,255.053352 C32.976414,255.032596 32.9830181,255.010897 32.976414,254.990141 L30.2574178,245.962357 C29.9423086,244.806642 28.885655,244 27.6874853,244 L18.3125147,244 C17.114345,244 16.0576914,244.806642 15.7472994,245.948205 L13.023586,254.990141 C13.0179254,255.010897 13.023586,255.032596 13.0198123,255.053352 C13.0141516,255.087315 13,255.117506 13,255.153356 L13,259.87056 C13,261.338554 14.194396,262.53295 15.6623897,262.53295 L30.3376103,262.53295 C31.8065475,262.53295 33,261.338554 33,259.87056 L33,255.153356 C33,255.117506 32.9867918,255.087315 32.9801877,255.053352 Z" id="Inbox" />
      </g>

</g>
</svg>
