<?xml version="1.0" encoding="iso-8859-1"?>
<!-- Generator: Adobe Illustrator 16.0.0, SVG Export Plug-In . SVG Version: 6.00 Build 0)  -->
<!DOCTYPE svg PUBLIC "-//W3C//DTD SVG 1.1//EN" "http://www.w3.org/Graphics/SVG/1.1/DTD/svg11.dtd">
<svg version="1.1" id="Capa_1" xmlns="http://www.w3.org/2000/svg" xmlns:xlink="http://www.w3.org/1999/xlink" x="0px" y="0px"
	 width="510px" height="510px" viewBox="-40 0 510 510.00003" style="enable-background:new 0 0 510 510;"
	 xml:space="preserve">
<g>
        <path d="m214.742188 237h-.023438c-29.546875.007812-53.496094 23.964844-53.488281 53.511719.003906 29.546875 23.960937 53.496093 53.507812 53.488281h.070313c29.546875-.019531 53.484375-23.984375 53.46875-53.53125-.019532-29.546875-23.988282-53.488281-53.535156-53.46875zm26.378906 79.875c-6.941406 7.066406-16.414063 11.070312-26.320313 11.125h-.066406c-20.710937-.007812-37.492187-16.800781-37.484375-37.511719.007812-20.710937 16.800781-37.496093 37.511719-37.488281h.015625c15.089844.09375 28.648437 9.234375 34.402344 23.183594 5.75 13.949218 2.574218 29.988281-8.0625 40.691406zm0 0"/><path d="m343.351562 202h-.027343c-29.351563 0-53.21875 24.148438-53.207031 53.546875.015624 29.339844 23.882812 53.453125 53.226562 53.453125h.734375c29.242187-.300781 52.734375-24.195312 52.539063-53.441406.015624-29.472656-23.792969-53.414063-53.265626-53.558594zm26.640626 79.898438c-6.828126 7.050781-16.210938 11.054687-26.027344 11.101562h-.613282c-20.710937-.007812-37.496093-16.800781-37.488281-37.511719.003907-20.710937 16.800781-37.496093 37.507813-37.488281h.019531c15.050781.179688 28.550781 9.296875 34.332031 23.195312 5.785156 13.894532 2.746094 29.898438-7.734375 40.703126zm0 0"/><path d="m0 394.425781v72.328125c0 4.472656 3.566406 8.132813 8.039062 8.246094h120.960938v27c-.078125 2.082031.6875 4.109375 2.128906 5.617188 1.441406 1.507812 3.429688 2.367187 5.515625 2.382812h156.234375c4.441406.011719 8.066406-3.558594 8.121094-8v-27h120.960938c4.472656-.113281 8.039062-3.773438 8.039062-8.246094v-72.101562c-.003906-41.167969-33.332031-74.5625-74.5-74.652344h-23.085938c-29.84375.128906-56.832031 17.761719-68.933593 45.039062-11.257813-6.546874-24.042969-10.011718-37.070313-10.039062h-23.191406c-12.988281.03125-25.742188 3.476562-36.984375 9.984375-11.964844-27.257813-38.878906-44.894531-68.644531-44.984375h-22.980469c-41.140625-.019531-74.5273438 33.28125-74.609375 74.425781zm332.414062-58.425781h23.070313c32.335937.070312 58.515625 26.304688 58.515625 58.644531v64.355469h-113v-29.101562c.050781-19.792969-7.804688-38.789063-21.816406-52.765626-.773438-.773437-1.589844-1.5-2.386719-2.234374 8.660156-23.257813 30.796875-38.738282 55.617187-38.898438zm-129.183593 35h23.167969c32.421874.140625 58.621093 26.472656 58.601562 58.890625v64.109375h-140v-64.316406c0-32.265625 25.964844-58.683594 58.230469-58.683594zm-128.609375-35h22.953125c24.785156.105469 46.90625 15.574219 55.507812 38.816406-15.394531 14.078125-24.136719 33.996094-24.082031 54.855469v29.328125h-113v-64.5625c.074219-32.316406 26.308594-58.464844 58.621094-58.4375zm0 0"/><path d="m86.132812 202h-.027343c-29.546875.007812-53.492188 23.964844-53.488281 53.511719.007812 29.546875 23.964843 53.496093 53.515624 53.488281h.027344c14.097656.015625 27.617188-5.609375 37.542969-15.621094 9.925781-10.011718 15.433594-23.582031 15.296875-37.679687v-.195313c.09375-14.109375-5.425781-27.675781-15.339844-37.710937-9.917968-10.039063-23.417968-15.71875-37.527344-15.792969zm.023438 91h-.023438c-20.710937-.007812-37.496093-16.800781-37.488281-37.511719.003907-20.710937 16.800781-37.496093 37.511719-37.488281h.015625c20.605469.144531 37.234375 16.894531 37.226563 37.5-.425782 20.9375-16.773438 37.5-37.242188 37.5zm0 0"/><path d="m402.722656 187.722656c0-103.675781-84.046875-187.722656-187.722656-187.722656s-187.722656 84.046875-187.722656 187.722656c0 4.019532 2.984375 7.417969 6.976562 7.933594 3.988282.515625 7.738282-2.007812 8.761719-5.898438 1.148437-4.371093 5.597656-18.027343 10.914063-23.84375 7.066406-6.792968 16.480468-10.597656 26.28125-10.628906 9.777343-.050781 19.191406 3.734375 26.207031 10.550782 6.847656 7.078124 10.6875 16.53125 10.722656 26.378906 0 4.417968 3.582031 8 8 8s8-3.582032 8-8c-.160156-9.84375 3.675781-19.328125 10.636719-26.289063 6.960937-6.960937 16.449218-10.800781 26.292968-10.640625 9.78125-.050781 19.191407 3.738282 26.207032 10.550782 6.847656 7.078124 10.691406 16.53125 10.722656 26.378906 0 4.417968 3.582031 8 8 8s8-3.582032 8-8c-.160156-9.84375 3.679688-19.328125 10.640625-26.289063 6.960937-6.960937 16.449219-10.800781 26.289063-10.640625 9.78125-.050781 19.191406 3.734375 26.210937 10.550782 6.84375 7.078124 10.6875 16.53125 10.71875 26.378906 0 4.417968 3.582031 8 8 8s8-3.582032 8-8c-.160156-9.84375 3.679687-19.328125 10.640625-26.289063 6.960938-6.960937 16.449219-10.800781 26.289062-10.640625 9.78125-.050781 19.1875 3.734375 26.203126 10.546875 5.34375 5.761719 9.742187 19.210938 10.988281 23.925781 1.023437 3.890626 4.777343 6.414063 8.765625 5.898438 3.988281-.515625 6.972656-3.914062 6.972656-7.933594zm-52.933594-48.4375c-13.96875.003906-27.390624 5.4375-37.433593 15.152344-.117188.113281-.230469.226562-.339844.34375-2.691406 2.847656-5.085937 5.957031-7.15625 9.285156-2.066406-3.328125-4.464844-6.4375-7.152344-9.285156-.054687-.058594-.113281-.117188-.167969-.175781-20.84375-20.363281-54.109374-20.4375-75.042968-.167969-.117188.113281-.230469.226562-.34375.34375-2.6875 2.847656-5.085938 5.957031-7.152344 9.285156-2.066406-3.328125-4.464844-6.4375-7.152344-9.285156l-.171875-.175781c-20.839843-20.363281-54.105469-20.4375-75.039062-.167969-.117188.113281-.234375.226562-.34375.34375-2.6875 2.847656-5.085938 5.957031-7.152344 9.285156-2.070313-3.328125-4.464844-6.4375-7.15625-9.285156-.054687-.058594-.113281-.117188-.167969-.175781-19.203125-18.792969-49.34375-20.5-70.546875-4 17.417969-78.628907 87.121094-134.601563 167.660157-134.636719 80.535156-.03125 150.285156 55.882812 167.773437 134.5-9.433594-7.265625-21.007813-11.195312-32.914063-11.183594zm0 0"/>


</g>
</svg>
