<?xml version="1.0" encoding="iso-8859-1"?>
<!-- Generator: Adobe Illustrator 16.0.0, SVG Export Plug-In . SVG Version: 6.00 Build 0)  -->
<!DOCTYPE svg PUBLIC "-//W3C//DTD SVG 1.1//EN" "http://www.w3.org/Graphics/SVG/1.1/DTD/svg11.dtd">
<svg version="1.1" id="Capa_1" xmlns="http://www.w3.org/2000/svg" xmlns:xlink="http://www.w3.org/1999/xlink" x="0px" y="0px"
	 width="512px" height="512px" viewBox="0 -27 512.001 512" style="enable-background:new 0 0 512 512;"
	 xml:space="preserve">
<g>
        <path d="m477.464844 303.421875-173.550782 43.6875c-1.488281-5.109375-4.238281-9.933594-8.25-13.945313l-55.289062-55.289062c-6.855469-6.859375-15.972656-10.632812-25.667969-10.632812h-110.058593v-12.144532c0-11.976562-9.738282-21.714844-21.714844-21.714844h-61.222656c-11.972657 0-21.710938 9.738282-21.710938 21.714844v58.902344c0 4.15625 3.371094 7.53125 7.527344 7.53125s7.53125-3.375 7.53125-7.53125v-58.902344c0-3.675781 2.980468-6.65625 6.652344-6.65625h61.222656c3.675781 0 6.65625 2.980469 6.65625 6.65625v166.203125c0 3.664063-2.980469 6.652344-6.65625 6.652344h-61.222656c-3.671876 0-6.652344-2.988281-6.652344-6.652344v-76.179687c0-4.15625-3.375-7.53125-7.53125-7.53125s-7.527344 3.375-7.527344 7.53125v76.179687c0 11.964844 9.738281 21.710938 21.710938 21.710938h61.222656c11.976562 0 21.714844-9.746094 21.714844-21.710938v-29.648437l25.449218 4.398437c34.992188 6.039063 52.144532 19.726563 100.703125 42.121094 3.96875 1.941406 7.964844 4.207031 11.882813 6.730469 25.234375 16.265625 57.652344 16.453125 83.105468.429687l71.578126-36.292969c3.707031-1.878906 5.191406-6.410156 3.308593-10.117187-1.878906-3.710937-6.410156-5.191406-10.117187-3.3125-76.660156 38.882813-71.957032 36.449219-72.535156 36.816406-10.015626 6.375-21.578126 9.742188-33.445313 9.742188-22.820313 0-32.847656-10.515625-47.15625-17.519531-49.078125-22.550782-67.050781-36.925782-104.761719-43.4375l-28.011718-4.835938v-94.074219h110.058593c5.683594 0 11.011719 2.207031 15.027344 6.222657l55.28125 55.28125c10.847656 10.847656 3.609375 29.160156-11.515625 29.160156-4.496094 0-8.730469-1.753906-11.921875-4.9375l-49.800781-49.820313c-2.941406-2.941406-7.710938-2.941406-10.652344 0-2.941406 2.941407-2.941406 7.710938 0 10.652344l49.8125 49.820313c18.328125 18.269531 49.234375 8.230468 53.765625-16.550782 3.175781.109375 173.707031-44.078125 177.582031-44.078125 14.425782 0 20.1875 18.878907 8.128906 26.929688l-72.097656 36.554687c-7.042968 3.574219-4.488281 14.246094 3.40625 14.246094 3.402344 0 .460938.347656 75.859375-37.554688 7.378907-3.738281 14.417969-13.898437 14.417969-25.46875 0-20.328124-19.910156-33.03125-34.535156-29.335937zm0 0"/><path d="m363.261719 164.574219v45.265625c0 15.394531 4.710937 27.527344 14.003906 36.058594 9.109375 8.359374 22.003906 12.601562 38.328125 12.601562s29.21875-4.242188 38.328125-12.601562c9.289063-8.53125 14-20.664063 14-36.058594v-45.265625c0-15.394531-4.710937-27.527344-14-36.058594-9.109375-8.359375-22.003906-12.601563-38.328125-12.601563s-29.21875 4.242188-38.328125 12.601563c-9.292969 8.53125-14.003906 20.664063-14.003906 36.058594zm15.058593 0c0-22.296875 12.539063-33.601563 37.273438-33.601563s37.273438 11.304688 37.273438 33.601563v45.265625c0 22.296875-12.539063 33.601562-37.273438 33.601562s-37.273438-11.304687-37.273438-33.601562zm0 0"/><path d="m415.59375 231.898438c14.792969 0 23.28125-8.039063 23.28125-22.058594v-45.265625c0-14.019531-8.488281-22.058594-23.28125-22.058594-14.820312 0-22.980469 7.835937-22.980469 22.058594v45.265625c.003907 14.226562 8.164063 22.058594 22.980469 22.058594zm-7.921875-67.324219c0-5.1875.648437-7 7.921875-7 7.445312 0 8.226562 2.132812 8.226562 7v45.265625c0 4.867187-.78125 7-8.226562 7-7.269531 0-7.921875-1.8125-7.921875-7zm0 0"/><path d="m201.910156 141.914062c9.105469 8.359376 22 12.601563 38.324219 12.601563s29.21875-4.242187 38.328125-12.601563c9.292969-8.535156 14.003906-20.664062 14.003906-36.058593v-45.265625c0-15.394532-4.710937-27.527344-14.003906-36.058594-9.109375-8.363281-22.003906-12.601562-38.328125-12.601562s-29.21875 4.242187-38.324219 12.601562c-9.292968 8.53125-14.003906 20.664062-14.003906 36.058594v45.265625c0 15.394531 4.710938 27.527343 14.003906 36.058593zm1.054688-81.324218c0-22.296875 12.539062-33.601563 37.269531-33.601563 24.734375 0 37.273437 11.304688 37.273437 33.601563v45.265625c0 22.296875-12.539062 33.601562-37.273437 33.601562-24.730469 0-37.269531-11.304687-37.269531-33.601562zm0 0"/><path d="m240.234375 127.914062c14.796875 0 23.285156-8.039062 23.285156-22.058593v-45.265625c0-14.019532-8.488281-22.058594-23.285156-22.058594-14.816406 0-22.976563 7.835938-22.976563 22.058594v45.265625c0 14.226562 8.160157 22.058593 22.976563 22.058593zm-7.917969-67.324218c0-5.1875.648438-7 7.917969-7 7.449219 0 8.226563 2.132812 8.226563 7v45.265625c0 4.867187-.777344 7-8.226563 7-7.269531 0-7.917969-1.8125-7.917969-7zm0 0"/><path d="m272.863281 268.285156c8.699219 0 16.65625-4.675781 20.269531-11.902344l30.238282-60.316406c1.863281-3.714844.363281-8.238281-3.355469-10.101562-3.71875-1.863282-8.238281-.363282-10.101563 3.355468l-30.242187 60.320313c-1.074219 2.144531-3.808594 3.585937-6.808594 3.585937-6.023437 0-9.363281-6.21875-7.292969-9.769531.203126-.34375 112.441407-225.148437 112.488282-225.25 2.886718-6.179687 14.347656-2.519531 14.347656 4.460938 0 4.085937 2.84375-4.484375-68.996094 139.730469-1.863281 3.71875-.359375 8.242187 3.355469 10.105468 3.71875 1.863282 8.242187.359375 10.105469-3.355468 71.351562-142.324219 68.625-136.828126 68.886718-137.492188 10.988282-27.496094-29.816406-44.195312-41.296874-19.914062l-112.027344 224.359374c-7.714844 13.636719 3.113281 32.183594 20.429687 32.183594zm0 0"/>

</g>
</svg>
