<?xml version="1.0" encoding="iso-8859-1"?>
<!-- Generator: Adobe Illustrator 16.0.0, SVG Export Plug-In . SVG Version: 6.00 Build 0)  -->
<!DOCTYPE svg PUBLIC "-//W3C//DTD SVG 1.1//EN" "http://www.w3.org/Graphics/SVG/1.1/DTD/svg11.dtd">
<svg version="1.1" id="Capa_1" xmlns="http://www.w3.org/2000/svg" xmlns:xlink="http://www.w3.org/1999/xlink" x="0px" y="0px"
	 width="504px" height="504px" viewBox="0 0 504 504" style="enable-background:new 0 0 504 504;"
	 xml:space="preserve">
<g>
        <path d="m201.5625 504.234375c74.816406 0 201.441406-9.71875 201.441406-46.160156 0-32.734375-100.175781-42.144531-150.476562-44.832031l1.316406-1.601563c14.863281-18.40625 29.972656-36.664063 45.015625-54.953125l8.121094-9.84375c4.675781-5.640625 9.546875-11.25 14.4375-16.878906 13.546875-14.800782 25.914062-30.640625 36.984375-47.375 48.277344-77.453125 32.789062-178.550782-36.460938-238.003906-69.25-59.449219-171.527344-59.449219-240.777344 0-69.253906 59.453124-84.738281 160.550781-36.460937 238.003906 11.074219 16.746094 23.445313 32.597656 37 47.40625 4.894531 5.632812 9.761719 11.238281 14.417969 16.863281l8.144531 9.863281c15.039063 18.253906 30.148437 36.511719 45.046875 54.960938l1.285156 1.558594c-50.304687 2.6875-150.480468 12.136718-150.480468 44.832031 0 36.441406 126.625 46.160156 201.445312 46.160156zm-84.347656-158.230469-8.160156-9.871094c-4.75-5.742187-9.699219-11.449218-14.6875-17.183593-12.96875-14.164063-24.820313-29.320313-35.445313-45.324219-43.847656-70.414062-29.75-162.292969 33.199219-216.316406 62.949218-54.027344 155.90625-54.027344 218.851562 0 62.949219 54.023437 77.050782 145.902344 33.199219 216.316406-10.613281 15.988281-22.457031 31.125-35.417969 45.277344-4.984375 5.730468-9.9375 11.4375-14.707031 17.195312l-8.140625 9.855469c-15.109375 18.3125-30.214844 36.644531-45.097656 55.050781l-32.734375 40.046875c-1.609375 1.925781-3.992188 3.039063-6.5 3.039063-2.511719 0-4.890625-1.113282-6.5-3.039063l-32.734375-39.996093c-14.875-18.40625-30.007813-36.738282-45.125-55.050782zm46.640625 83.457032 18.191406 22.25c4.796875 5.832031 11.957031 9.210937 19.507813 9.210937 7.554687 0 14.714843-3.378906 19.511718-9.210937l18.199219-22.261719c97.78125 3.796875 144.675781 20.773437 146.96875 28.457031-2.964844 10.3125-68.988281 29.542969-184.671875 29.542969-115.6875 0-181.710938-19.230469-184.65625-29.21875 2.273438-7.988281 49.167969-24.976563 146.949219-28.769531zm0 0"/><path d="m352.644531 185.285156c0-83.441406-67.644531-151.082031-151.082031-151.082031-83.441406 0-151.082031 67.640625-151.082031 151.082031s67.640625 151.082032 151.082031 151.082032c83.398438-.097657 150.984375-67.683594 151.082031-151.082032zm-285.378906 0c0-74.167968 60.125-134.292968 134.296875-134.292968 74.167969 0 134.292969 60.125 134.292969 134.292968 0 74.167969-60.125 134.296875-134.292969 134.296875-74.132812-.089843-134.207031-60.164062-134.296875-134.296875zm0 0"/><path d="m159.59375 134.925781h-50.359375c-4.636719 0-8.394531 3.757813-8.394531 8.390625 0 4.636719 3.757812 8.394532 8.394531 8.394532h16.785156v54.558593c0 6.953125-5.636719 12.589844-12.589843 12.589844-6.953126 0-12.589844-5.636719-12.589844-12.589844 0-4.636719-3.757813-8.394531-8.394532-8.394531-4.636718 0-8.394531 3.757812-8.394531 8.394531 0 16.222657 13.15625 29.375 29.378907 29.375 16.222656 0 29.378906-13.152343 29.378906-29.375v-54.558593h16.785156c4.636719 0 8.394531-3.757813 8.394531-8.394532 0-4.632812-3.757812-8.390625-8.394531-8.390625zm0 0"/><path d="m235.132812 202.074219v-33.574219c0-18.542969-15.03125-33.574219-33.570312-33.574219-18.542969 0-33.574219 15.03125-33.574219 33.574219v33.574219c0 18.539062 15.03125 33.570312 33.574219 33.570312 18.539062 0 33.570312-15.03125 33.570312-33.570312zm-50.359374 0v-33.574219c0-9.273438 7.515624-16.789062 16.789062-16.789062 9.269531 0 16.785156 7.515624 16.785156 16.789062v33.574219c0 9.269531-7.515625 16.785156-16.785156 16.785156-9.273438 0-16.789062-7.515625-16.789062-16.785156zm0 0"/><path d="m260.316406 235.644531h20.980469c11.945313.019531 22.710937-7.210937 27.210937-18.273437 4.503907-11.066406 1.847657-23.753906-6.710937-32.085938 8.558594-8.328125 11.214844-21.019531 6.710937-32.082031-4.5-11.066406-15.265624-18.292969-27.210937-18.277344h-20.980469c-9.273437 0-16.789062 7.515625-16.789062 16.785157v67.148437c0 9.269531 7.515625 16.785156 16.789062 16.785156zm33.570313-29.375c0 6.953125-5.636719 12.589844-12.589844 12.589844h-20.980469v-25.179687h20.980469c6.953125 0 12.589844 5.636718 12.589844 12.589843zm-33.570313-54.558593h20.980469c6.953125 0 12.589844 5.636718 12.589844 12.589843s-5.636719 12.589844-12.589844 12.589844h-20.980469zm0 0"/><path d="m126.019531 112.808594c2.101563 0 4.125-.789063 5.675781-2.207032 17.898438-16.589843 41.199219-26.132812 65.59375-26.859374 4.636719-.160157 8.265626-4.042969 8.109376-8.679688-.160157-4.636719-4.046876-8.265625-8.679688-8.109375-28.402344.839844-55.535156 11.941406-76.382812 31.25-2.570313 2.335937-3.433594 6.015625-2.175782 9.253906 1.261719 3.238281 4.386719 5.367188 7.859375 5.351563zm0 0"/><path d="m206.597656 306.65625c28.351563-1.164062 55.367188-12.390625 76.195313-31.660156 3.402343-3.152344 3.605469-8.46875.453125-11.871094s-8.464844-3.605469-11.867188-.453125c-17.894531 16.566406-41.105468 26.214844-65.46875 27.210937-4.636718.09375-8.320312 3.925782-8.226562 8.5625.09375 4.636719 3.925781 8.320313 8.5625 8.226563zm0 0"/><path d="m232.492188 87.628906c4.230468 0 7.660156-3.433594 7.660156-7.664062 0-4.234375-3.429688-7.664063-7.660156-7.664063-4.234376 0-7.664063 3.429688-7.664063 7.664063 0 4.230468 3.429687 7.664062 7.664063 7.664062zm0 0"/>


</g>
</svg>
