<?xml version="1.0" encoding="iso-8859-1"?>
<!-- Generator: Adobe Illustrator 16.0.0, SVG Export Plug-In . SVG Version: 6.00 Build 0)  -->
<!DOCTYPE svg PUBLIC "-//W3C//DTD SVG 1.1//EN" "http://www.w3.org/Graphics/SVG/1.1/DTD/svg11.dtd">
<svg version="1.1" id="Capa_1" xmlns="http://www.w3.org/2000/svg" xmlns:xlink="http://www.w3.org/1999/xlink" x="0px" y="0px"
	 width="512px" height="512px" viewBox="0 0 512 512" style="enable-background:new 0 0 512 512;"
	 xml:space="preserve">
<g>
        <path d="M395.386,339.1l-1.337.722c-8.435-9.707-22.6-13.364-33.454-7.867-.045.022-.089.046-.134.069l-4.177,2.251a36.858,36.858,0,0,0-41.706-3.415L289.319,344.6H255.653a48.041,48.041,0,0,1-20.793-4.765l-4.663-2.255a80.925,80.925,0,0,0-84.226,8.226c-.132.1-.259.2-.382.312L134.33,356.141a38.142,38.142,0,0,1-13.5,7.757l-6.129-20.1a6,6,0,0,0-5.739-4.25H54.516a6,6,0,0,0-5.956,6.726L66.71,495.1a6,6,0,0,0,5.956,5.273h81.675a6,6,0,0,0,5.739-7.75L149.553,458.1l32.794-20.731a19.187,19.187,0,0,1,13.97-1.8q.186.048.375.081l67.979,12.519a88.917,88.917,0,0,0,54.934-7.757,5.8,5.8,0,0,0,.734-.431l117.573-80.726a6,6,0,0,0,1.744-8.041A33.2,33.2,0,0,0,395.386,339.1Zm-29.305,3.528c5.436-2.715,12.2-.774,16.9,3.165L339.563,369.22l-1.677.884a39.574,39.574,0,0,0-5.2-9.476Zm-45.7-1.263c.048-.026.095-.053.142-.08a24.832,24.832,0,0,1,23.81-.569l-20.654,11.129a39.457,39.457,0,0,0-12.009-5.743ZM77.979,488.376,61.292,351.546h43.23l41.717,136.83Zm235.927-58.535a76.825,76.825,0,0,1-47.079,6.521L199.044,423.88a31.134,31.134,0,0,0-22.686,3.085c-.094.053-.187.107-.277.165l-30.157,19.064-21.591-70.817A50.155,50.155,0,0,0,142.31,365.1l11.07-9.857a68.983,68.983,0,0,1,71.593-6.865l4.663,2.255a60.106,60.106,0,0,0,26.017,5.962h45.221a27.67,27.67,0,0,1,26.893,21.31l-31.574-1.429a197.28,197.28,0,0,0-35.839,1.656A6,6,0,0,0,262,390.022a185.062,185.062,0,0,1,33.651-1.553l38.572,1.745c.09,0,.181.006.272.006a6,6,0,0,0,6-6c0-.637-.018-1.27-.048-1.9l4.764-2.512,55.874-30.143a21.215,21.215,0,0,1,24.761,3.316Z"/>
    <path d="M92.334,468.335a16.891,16.891,0,1,0,16.891-16.89A16.91,16.91,0,0,0,92.334,468.335Zm16.891-4.89a4.89,4.89,0,1,1-4.891,4.89A4.9,4.9,0,0,1,109.225,463.445Z"/>
    <path d="M445.29,16.9a6,6,0,0,0-5.956-5.273H357.659a6,6,0,0,0-5.739,7.75L362.447,53.9,329.653,74.635a19.208,19.208,0,0,1-13.97,1.8q-.186-.048-.375-.081L247.329,63.833A88.9,88.9,0,0,0,192.4,71.59a5.8,5.8,0,0,0-.734.431L74.088,152.747a6,6,0,0,0-1.744,8.041,33.19,33.19,0,0,0,44.27,12.108l1.343-.725a30.207,30.207,0,0,0,22.4,10.438,24.341,24.341,0,0,0,11.045-2.568c.045-.022.089-.046.134-.069l4.171-2.248a36.859,36.859,0,0,0,41.712,3.412L222.681,167.4h33.666a48.041,48.041,0,0,1,20.793,4.765l4.663,2.255a80.932,80.932,0,0,0,84.226-8.226c.132-.1.259-.2.382-.312l11.259-10.024a38.142,38.142,0,0,1,13.5-7.757l6.129,20.1a6,6,0,0,0,5.739,4.25h54.45a6,6,0,0,0,5.956-6.726ZM145.919,169.368c-5.436,2.715-12.2.773-16.9-3.166l43.416-23.422,1.677-.884a39.574,39.574,0,0,0,5.2,9.476Zm45.7,1.263c-.048.026-.095.053-.142.08a24.832,24.832,0,0,1-23.81.569l20.654-11.129a39.457,39.457,0,0,0,12.009,5.743ZM369.69,146.9l-11.07,9.857a68.976,68.976,0,0,1-71.593,6.865l-4.663-2.255a60.106,60.106,0,0,0-26.017-5.962H211.126a27.67,27.67,0,0,1-26.893-21.31l31.574,1.429a197.288,197.288,0,0,0,35.839-1.656A6,6,0,0,0,250,121.978a185.058,185.058,0,0,1-33.651,1.553l-38.572-1.745a6,6,0,0,0-6.271,5.994c0,.637.018,1.27.048,1.9l-4.764,2.512-55.874,30.143a21.218,21.218,0,0,1-24.761-3.316l111.939-76.86a76.847,76.847,0,0,1,47.079-6.521L312.956,88.12a31.15,31.15,0,0,0,22.686-3.085c.094-.053.187-.107.277-.165l30.157-19.064,21.591,70.817A50.155,50.155,0,0,0,369.69,146.9Zm37.788,13.558L365.761,23.624h68.26l16.687,136.83Z"/>
    <path d="M402.775,26.775a16.89,16.89,0,1,0,16.891,16.89A16.91,16.91,0,0,0,402.775,26.775Zm0,21.78a4.89,4.89,0,1,1,4.891-4.89A4.9,4.9,0,0,1,402.775,48.555Z"/>
    <path d="M315.21,256a70.694,70.694,0,1,0-70.694,70.694A70.774,70.774,0,0,0,315.21,256Zm-129.388,0a58.694,58.694,0,1,1,58.694,58.694A58.76,58.76,0,0,1,185.822,256Z"/>
    <path d="M251.624,296.38h12.892a6,6,0,0,0,0-12H251.624a28.373,28.373,0,0,1-23.645-12.707h27.446a6,6,0,0,0,0-12H223.512a27.544,27.544,0,0,1,0-7.346h31.936a6,6,0,0,0,0-12H227.979a28.373,28.373,0,0,1,23.645-12.707h12.892a6,6,0,0,0,0-12H251.624a40.441,40.441,0,0,0-37.214,24.707h-9.894a6,6,0,1,0,0,12h6.9c-.11,1.211-.175,2.434-.175,3.673s.065,2.462.175,3.673h-6.9a6,6,0,1,0,0,12h9.894A40.441,40.441,0,0,0,251.624,296.38Z"/>


</g>
</svg>
