<?xml version="1.0" encoding="iso-8859-1"?>
<!-- Generator: Adobe Illustrator 16.0.0, SVG Export Plug-In . SVG Version: 6.00 Build 0)  -->
<!DOCTYPE svg PUBLIC "-//W3C//DTD SVG 1.1//EN" "http://www.w3.org/Graphics/SVG/1.1/DTD/svg11.dtd">
<svg version="1.1" id="Capa_1" xmlns="http://www.w3.org/2000/svg" xmlns:xlink="http://www.w3.org/1999/xlink" x="0px" y="0px"
	 width="489px" height="489px" viewBox="0 0 489 489" style="enable-background:new 0 0 489 489;"
	 xml:space="preserve">
<g>
      <g>
      <path d="M145.741,379.771c-74.027-3.572-131.056-67.742-125.347-142.135c5.38-70.107,65.522-124.059,135.801-121.862
        c46.056,1.44,85.765,26.321,108.28,62.671c1.725,2.785,4.687,4.563,7.959,4.721l0.229,0.011
        c7.96,0.384,13.096-8.318,8.906-15.097c-25.63-41.48-70.694-70.021-123.056-72.234C74.556,92.298,3.154,158.341,0.102,242.32
        c-3.017,82.982,61.513,153.416,144.676,157.427c57.205,2.76,108.657-26.612,136.827-72.194c3.98-6.44-0.35-14.789-7.912-15.154
        l-0.227-0.011c-3.63-0.176-7.031,1.673-8.944,4.763C240.043,356.691,195.389,382.167,145.741,379.771z"/>
    </g>
    <g>
      <path d="M490.636,239.159l-162.906-94.053c-1.547-0.894-3.273-1.34-5-1.34c-1.728,0-3.453,0.447-5,1.34
        c-3.094,1.786-5,5.088-5,8.66v49.542H149.928c-5.523,0-10,4.478-10,10v69.022c0,5.523,4.477,10,10,10h162.801v49.542
        c0,3.572,1.906,6.874,5,8.66c1.547,0.895,3.272,1.34,5,1.34c1.727,0,3.453-0.445,5-1.34l162.906-94.054
        c3.094-1.786,5-5.088,5-8.66C495.636,244.247,493.729,240.945,490.636,239.159z M332.729,324.553V282.33c0-5.521-4.478-10-10-10
        H159.928v-49.021h162.801c5.522,0,10-4.477,10-10v-42.222l132.906,76.732L332.729,324.553z"/>
    </g>

    </g>
</svg>
