<?xml version="1.0" encoding="iso-8859-1"?>
<!-- Generator: Adobe Illustrator 16.0.0, SVG Export Plug-In . SVG Version: 6.00 Build 0)  -->
<!DOCTYPE svg PUBLIC "-//W3C//DTD SVG 1.1//EN" "http://www.w3.org/Graphics/SVG/1.1/DTD/svg11.dtd">
<svg version="1.1" id="Capa_1" xmlns="http://www.w3.org/2000/svg" xmlns:xlink="http://www.w3.org/1999/xlink" x="0px" y="0px"
	 width="408px" height="408px" viewBox="0 0 408 408" style="enable-background:new 0 0 408 408;"
	 xml:space="preserve">
<g>
        <g>
      <path d="M406.025,148.02c-4.712-41.584-31.12-70.922-32.242-72.151c-1.393-1.524-3.573-2.037-5.501-1.29
        c-1.923,0.746-3.191,2.599-3.191,4.662v251.222c0,2.761,2.238,5,5,5h14.6c2.762,0,5-2.239,4.999-5v-67.808h11.367
        c2.632,0,4.813-2.041,4.989-4.667C406.235,255.168,410.611,188.455,406.025,148.02z M379.692,325.463h-4.6v-62.808h4.6V325.463z
         M396.352,252.655h-21.26V94.192c7.77,11.698,18.326,31.376,20.999,54.955C399.891,182.652,397.268,236.572,396.352,252.655z"/>
      <path d="M51.411,77.112c-2.762,0-5,2.239-5,5v65.198h-5.469V82.112c0-2.761-2.238-5-5-5c-2.762,0-5,2.239-5,5v65.198h-5.474
        V82.112c0-2.761-2.238-5-5-5c-2.762,0-5,2.239-5,5v65.198H10V82.112c0-2.761-2.238-5-5-5s-5,2.239-5,5v70.198
        c0,10.513,6.603,19.61,16.132,23.85v155.592c0,2.761,2.238,5,5,5h14.145c2.762,0,5-2.239,5.001-5V176.161
        c9.529-4.241,16.133-13.338,16.133-23.851V82.112C56.411,79.351,54.173,77.112,51.411,77.112z M30.278,326.752h-4.146v-148.05
        h4.146V326.752z M28.205,168.703c-8.103,0-14.986-4.791-17.339-11.393h34.678C43.191,163.912,36.308,168.703,28.205,168.703z"/>
      <path d="M109.068,138.597c14.925-24.252,43.77-37.793,44.059-37.927c2.506-1.156,3.601-4.124,2.447-6.631
        c-1.155-2.509-4.125-3.606-6.634-2.45c-1.292,0.595-31.847,14.888-48.388,41.767c-1.447,2.352-0.715,5.432,1.638,6.879
        c0.816,0.503,1.721,0.742,2.615,0.742C106.483,140.977,108.123,140.132,109.068,138.597z"/>
      <path d="M203.174,109.048c-52.389,0-95.01,42.621-95.01,95.01c0,52.386,42.621,95.005,95.01,95.005
        c52.386,0,95.005-42.619,95.005-95.005C298.179,151.67,255.56,109.048,203.174,109.048z M203.174,289.063
        c-46.875,0-85.01-38.133-85.01-85.005c0-46.875,38.135-85.01,85.01-85.01c46.872,0,85.005,38.135,85.005,85.01
        C288.179,250.93,250.046,289.063,203.174,289.063z"/>
      <path d="M203.174,65.629c-76.33,0-138.429,62.099-138.429,138.429c0,76.327,62.099,138.424,138.429,138.424
        c76.327,0,138.424-62.096,138.424-138.424C341.598,127.728,279.501,65.629,203.174,65.629z M203.174,332.482
        c-70.816,0-128.429-57.611-128.429-128.424c0-70.816,57.614-128.429,128.429-128.429c70.813,0,128.424,57.613,128.424,128.429
        C331.598,274.871,273.987,332.482,203.174,332.482z"/>
    </g>
      </g>
</svg>
