<?xml version="1.0" encoding="iso-8859-1"?>
<!-- Generator: Adobe Illustrator 16.0.0, SVG Export Plug-In . SVG Version: 6.00 Build 0)  -->
<!DOCTYPE svg PUBLIC "-//W3C//DTD SVG 1.1//EN" "http://www.w3.org/Graphics/SVG/1.1/DTD/svg11.dtd">
<svg version="1.1" id="Capa_1" xmlns="http://www.w3.org/2000/svg" xmlns:xlink="http://www.w3.org/1999/xlink" x="0px" y="0px"
	 width="480px" height="480px" viewBox="0 0 480 480" style="enable-background:new 0 0 480 480;"
	 xml:space="preserve">
<g>
	        <path d="m281.832031 208.207031-136-32c-1.207031-.277343-2.457031-.277343-3.664062 0l-136 32c-3.617188.851563-6.17187525 4.078125-6.167969 7.792969v48c0 4.417969 3.582031 8 8 8h16v128c-4.417969 0-8 3.582031-8 8v24h-8c-4.417969 0-8 3.582031-8 8v32c0 4.417969 3.582031 8 8 8h272c4.417969 0 8-3.582031 8-8v-32c0-4.417969-3.582031-8-8-8h-8v-24c0-4.417969-3.582031-8-8-8v-128h16c4.417969 0 8-3.582031 8-8v-48c.003906-3.714844-2.550781-6.941406-6.167969-7.792969zm-241.832031 63.792969h16v128h-16zm176 0v128h-144v-128zm56 192h-256v-16h256zm-240-32v-16h224v16zm216-32h-16v-128h16zm24-144h-256v-33.664062l128-30.121094 128 30.121094zm0 0"/><path d="m120 224c0 13.253906 10.746094 24 24 24s24-10.746094 24-24-10.746094-24-24-24-24 10.746094-24 24zm32 0c0 4.417969-3.582031 8-8 8s-8-3.582031-8-8 3.582031-8 8-8 8 3.582031 8 8zm0 0"/><path d="m136 344h16c4.417969 0 8 3.582031 8 8s-3.582031 8-8 8h-16c-4.417969 0-8-3.582031-8-8h-16c0 13.253906 10.746094 24 24 24v8h16v-8c13.253906 0 24-10.746094 24-24s-10.746094-24-24-24h-16c-4.417969 0-8-3.582031-8-8s3.582031-8 8-8h16c4.417969 0 8 3.582031 8 8h16c0-13.253906-10.746094-24-24-24v-8h-16v8c-13.253906 0-24 10.746094-24 24s10.746094 24 24 24zm0 0"/><path d="m352 32c-17.671875 0-32 14.328125-32 32s14.328125 32 32 32 32-14.328125 32-32-14.328125-32-32-32zm0 48c-8.835938 0-16-7.164062-16-16s7.164062-16 16-16 16 7.164062 16 16-7.164062 16-16 16zm0 0"/><path d="m464 0h-224c-8.835938 0-16 7.164062-16 16v96c0 8.835938 7.164062 16 16 16h224c8.835938 0 16-7.164062 16-16v-96c0-8.835938-7.164062-16-16-16zm-39.28125 112h-145.4375c-3.4375-20.101562-19.179688-35.84375-39.28125-39.28125v-17.4375c20.101562-3.433594 35.847656-19.179688 39.28125-39.28125h145.4375c3.433594 20.101562 19.179688 35.847656 39.28125 39.28125v17.4375c-20.101562 3.4375-35.84375 19.179688-39.28125 39.28125zm39.28125-73.007812c-11.261719-2.9375-20.054688-11.730469-22.992188-22.992188h22.992188zm-224-22.992188h22.992188c-2.933594 11.261719-11.730469 20.058594-22.992188 22.992188zm0 96v-22.992188c11.261719 2.933594 20.058594 11.730469 22.992188 22.992188zm224 0h-22.992188c2.933594-11.261719 11.730469-20.058594 22.992188-22.992188zm0 0"/><path d="m304 368h16v16h-16zm0 0"/><path d="m336 368h16v16h-16zm0 0"/><path d="m368 368h16v16h-16zm0 0"/><path d="m368 336h16v16h-16zm0 0"/><path d="m368 304h16v16h-16zm0 0"/><path d="m368 272h16v16h-16zm0 0"/><path d="m368 240h16v16h-16zm0 0"/><path d="m368 208h16v16h-16zm0 0"/><path d="m368 176h16v16h-16zm0 0"/><path d="m368 144h16v16h-16zm0 0"/><path d="m192 48h16v16h-16zm0 0"/><path d="m160 48h16v16h-16zm0 0"/><path d="m128 48h16v16h-16zm0 0"/><path d="m128 80h16v16h-16zm0 0"/><path d="m128 112h16v16h-16zm0 0"/><path d="m128 144h16v16h-16zm0 0"/>


</g>
</svg>
