<?xml version="1.0" encoding="iso-8859-1"?>
<!-- Generator: Adobe Illustrator 16.0.0, SVG Export Plug-In . SVG Version: 6.00 Build 0)  -->
<!DOCTYPE svg PUBLIC "-//W3C//DTD SVG 1.1//EN" "http://www.w3.org/Graphics/SVG/1.1/DTD/svg11.dtd">
<svg version="1.1" id="Capa_1" xmlns="http://www.w3.org/2000/svg" xmlns:xlink="http://www.w3.org/1999/xlink" x="0px" y="0px"
	 width="512px" height="512px" viewBox="0 0 512 512" style="enable-background:new 0 0 512 512;"
	 xml:space="preserve">
<g>
        <g>
  <g>
    <path d="M363.839,288.073c-12.119-31.883-44.256-50.399-76.691-46.701l-2.812-132.554c25.073-33.842,36.837-61.26,35.949-83.758
      c-0.504-12.792-9.961-25.457-27.149-24.947c-6.936,0.21-13.438,2.775-18.311,7.223c-5.571,5.085-8.546,12.307-8.374,20.335
      l1.611,75.914c-14.963,19.794-28.145,35.853-39.826,50.084c-2.789,3.398-5.486,6.683-8.092,9.879
      c-2.819,3.458-2.302,8.549,1.157,11.368c3.458,2.819,8.548,2.302,11.368-1.157c2.595-3.184,5.28-6.454,8.059-9.838
      c8.468-10.316,17.719-21.587,27.881-34.556l2.455,115.746c-0.539,0.191-1.078,0.364-1.615,0.568
      c-31.002,11.785-46.637,46.596-34.852,77.599c4.721,12.418,13.995,22.254,26.114,27.697c4.098,1.841,8.357,3.103,12.678,3.786
      l0.841,39.678c-0.373,0.004-0.746,0.025-1.118,0.025c-37.759-0.003-73.418-23.019-87.612-60.356
      c-7.87-20.701-9.822-43.064-5.658-64.691c7.2-30.832,18.552-50.62,33.381-70.842c2.638-3.598,1.861-8.656-1.738-11.294
      c-3.601-2.64-8.657-1.861-11.294,1.738c-18.942,25.832-29.399,48.071-36.094,76.76c-0.001,0.003-0.001,0.008-0.002,0.011
      c-0.022,0.095-0.051,0.185-0.07,0.281c-4.805,24.666-2.603,50.179,6.369,73.781c16.646,43.787,58.455,70.776,102.736,70.775
      c0.481,0,0.962-0.026,1.443-0.032l0.743,35.031c0.573,27.055-20.971,49.534-48.025,50.108c-16.015,0.324-30.44-7.099-39.658-18.83
      c2.91,0.755,5.931,1.152,9.01,1.152c0.26,0,0.519-0.003,0.78-0.008c9.548-0.203,18.444-4.111,25.052-11.005
      c6.609-6.894,10.136-15.949,9.933-25.497c-0.419-19.709-16.834-35.387-36.502-34.985c-19.709,0.418-35.403,16.793-34.985,36.502
      c0.024,1.137,0.104,2.265,0.233,3.38c-0.094,0.521-0.138,1.059-0.127,1.609c0.753,35.496,29.868,63.856,65.204,63.855
      c0.465,0,0.935-0.005,1.403-0.015c35.963-0.763,64.602-30.643,63.839-66.608l-0.766-36.112c7.148-1.17,14.284-3.041,21.31-5.713
      c14.615-5.556,27.548-14.856,37.399-26.893c2.826-3.454,2.316-8.544-1.137-11.37c-3.454-2.825-8.543-2.318-11.372,1.137
      c-8.062,9.854-18.656,17.467-30.635,22.02c-5.253,1.997-10.576,3.477-15.915,4.486l-0.81-38.214
      c3.111-0.544,6.194-1.38,9.21-2.526c21.341-8.114,32.103-32.075,23.99-53.415c-1.587-4.172-6.254-6.266-10.424-4.682
      c-4.172,1.586-6.267,6.253-4.682,10.424c4.946,13.011-1.615,27.621-14.626,32.568c-1.257,0.478-2.532,0.868-3.816,1.192
      l-1.709-80.547c25.769-3.634,51.613,10.855,61.24,36.182c5.219,13.727,6.209,28.506,2.864,42.737
      c-1.021,4.344,1.673,8.693,6.017,9.715c4.341,1.021,8.693-1.673,9.715-6.017C371.414,322.868,370.207,304.826,363.839,288.073z
       M267.331,336.232c-8.181-3.675-14.442-10.315-17.628-18.698c-8.129-21.381,1.582-45.232,21.727-55.11l1.607,75.775
      C271.101,337.717,269.19,337.067,267.331,336.232z M177.078,442.716c-0.228-10.8,8.371-19.773,19.172-20.002
      c0.141-0.003,0.281-0.004,0.421-0.004c10.611,0,19.355,8.517,19.581,19.176c0.112,5.232-1.822,10.194-5.443,13.972
      c-3.621,3.777-8.496,5.92-13.729,6.03c-5.242,0.113-10.194-1.821-13.971-5.443C179.331,452.824,177.189,447.949,177.078,442.716z
       M282.605,27.327c-0.177-8.463,6.844-10.935,11.021-11.061c0.116-0.003,0.246-0.005,0.386-0.005c2.734,0,9.787,0.844,10.125,9.438
      c0.588,14.895-6.105,33.199-20.387,55.582L282.605,27.327z"/>
  </g>
</g>
<g>
  <g>
    <path d="M491.43,316.161c-4.126-1.751-7.547-2.671-10.565-3.483c-8.155-2.195-12.654-3.407-24.774-25.203
      c-0.009-0.016-0.018-0.031-0.027-0.047c-0.009-0.015-0.016-0.028-0.024-0.043c-0.025-0.044-0.054-0.084-0.08-0.127
      c-0.103-0.179-0.21-0.354-0.326-0.524c-0.07-0.101-0.145-0.196-0.22-0.294c-0.082-0.108-0.162-0.218-0.249-0.322
      c-0.1-0.12-0.207-0.232-0.314-0.345c-0.07-0.074-0.138-0.151-0.211-0.223c-0.117-0.115-0.24-0.223-0.364-0.331
      c-0.073-0.064-0.145-0.129-0.221-0.191c-0.121-0.098-0.246-0.187-0.372-0.278c-0.089-0.065-0.178-0.129-0.269-0.191
      c-0.114-0.075-0.232-0.143-0.349-0.212c-0.112-0.066-0.223-0.133-0.338-0.193c-0.103-0.054-0.209-0.102-0.315-0.152
      c-0.135-0.064-0.268-0.126-0.406-0.182c-0.097-0.039-0.195-0.072-0.293-0.108c-0.148-0.053-0.296-0.107-0.447-0.152
      c-0.103-0.03-0.208-0.054-0.312-0.081c-0.147-0.037-0.292-0.075-0.442-0.103c-0.133-0.026-0.267-0.042-0.402-0.061
      c-0.122-0.017-0.244-0.039-0.366-0.049c-0.194-0.018-0.388-0.025-0.583-0.029c-0.061-0.001-0.121-0.01-0.183-0.01
      c-0.008,0-0.016,0.001-0.024,0.001c-0.249,0-0.498,0.014-0.747,0.038c-0.021,0.002-0.04,0.001-0.06,0.003
      c-0.242,0.025-0.485,0.064-0.726,0.111c-0.025,0.004-0.051,0.007-0.074,0.012c-0.134,0.028-0.265,0.068-0.398,0.102
      c-0.129,0.033-0.261,0.061-0.387,0.101c-0.027,0.009-0.053,0.021-0.08,0.029c-0.232,0.075-0.459,0.158-0.681,0.253
      c-0.018,0.008-0.037,0.018-0.055,0.026c-0.229,0.1-0.454,0.209-0.671,0.33c-0.008,0.004-0.014,0.006-0.022,0.011
      c-0.054,0.03-0.103,0.067-0.157,0.098c-0.167,0.098-0.334,0.197-0.492,0.307c-0.104,0.071-0.201,0.15-0.301,0.225
      c-0.107,0.081-0.214,0.158-0.316,0.245c-0.12,0.1-0.231,0.206-0.343,0.311c-0.075,0.071-0.153,0.14-0.226,0.214
      c-0.113,0.115-0.22,0.236-0.325,0.358c-0.066,0.075-0.134,0.15-0.197,0.228c-0.096,0.119-0.184,0.241-0.273,0.365
      c-0.066,0.092-0.132,0.182-0.195,0.277c-0.073,0.112-0.14,0.227-0.208,0.343c-0.068,0.114-0.136,0.228-0.197,0.346
      c-0.053,0.101-0.099,0.204-0.148,0.307c-0.065,0.137-0.128,0.273-0.185,0.414c-0.038,0.094-0.07,0.19-0.104,0.284
      c-0.054,0.151-0.109,0.302-0.154,0.457c-0.029,0.099-0.052,0.199-0.078,0.299c-0.038,0.151-0.078,0.301-0.107,0.455
      c-0.025,0.127-0.04,0.256-0.058,0.385c-0.018,0.127-0.04,0.254-0.052,0.383c-0.017,0.185-0.023,0.372-0.028,0.558
      c-0.001,0.069-0.011,0.136-0.011,0.205v0.061c0,0.012,0,0.025,0,0.037v96.138c-3.727-1.755-7.884-2.741-12.269-2.741
      c-15.935,0-28.9,12.965-28.9,28.9s12.965,28.9,28.9,28.9c11.471,0,21.401-6.718,26.065-16.425
      c1.461-1.462,2.364-3.481,2.364-5.711v-1.605c0.303-1.675,0.47-3.397,0.47-5.158c0-1.762-0.167-3.483-0.47-5.158v-91.168
      c6.659,7.002,12.436,8.975,19.609,10.905c2.632,0.709,5.356,1.442,8.452,2.755c10.833,4.595,10.723,24.361,10.718,24.646
      c-0.112,4.451,3.397,8.157,7.851,8.283c0.077,0.002,0.154,0.003,0.232,0.003c4.357,0,7.95-3.469,8.073-7.853
      C512.028,354.857,512.619,325.148,491.43,316.161z M440.899,417.088c-1.488,5.386-6.418,9.357-12.269,9.357
      c-7.026,0-12.74-5.715-12.74-12.74c0-7.025,5.715-12.74,12.74-12.74c5.851,0,10.781,3.971,12.269,9.357V417.088z"/>
  </g>
</g>
<g>
  <g>
    <path d="M190.023,73.847c-1.338-3.215-4.006-5.672-7.32-6.743L98.516,39.916c-5.598-1.807-11.594,0.687-14.253,5.934
      l-36.121,71.233c-2.351-2.852-5.273-5.226-8.668-6.948c-6.473-3.283-13.835-3.847-20.736-1.592
      c-6.898,2.256-12.505,7.064-15.787,13.537c-3.283,6.473-3.847,13.836-1.591,20.735c2.256,6.898,7.063,12.505,13.536,15.787
      c3.866,1.961,8.049,2.952,12.26,2.952c2.841,0,5.696-0.451,8.474-1.361c6.898-2.256,12.505-7.064,15.787-13.536
      c0.418-0.824,0.791-1.663,1.12-2.515l44.484-87.727l75.95,24.527l-35.313,69.642c-2.326-2.861-5.267-5.295-8.762-7.068
      c-13.362-6.774-29.746-1.417-36.522,11.947c-6.776,13.362-1.416,29.746,11.946,36.521c3.866,1.961,8.049,2.952,12.26,2.952
      c2.841,0,5.696-0.451,8.474-1.361c6.898-2.256,12.504-7.063,15.787-13.536l48.807-96.251
      C191.224,80.685,191.361,77.06,190.023,73.847z M37.636,137.803l-0.112,0.22c-0.223,0.441-0.395,0.893-0.532,1.35
      c-1.331,2.612-3.596,4.551-6.383,5.462c-2.796,0.916-5.781,0.686-8.402-0.644c-5.415-2.746-7.587-9.386-4.842-14.801
      c1.331-2.623,3.603-4.572,6.397-5.486c1.126-0.368,2.283-0.551,3.435-0.551c1.707,0,3.402,0.402,4.969,1.196
      c2.623,1.329,4.571,3.602,5.486,6.397C38.39,133.206,38.368,135.587,37.636,137.803z M126.431,172.731
      c-2.746,5.416-9.387,7.587-14.801,4.842c-5.415-2.746-7.587-9.386-4.842-14.801c1.939-3.825,5.82-6.031,9.839-6.031
      c1.672,0,3.37,0.382,4.961,1.189C127.004,160.676,129.176,167.316,126.431,172.731z"/>
  </g>
</g>
<g>
  <g>
    <path d="M127.688,319.54l-13.506-6.053c-3.789-1.699-6.811-4.72-8.509-8.509l-6.054-13.507c-1.303-2.906-4.19-4.776-7.373-4.776
      s-6.071,1.87-7.373,4.776l-6.054,13.507c-1.698,3.788-4.719,6.81-8.508,8.508l-13.507,6.054c-2.906,1.303-4.776,4.19-4.776,7.373
      c0,3.185,1.87,6.071,4.776,7.373l13.507,6.053c3.789,1.699,6.811,4.72,8.508,8.509l6.054,13.507
      c1.303,2.906,4.19,4.776,7.373,4.776s6.071-1.87,7.373-4.776l6.055-13.507c1.698-3.788,4.719-6.81,8.508-8.508l13.507-6.054
      c2.906-1.303,4.776-4.19,4.776-7.373C132.463,323.729,130.594,320.842,127.688,319.54z M92.246,339.613
      c-2.98-5.328-7.37-9.719-12.699-12.699c5.329-2.981,9.719-7.371,12.699-12.699c2.98,5.328,7.37,9.719,12.699,12.699
      C99.616,329.894,95.226,334.285,92.246,339.613z"/>
  </g>
</g>
<g>
  <g>
    <path d="M427.073,161.884l-13.506-6.053c-3.789-1.699-6.811-4.72-8.509-8.509l-6.054-13.507c-1.302-2.906-4.19-4.776-7.373-4.776
      c-3.185,0-6.072,1.87-7.373,4.776l-6.053,13.507c-1.698,3.789-4.72,6.81-8.508,8.508l-13.507,6.054
      c-2.906,1.302-4.776,4.19-4.776,7.373c0,3.185,1.869,6.071,4.776,7.373l13.506,6.053c3.789,1.699,6.811,4.72,8.509,8.508
      l6.053,13.507c1.301,2.906,4.189,4.776,7.373,4.776c3.184,0,6.072-1.87,7.373-4.776l6.054-13.507
      c1.698-3.787,4.72-6.808,8.508-8.507l13.507-6.054c2.906-1.302,4.776-4.19,4.776-7.373
      C431.849,166.073,429.98,163.187,427.073,161.884z M391.632,181.957c-2.981-5.326-7.371-9.718-12.699-12.699
      c5.328-2.981,9.719-7.371,12.698-12.699c2.981,5.328,7.371,9.719,12.699,12.699C399.003,172.239,394.612,176.629,391.632,181.957z
      "/>
  </g>
</g>

      </g>
</svg>
