<?xml version="1.0" encoding="iso-8859-1"?>
<!-- Generator: Adobe Illustrator 16.0.0, SVG Export Plug-In . SVG Version: 6.00 Build 0)  -->
<!DOCTYPE svg PUBLIC "-//W3C//DTD SVG 1.1//EN" "http://www.w3.org/Graphics/SVG/1.1/DTD/svg11.dtd">
<svg version="1.1" id="Capa_1" xmlns="http://www.w3.org/2000/svg" xmlns:xlink="http://www.w3.org/1999/xlink" x="0px" y="0px"
	 width="512px" height="512px" viewBox="-132 0 512 512.00025" style="enable-background:new 0 0 512 512;"
	 xml:space="preserve">
<g>
        <path d="m148.730469 381.914062c-.648438 0-1.308594-.058593-1.949219-.1875-.640625-.132812-1.269531-.320312-1.878906-.570312-.601563-.25-1.179688-.5625-1.722656-.921875-.546876-.371094-1.058594-.789063-1.519532-1.25-.460937-.460937-.878906-.96875-1.238281-1.519531-.359375-.539063-.671875-1.121094-.921875-1.71875-.25-.609375-.449219-1.242188-.570312-1.871094-.128907-.648438-.199219-1.3125-.199219-1.960938 0-.648437.070312-1.308593.199219-1.949218.121093-.640625.320312-1.269532.570312-1.871094.25-.609375.5625-1.1875.921875-1.726562.359375-.550782.777344-1.0625 1.238281-1.523438.460938-.457031.972656-.878906 1.519532-1.238281.542968-.359375 1.121093-.667969 1.722656-.917969.609375-.25 1.238281-.441406 1.878906-.570312 1.289062-.261719 2.621094-.261719 3.910156 0 .628906.128906 1.257813.320312 1.871094.570312.597656.25 1.179688.558594 1.71875.917969.550781.359375 1.058594.78125 1.519531 1.238281.460938.460938.878907.972656 1.238281 1.523438.359376.539062.671876 1.117187.921876 1.726562.25.601562.449218 1.230469.570312 1.871094.128906.640625.199219 1.300781.199219 1.949218 0 .648438-.070313 1.308594-.199219 1.960938-.121094.628906-.320312 1.261719-.570312 1.871094-.25.597656-.5625 1.179687-.921876 1.71875-.359374.550781-.777343 1.058594-1.238281 1.519531-.460937.460937-.96875.878906-1.519531 1.25-.539062.359375-1.121094.671875-1.730469.921875-.601562.25-1.230469.4375-1.871093.570312-.640626.128907-1.300782.1875-1.949219.1875zm0 0"/><path d="m124.230469 144.125c-24.410157 0-44.269531-19.859375-44.269531-44.273438 0-24.410156 19.859374-44.273437 44.269531-44.273437 24.414062 0 44.273437 19.863281 44.273437 44.273437 0 24.414063-19.859375 44.273438-44.273437 44.273438zm0-68.546875c-13.382813 0-24.273438 10.890625-24.273438 24.273437 0 13.382813 10.890625 24.273438 24.273438 24.273438 13.382812 0 24.273437-10.890625 24.273437-24.273438 0-13.382812-10.886718-24.273437-24.273437-24.273437zm0 0"/><path d="m238.460938 311.769531h-24.363282c1.140625-.984375 2.253906-2.019531 3.335938-3.097656 31.742187-31.746094 21.703125-90.769531 21.261718-93.265625-.734374-4.132812-3.96875-7.367188-8.101562-8.101562-2.496094-.441407-61.515625-10.480469-93.261719 21.265624-1.082031 1.078126-2.117187 2.191407-3.101562 3.335938v-33.25c5.730469-1.226562 11.113281-3.53125 15.519531-6.914062 3.695312-2.835938 6.496094-6.253907 8.363281-10.089844 4.035157 1.390625 8.433594 1.832031 13.046875 1.222656 17.289063-2.277344 33.816406-18.804688 36.09375-36.09375.605469-4.617188.167969-9.011719-1.222656-13.046875 3.835938-1.867187 7.253906-4.667969 10.089844-8.363281 10.613281-13.832032 10.613281-37.207032 0-51.042969-2.835938-3.691406-6.253906-6.492187-10.089844-8.359375 1.390625-4.035156 1.828125-8.433594 1.222656-13.046875-2.277344-17.289063-18.804687-33.816406-36.09375-36.09375-4.617187-.605469-9.011718-.167969-13.046875 1.222656-1.867187-3.835937-4.667969-7.253906-8.363281-10.089843-13.832031-10.613282-37.207031-10.613282-51.042969 0-3.691406 2.832031-6.492187 6.253906-8.359375 10.089843-4.035156-1.390625-8.433594-1.832031-13.046875-1.222656-17.289062 2.277344-33.816406 18.804687-36.09375 36.09375-.609375 4.617187-.167969 9.011719 1.222657 13.046875-3.835938 1.867188-7.257813 4.667969-10.089844 8.359375-10.617188 13.835937-10.617188 37.210937 0 51.042969 2.835937 3.695312 6.25 6.496094 10.089844 8.363281-1.390626 4.035156-1.832032 8.429687-1.222657 13.046875 2.277344 17.289062 18.804688 33.816406 36.09375 36.09375 4.613281.605469 9.011719.167969 13.046875-1.222656 1.867188 3.835937 4.667969 7.253906 8.359375 10.089844 4.410157 3.382812 9.792969 5.6875 15.523438 6.914062v33.25c-.988281-1.140625-2.019531-2.253906-3.101563-3.335938-31.746094-31.746093-90.769531-21.707031-93.265625-21.265624-4.128906.734374-7.367187 3.96875-8.097656 8.101562-.445313 2.496094-10.484375 61.519531 21.261719 93.265625 1.082031 1.078125 2.195312 2.113281 3.335937 3.097656h-24.363281c-5.523438 0-10 4.480469-10 10v50.148438c0 5.523437 4.476562 10 10 10h11.992188v89.628906c0 22.304687 18.148437 40.453125 40.457031 40.453125h123.558593c22.308594 0 40.457032-18.148438 40.457032-40.453125v-89.628906h11.992187c5.523438 0 10-4.476563 10-10v-50.148438c.003907-5.523437-4.472656-10-9.996093-10zm-86.988282-69.058593c18.820313-18.820313 53.4375-17.984376 68.414063-16.597657 1.386719 14.988281 2.21875 49.597657-16.597657 68.414063-18.820312 18.820312-53.4375 17.984375-68.410156 16.597656-.3125-3.359375-.59375-7.703125-.636718-12.632812.003906-.707032.003906-1.425782 0-2.152344.109374-16.898438 3.234374-39.632813 17.230468-53.628906zm-42.371094-80.207032c.519532-1.25.765626-2.546875.765626-3.820312 0-3.925782-2.324219-7.648438-6.175782-9.242188-5.101562-2.113281-10.949218.308594-13.0625 5.410156-3.773437 9.109376-8.640625 8.46875-10.714844 8.195313-8.261718-1.089844-17.789062-10.613281-18.875-18.875-.273437-2.078125-.914062-6.941406 8.195313-10.714844 3.851563-1.597656 6.175781-5.320312 6.171875-9.246093 0-1.273438-.246094-2.570313-.761719-3.820313-2.113281-5.101563-7.964843-7.523437-13.066406-5.410156-9.109375 3.769531-12.09375-.121094-13.371094-1.78125-5.070312-6.609375-5.070312-20.082031 0-26.695313 1.277344-1.660156 4.261719-5.554687 13.371094-1.777344 5.101563 2.109376 10.953125-.3125 13.066406-5.414062.515625-1.25.761719-2.546875.761719-3.820312 0-3.925782-2.324219-7.648438-6.175781-9.246094-9.105469-3.769532-8.46875-8.636719-8.191407-10.710938 1.085938-8.261718 10.609376-17.789062 18.871094-18.875 2.082032-.273437 6.941406-.914062 10.714844 8.191406 2.113281 5.101563 7.964844 7.523438 13.066406 5.414063 3.851563-1.597656 6.175782-5.320313 6.175782-9.246094 0-1.273437-.246094-2.570312-.765626-3.820312-3.773437-9.105469.121094-12.09375 1.78125-13.371094 6.613282-5.070313 20.082032-5.070313 26.695313 0 1.660156 1.277344 5.554687 4.265625 1.78125 13.371094-.519531 1.25-.765625 2.546875-.765625 3.820312 0 3.925781 2.324219 7.648438 6.175781 9.246094 5.101563 2.113281 10.953125-.308594 13.066407-5.414063 3.773437-9.109374 8.640624-8.464843 10.714843-8.191406 8.261719 1.085938 17.785157 10.613282 18.875 18.875.273438 2.074219.914063 6.9375-8.195312 10.710938-3.851563 1.597656-6.175781 5.320312-6.175781 9.246094 0 1.273437.246093 2.570312.765624 3.820312 2.113282 5.101562 7.960938 7.523438 13.0625 5.414062 9.109376-3.773437 12.097657.117188 13.371094 1.777344 5.074219 6.613282 5.074219 20.085938 0 26.695313-1.273437 1.660156-4.261718 5.554687-13.371094 1.78125-5.101562-2.113281-10.949218.308593-13.0625 5.410156-.519531 1.25-.765624 2.546875-.765624 3.820313 0 3.925781 2.324218 7.648437 6.175781 9.246093 9.109375 3.769531 8.46875 8.636719 8.195312 10.714844-1.089843 8.261719-10.617187 17.785156-18.875 18.875-2.082031.269531-6.941406.914063-10.714843-8.195313-2.117188-5.101562-7.964844-7.527343-13.066407-5.410156-3.851562 1.59375-6.175781 5.316406-6.175781 9.242188 0 1.277344.246094 2.570312.765625 3.820312 3.773437 9.109375-.121094 12.097656-1.78125 13.371094-6.613281 5.074219-20.085937 5.074219-26.695313 0-1.660156-1.273438-5.550781-4.261719-1.78125-13.371094zm-80.519531 63.542969c17.835938-1.707031 50.898438-.847656 68.410157 16.664063 13.988281 13.988281 17.117187 36.707031 17.230468 53.597656-.003906.746094-.003906 1.484375 0 2.210937-.042968 4.917969-.324218 9.253907-.632812 12.605469-14.984375 1.390625-49.597656 2.21875-68.414063-16.597656-18.851562-18.847656-17.984375-53.539063-16.59375-68.480469zm199.878907 135.871094h-32.234376c-5.523437 0-10 4.476562-10 10 0 5.523437 4.476563 10 10 10h10.242188v89.628906c0 11.277344-9.175781 20.453125-20.457031 20.453125h-123.5625c-11.277344 0-20.453125-9.175781-20.453125-20.453125v-89.628906h61.234375c5.523437 0 10-4.476563 10-10 0-5.523438-4.476563-10-10-10h-83.226563v-30.148438h208.457032zm0 0"/><path d="m168.550781 287.453125c-2.5625 0-5.121093-.976563-7.074219-2.929687-3.902343-3.90625-3.902343-10.238282 0-14.144532l17.667969-17.664062c3.90625-3.902344 10.238281-3.902344 14.140625 0 3.90625 3.90625 3.90625 10.234375 0 14.140625l-17.664062 17.667969c-1.953125 1.953124-4.511719 2.929687-7.070313 2.929687zm0 0"/>

</g>
</svg>
