<?xml version="1.0" encoding="iso-8859-1"?>
<!-- Generator: Adobe Illustrator 16.0.0, SVG Export Plug-In . SVG Version: 6.00 Build 0)  -->
<!DOCTYPE svg PUBLIC "-//W3C//DTD SVG 1.1//EN" "http://www.w3.org/Graphics/SVG/1.1/DTD/svg11.dtd">
<svg version="1.1" id="Capa_1" xmlns="http://www.w3.org/2000/svg" xmlns:xlink="http://www.w3.org/1999/xlink" x="0px" y="0px"
	 width="52px" height="52px" viewBox="0 0 52 52" style="enable-background:new 0 0 52 52;"
	 xml:space="preserve">
 <g>
      <path d="M42.379,14.451c-0.645,0.521-0.746,1.465-0.226,2.109c2.942,3.647,4.497,8.058,4.496,12.754 c0,11.209-9.119,20.328-20.329,20.328S5.991,40.523,5.991,29.314c0-7.799,4.537-14.767,11.219-18.149 c2.463-1.247,4.161,0.491,3.503,3.173l-1.262,5.14c-0.198,0.804,0.294,1.616,1.099,1.814c0.12,0.029,0.241,0.043,0.359,0.043 c0.675,0,1.288-0.458,1.456-1.143l3.316-13.497c0.185-0.752-0.234-1.522-0.967-1.775L10.72,0.083 c-0.392-0.135-0.801-0.1-1.146,0.068c-0.585,0.285-0.977,1.42-0.693,2.006C9.049,2.503,9.349,2.784,9.74,2.919l6.18,2.136 c2.61,0.901,2.517,2.134,0.047,3.369c-7.725,3.865-12.975,11.9-12.975,20.89c0,12.863,10.465,23.328,23.329,23.328 c12.863,0,23.329-10.465,23.329-23.328c0-5.312-1.833-10.51-5.161-14.637C43.968,14.032,43.025,13.931,42.379,14.451z"/>
    </g>
</svg>
