<?xml version="1.0" encoding="iso-8859-1"?>
<!-- Generator: Adobe Illustrator 16.0.0, SVG Export Plug-In . SVG Version: 6.00 Build 0)  -->
<!DOCTYPE svg PUBLIC "-//W3C//DTD SVG 1.1//EN" "http://www.w3.org/Graphics/SVG/1.1/DTD/svg11.dtd">
<svg version="1.1" id="Capa_1" xmlns="http://www.w3.org/2000/svg" xmlns:xlink="http://www.w3.org/1999/xlink" x="0px" y="0px"
	 width="496px" height="496px" viewBox="0 0 496 496" style="enable-background:new 0 0 496 496;"
	 xml:space="preserve">
<g>
<path d="M120.004,376h-16V232h288v144h-16v16h32V216h-56v-0.808c18.232-3.72,32-19.872,32-39.192
        c0-13.128-6.448-24.704-16.248-32h0.248V96c0-20.032-14.8-36.664-34.032-39.552C321.932,22.944,289.716,0,253.764,0h-5.76
        c-66.168,0-120,53.832-120,120v24h0.248c-9.8,7.296-16.248,18.872-16.248,32c0,19.312,13.768,35.472,32,39.192V216h-56v176h32
        V376z M336.012,216H160.004v-64h31.432c35.208,0,68.496-12.496,94.8-35.408l2.448,4.088
        c10.208,17.016,27.872,28.328,47.328,30.792V216z M368.004,176.008c0,10.416-6.712,19.208-16,22.52V153.48
        C361.292,156.792,368.004,165.592,368.004,176.008z M144.004,120c0-57.344,46.656-104,104-104h5.76
        c30.736,0,58.104,20.64,66.552,50.192L321.972,72h6.032c13.232,0,24,10.768,24,24v40.808c-2.584-0.528-5.264-0.808-8-0.808
        c-16.944,0-32.888-9.024-41.608-23.552l-12.808-21.344l-7.248,7.24C258.06,122.624,225.772,136,191.436,136h-39.432
        c-2.736,0-5.416,0.28-8,0.808V120z M128.004,176c0-10.416,6.712-19.216,16-22.528v45.048
        C134.716,195.216,128.004,186.416,128.004,176z"/>
      <path d="M240.004,280h16c4.408,0,8,3.584,8,8h16c0-13.232-10.768-24-24-24v-8h-16v8c-13.232,0-24,10.768-24,24s10.768,24,24,24
        h16c4.408,0,8,3.584,8,8c0,4.416-3.592,8-8,8h-16c-4.408,0-8-3.584-8-8h-16c0,13.232,10.768,24,24,24v8h16v-8
        c13.232,0,24-10.768,24-24s-10.768-24-24-24h-16c-4.408,0-8-3.584-8-8C232.004,283.584,235.596,280,240.004,280z"/>
      <polygon points="152.004,248 120.004,248 120.004,280 136.004,280 136.004,264 152.004,264      "/>
      <polygon points="376.004,280 376.004,248 344.004,248 344.004,264 360.004,264 360.004,280      "/>
      <polygon points="120.004,328 120.004,360 152.004,360 152.004,344 136.004,344 136.004,328      "/>
      <polygon points="344.004,360 376.004,360 376.004,328 360.004,328 360.004,344 344.004,344      "/>
      <path d="M447.812,390.192c-2.376-14.248-8.424-27.936-17.504-39.568l-12.616,9.84c7.44,9.536,12.4,20.728,14.336,32.352
        L446.556,480H397.42l-37.592-93.976C353.508,370.208,338.42,360,321.396,360c-22.824,0-41.392,18.568-41.392,41.568
        c0,5.28,1,10.448,2.96,15.368L308.188,480H187.82l25.224-63.072c1.96-4.912,2.96-10.08,2.96-15.536
        c0-22.824-18.568-41.392-41.392-41.392c-17.024,0-32.112,10.208-38.432,26.024L98.588,480H49.452l14.528-87.176
        c1.936-11.624,6.896-22.816,14.336-32.352l-12.616-9.84c-9.072,11.632-15.128,25.32-17.504,39.568L30.556,496h434.888
        L447.812,390.192z M151.036,391.96c3.88-9.696,13.136-15.96,23.576-15.96c14,0,25.392,11.392,25.392,25.568
        c0,3.232-0.616,6.416-1.816,9.432l-7.832,19.592l-46.752-20.032L151.036,391.96z M170.588,480H115.82l21.84-54.592l46.752,20.032
        L170.588,480z M305.66,430.592l-7.832-19.584c-1.208-3.024-1.824-6.2-1.824-9.616c0-14,11.392-25.392,25.392-25.392
        c10.448,0,19.696,6.264,23.576,15.96l7.44,18.592L305.66,430.592z M325.42,480l-13.824-34.552l46.752-20.04L380.188,480H325.42z"
        />
      <rect x="232.004" y="376" width="32" height="16"/>

</g>
</svg>
