<?xml version="1.0" encoding="iso-8859-1"?>
<!-- Generator: Adobe Illustrator 16.0.0, SVG Export Plug-In . SVG Version: 6.00 Build 0)  -->
<!DOCTYPE svg PUBLIC "-//W3C//DTD SVG 1.1//EN" "http://www.w3.org/Graphics/SVG/1.1/DTD/svg11.dtd">
<svg version="1.1" id="Capa_1" xmlns="http://www.w3.org/2000/svg" xmlns:xlink="http://www.w3.org/1999/xlink" x="0px" y="0px"
	 width="512px" height="512px" viewBox="0 0 512 512" style="enable-background:new 0 0 512 512;"
	 xml:space="preserve">
<g>
        <path d="m400.574219 154.328125c-3.414063-1.664063-7.058594-3.292969-10.820313-4.898437 21.816406-42.308594 11.59375-94.074219-24.664062-124.921876-36.257813-30.84375-88.992188-32.632812-127.257813-4.320312-38.269531 28.316406-51.976562 79.269531-33.082031 122.964844-5.433594 2.054687-10.765625 4.332031-16.015625 6.773437-20.941406-19.15625-53.785156-21.554687-67.695313-21.632812-8.410156-.042969-15.605468 6.03125-16.972656 14.328125-1.257812 8.039062-1.765625 16.179687-1.511718 24.3125-6.847657.378906-13.660157 1.234375-20.394532 2.558594-8.273437 1.609374-14.148437 8.992187-13.855468 17.417968.351562 16.710938 4.695312 33.09375 12.664062 47.785156-.972656 1.085938-1.957031 2.160157-2.921875 3.242188-5.449219 6.078125-11.089844 12.359375-16.84375 18.167969-11.03125 8.457031-24.363281 13.375-38.246094 14.105469-7.269531.988281-13.808593 4.945312-18.054687 10.925781-4.25 5.984375-5.832032 13.457031-4.371094 20.648437l13.875 69.804688c1.050781 5.886718 6.691406 10.546875 16.742188 17.066406l1.195312.785156c7.546875 4.875 15.664062 8.800782 24.175781 11.679688 5.367188 1.914062 10.605469 4.175781 15.683594 6.769531 11.683594 6.316406 21.824219 15.148437 29.6875 25.855469 1.417969 1.988281 2.925781 3.890625 4.589844 5.828125 15.082031 15.714843 34.445312 26.652343 55.691406 31.453125v15.667968c0 14.136719 11.460937 25.597657 25.597656 25.597657h59.734375c14.136719 0 25.601563-11.460938 25.601563-25.597657v-1.085937c7.140625.332031 14.273437.667969 21.476562.90625 3.910157.136719 7.800781.195313 11.648438.195313 6.144531 0 12.140625-.222657 18.074219-.554688v.539062c0 14.136719 11.460937 25.597657 25.597656 25.597657h59.734375c14.140625 0 25.601562-11.460938 25.601562-25.597657v-33.050781c45.222657-27.472656 73.964844-75.503906 76.796875-128.339843 3.285156-69.625-40.472656-136.75-111.460937-170.976563zm-101.871094-136.96875c39.792969-.136719 74.378906 27.289063 83.308594 66.066406 8.925781 38.777344-10.179688 78.570313-46.027344 95.847657-27.539063-5.949219-55.8125-7.730469-83.882813-5.292969-31.636718-20.585938-45.957031-59.535157-35.191406-95.714844 10.761719-36.175781 44.046875-60.960937 81.792969-60.90625zm-177.714844 128c17.890625-.371094 35.539063 4.175781 51.019531 13.152344-8.140624 4.625-16.355468 9.957031-24.523437 15.726562-8.800781-3.984375-18.234375-6.375-27.871094-7.066406-.28125-7.296875.179688-14.605469 1.375-21.8125zm-35.515625 40.859375c8.503906-1.6875 17.160156-2.507812 25.832032-2.449219.152343 0 .28125.078125.425781.078125s.527343 0 .792969-.054687c16.214843-.875 31.941406 5.726562 42.667968 17.921875 7.121094 7.394531 9.136719 18.328125 5.117188 27.777344-6.964844 11.246093-19.207032 18.140624-32.433594 18.269531-19.03125 0-40.441406-19.261719-42.496094-61.542969zm409.496094 138.273438c-2.296875 43.585937-24.480469 83.699218-60.175781 108.816406-.9375-3.707032-4.261719-6.316406-8.089844-6.347656-4.710937 0-8.53125 3.820312-8.53125 8.53125v51.203124c0 4.710938-3.820313 8.53125-8.535156 8.53125h-59.734375c-4.710938 0-8.53125-3.820312-8.53125-8.53125v-25.601562c0-4.710938-3.820313-8.53125-8.535156-8.53125-4.710938 0-8.53125 3.820312-8.53125 8.53125v7.894531c-9.457032.5625-19.167969.851563-29.160157.46875-7.390625-.246093-14.710937-.582031-22.039062-.921875v-7.441406c0-4.710938-3.824219-8.53125-8.535157-8.53125-4.714843 0-8.535156 3.820312-8.535156 8.53125v25.601562c0 4.710938-3.820312 8.53125-8.53125 8.53125h-59.734375c-4.710937 0-8.53125-3.820312-8.53125-8.53125v-42.667968c0-4.710938-3.820312-8.535156-8.535156-8.535156-4.710937 0-8.53125 3.824218-8.53125 8.535156v9.191406c-16.324219-4.035156-31.152344-12.644531-42.753906-24.816406-1.296875-1.511719-2.507813-3.027344-3.710938-4.710938-9.386719-12.789062-21.496093-23.332031-35.457031-30.863281-5.710938-2.945313-11.609375-5.507813-17.65625-7.679687-7.242188-2.425782-14.164062-5.722657-20.617188-9.8125l-1.542968-1.015626c-3.398438-2.015624-6.585938-4.371093-9.507813-7.03125l-13.652343-68.898437c-.535157-2.59375.039062-5.292969 1.589843-7.441406 1.484375-2.113281 3.785157-3.507813 6.347657-3.851563 15.359374-2.019531 36.179687-6.960937 48.128906-19.003906 6.046875-6.117188 11.835937-12.558594 17.414062-18.769531l.710938-.796875c9.449218 10.113281 22.574218 15.988281 36.410156 16.300781 19.714844-.097656 37.890625-10.660156 47.734375-27.742187 6.957031-15.21875 4.304687-33.109376-6.773437-45.652344-1.882813-2.46875-3.976563-4.769532-6.257813-6.878906 6.207031-4.191407 12.410156-8.15625 18.554687-11.621094 10.226563-5.6875 20.902344-10.539063 31.914063-14.507813 4.332031 6.632813 9.414063 12.742188 15.144531 18.210938-9.625 1.441406-15.71875 2.804687-16.742187 3.035156-4.59375 1.0625-7.460938 5.644531-6.398438 10.242187 1.058594 4.59375 5.644531 7.460938 10.238281 6.398438 1.066407-.253906 107.929688-24.0625 172.160157 24.109375 3.769531 2.824219 9.121093 2.0625 11.949219-1.707031 2.828124-3.773438 2.0625-9.121094-1.707032-11.949219-12.085937-8.917969-25.421875-15.996094-39.578125-21.007813 8.5-6.066406 16.015625-13.40625 22.269531-21.769531 4.492188 1.871094 8.773438 3.738281 12.742188 5.667969 64.84375 31.300781 104.824219 92.066406 101.84375 154.835938zm0 0"/><path d="m273.105469 130.1875c0-4.710938-3.824219-8.53125-8.535157-8.53125-4.714843 0-8.535156 3.820312-8.535156 8.53125 0 18.929688 19.140625 34.332031 42.667969 34.332031s42.667969-15.363281 42.667969-34.332031c0-16.570312-14.6875-30.4375-34.132813-33.621094v-34.132812c9.8125 2.441406 17.066407 8.824218 17.066407 16.164062 0 4.710938 3.820312 8.53125 8.53125 8.53125 4.714843 0 8.535156-3.820312 8.535156-8.53125 0-16.582031-14.6875-30.441406-34.132813-33.632812v-2.003906c0-4.714844-3.820312-8.535157-8.535156-8.535157-4.710937 0-8.53125 3.820313-8.53125 8.535157v2.023437c-19.449219 3.191406-34.136719 17.066406-34.136719 33.628906s14.6875 30.4375 34.136719 33.628907v34.132812c-9.816406-2.464844-17.066406-8.847656-17.066406-16.1875zm51.199219 0c0 7.339844-7.253907 13.722656-17.066407 16.164062v-32.316406c9.8125 2.433594 17.066407 8.816406 17.066407 16.152344zm-51.199219-51.574219c0-7.339843 7.25-13.722656 17.066406-16.164062v32.324219c-9.816406-2.4375-17.066406-8.820313-17.066406-16.160157zm0 0"/>

</g>
</svg>
