<?xml version="1.0" encoding="iso-8859-1"?>
<!-- Generator: Adobe Illustrator 16.0.0, SVG Export Plug-In . SVG Version: 6.00 Build 0)  -->
<!DOCTYPE svg PUBLIC "-//W3C//DTD SVG 1.1//EN" "http://www.w3.org/Graphics/SVG/1.1/DTD/svg11.dtd">
<svg version="1.1" id="Capa_1" xmlns="http://www.w3.org/2000/svg" xmlns:xlink="http://www.w3.org/1999/xlink" x="0px" y="0px"
	 width="20px" height="20px" viewBox="0 0 20 20" style="enable-background:new 0 0 20 20;"
	 xml:space="preserve">
<g id="Hamburger" transform="translate(-13.000000, -444.000000)">
        <path d="M31.8688146,455.303363 C31.8688146,455.381669 31.805604,455.444879 31.7272985,455.444879 L30.8385773,455.444879 C30.2979858,455.444879 29.8121138,455.79867 29.6319166,456.326053 C29.5470069,456.571348 29.4498325,456.810982 29.3356762,457.042125 C29.0894382,457.545922 29.1818954,458.141233 29.5677626,458.525213 L30.1923204,459.145997 C30.2262843,459.179961 30.2338318,459.218642 30.2338318,459.246002 C30.2338318,459.273362 30.2272277,459.312986 30.1932638,459.34695 L28.3469503,461.19232 C28.312043,461.227228 28.2724185,461.234775 28.2460022,461.234775 C28.2195858,461.234775 28.1799613,461.227228 28.1459975,461.19232 L27.52427,460.567763 C27.1412331,460.181895 26.5449785,460.090382 26.0402377,460.33662 C25.8109817,460.449833 25.5722911,460.54795 25.3269966,460.630973 C24.7996132,460.812114 24.4448795,461.297986 24.4448795,461.839521 L24.4448795,462.727298 C24.4448795,462.805604 24.3807255,462.868815 24.3024199,462.868815 L21.6975801,462.868815 C21.6192745,462.868815 21.5551205,462.805604 21.5551205,462.727298 L21.5551205,461.839521 C21.5551205,461.297986 21.2003868,460.812114 20.67206,460.630973 C20.4277089,460.54795 20.1890183,460.449833 19.9588188,460.33662 C19.7710741,460.244162 19.5701212,460.199821 19.3719987,460.199821 C19.0399075,460.199821 18.7163074,460.326242 18.47573,460.567763 L17.854946,461.19232 C17.8200387,461.227228 17.7804142,461.234775 17.7539978,461.234775 C17.7275815,461.234775 17.687957,461.227228 17.6539931,461.193264 L15.808623,459.347894 C15.7727723,459.312986 15.7671117,459.273362 15.7671117,459.246002 C15.7671117,459.218642 15.7737157,459.179961 15.808623,459.145997 L16.4341243,458.525213 C16.8181046,458.141233 16.9115053,457.545922 16.6643238,457.042125 C16.5511109,456.810982 16.4529931,456.571348 16.3680834,456.326997 C16.1878862,455.799613 15.7029577,455.444879 15.1614227,455.444879 L14.273645,455.444879 C14.1953394,455.444879 14.1311854,455.381669 14.1311854,455.303363 L14.1311854,452.69758 C14.1311854,452.620218 14.1953394,452.556064 14.273645,452.556064 L15.1614227,452.556064 C15.7029577,452.556064 16.1878862,452.20133 16.3680834,451.67489 C16.4529931,451.429596 16.5511109,451.189962 16.6643238,450.959762 C16.9115053,450.455021 16.8181046,449.85971 16.4331808,449.476673 L15.808623,448.854946 C15.7737157,448.820982 15.7671117,448.782301 15.7671117,448.755885 C15.7671117,448.728525 15.7727723,448.6889 15.8076796,448.654937 L17.6539931,446.808623 C17.687957,446.773716 17.7275815,446.767112 17.7539978,446.767112 C17.7804142,446.767112 17.8200387,446.773716 17.854946,446.808623 L18.4766734,447.434124 C18.8597104,447.819048 19.454078,447.910562 19.9597623,447.664324 C20.1890183,447.551111 20.4277089,447.452993 20.6730034,447.36997 C21.2003868,447.18883 21.5551205,446.703901 21.5551205,446.162366 L21.5551205,445.273645 C21.5551205,445.196283 21.6192745,445.132129 21.6975801,445.132129 L24.3024199,445.132129 C24.3807255,445.132129 24.4448795,445.196283 24.4448795,445.273645 L24.4448795,446.162366 C24.4448795,446.703901 24.7996132,447.18883 25.32794,447.36997 C25.5722911,447.452993 25.8109817,447.551111 26.0411812,447.664324 C26.5440351,447.912449 27.1402896,447.818105 27.5252135,447.433181 L28.1459975,446.809566 C28.1799613,446.773716 28.2195858,446.767112 28.2460022,446.767112 C28.2724185,446.767112 28.312043,446.773716 28.3469503,446.808623 L30.1923204,448.653993 C30.2272277,448.6889 30.2338318,448.728525 30.2338318,448.755885 C30.2338318,448.782301 30.2262843,448.820982 30.1923204,448.855889 L29.5668192,449.476673 C29.1818954,449.85971 29.0894382,450.455021 29.3356762,450.959762 C29.4498325,451.189962 29.5470069,451.429596 29.6319166,451.673947 C29.8121138,452.20133 30.2970423,452.556064 30.8385773,452.556064 L31.7272985,452.556064 C31.805604,452.556064 31.8688146,452.620218 31.8688146,452.69758 L31.8688146,455.303363 Z M31.7272985,451.423935 L30.8385773,451.423935 C30.7678192,451.423935 30.7215906,451.363555 30.7027218,451.306005 C30.6027171,451.016369 30.4866739,450.733336 30.3536488,450.460682 C30.3272324,450.408793 30.3159111,450.329544 30.36497,450.278598 L30.9895278,449.658757 C31.2310486,449.419124 31.3650172,449.099297 31.3659607,448.758715 C31.3669041,448.417189 31.2348224,448.09642 30.9923581,447.853955 L29.1460446,446.006698 C28.9054672,445.767064 28.5865843,445.634983 28.2460022,445.634983 L28.2441153,445.634983 C27.9035332,445.634983 27.5837068,445.768951 27.342186,446.010472 L26.7223454,446.63503 C26.6713996,446.685976 26.5949809,446.675598 26.5402613,446.648238 C26.2666635,446.51427 25.9836313,446.397283 25.693995,446.298222 C25.6392754,446.280296 25.5760649,446.233124 25.5760649,446.162366 L25.5760649,445.273645 C25.5760649,444.571725 25.0052833,444 24.3024199,444 L21.6975801,444 C20.9956602,444 20.4239351,444.571725 20.4239351,445.273645 L20.4239351,446.162366 C20.4239351,446.233124 20.3607246,446.280296 20.3069484,446.298222 C20.0163687,446.397283 19.7342799,446.51427 19.4616255,446.648238 C19.4040757,446.674654 19.3267135,446.684089 19.278598,446.63503 L18.657814,446.010472 C18.4162932,445.768951 18.0964668,445.634983 17.7558847,445.634983 L17.7539978,445.634983 C17.4143592,445.634983 17.0945328,445.767064 16.8539554,446.007642 L15.0066984,447.854899 C14.7651776,448.09642 14.6330959,448.417189 14.6340393,448.758715 C14.6349828,449.099297 14.7689514,449.419124 15.0104722,449.657814 L15.6340865,450.278598 C15.6850323,450.329544 15.6727676,450.408793 15.6472947,450.460682 C15.5133261,450.733336 15.3972829,451.016369 15.2982216,451.306948 C15.2784094,451.363555 15.2321808,451.423935 15.1614227,451.423935 L14.273645,451.423935 C13.5707816,451.423935 13,451.99566 13,452.69758 L13,455.303363 C13,456.006227 13.5707816,456.577008 14.273645,456.577008 L15.1614227,456.577008 C15.2321808,456.577008 15.2784094,456.637389 15.2982216,456.694938 C15.3972829,456.985518 15.5133261,457.26855 15.6472947,457.540261 C15.6727676,457.593094 15.6850323,457.672343 15.63503,457.722345 L15.0104722,458.343129 C14.7689514,458.582763 14.6349828,458.901646 14.6340393,459.242228 C14.6330959,459.583754 14.7651776,459.904524 15.0076419,460.146988 L16.8539554,461.994245 C17.0945328,462.233879 17.4143592,462.365961 17.7539978,462.365961 L17.7558847,462.365961 C18.0964668,462.365961 18.4162932,462.231992 18.657814,461.990471 L19.2776546,461.365913 C19.3295438,461.315911 19.406906,461.326289 19.4606821,461.353649 C19.7342799,461.487617 20.0163687,461.603661 20.306005,461.702722 C20.3607246,461.721591 20.4239351,461.768763 20.4239351,461.839521 L20.4239351,462.727298 C20.4239351,463.430162 20.9956602,464.000943 21.6975801,464.000943 L24.3024199,464.000943 C25.0052833,464.000943 25.5760649,463.430162 25.5760649,462.727298 L25.5760649,461.839521 C25.5760649,461.768763 25.6392754,461.721591 25.6930516,461.702722 C25.9836313,461.603661 26.2666635,461.487617 26.5393179,461.353649 C26.5949809,461.325346 26.672343,461.315911 26.721402,461.365913 L27.342186,461.990471 C27.5837068,462.231992 27.9035332,462.365961 28.2441153,462.365961 L28.2460022,462.365961 C28.5865843,462.365961 28.9054672,462.233879 29.1460446,461.993302 L30.9933016,460.146045 C31.2348224,459.904524 31.3669041,459.583754 31.3659607,459.242228 C31.3650172,458.901646 31.2310486,458.582763 30.9895278,458.343129 L30.3659135,457.722345 C30.3159111,457.672343 30.3272324,457.593094 30.3536488,457.540261 C30.4866739,457.26855 30.6027171,456.985518 30.7027218,456.694938 C30.7215906,456.637389 30.7678192,456.577008 30.8385773,456.577008 L31.7272985,456.577008 C32.4292184,456.577008 33,456.006227 33,455.303363 L33,452.69758 C33,451.99566 32.4292184,451.423935 31.7272985,451.423935 Z M23.0004717,456.73645 C21.49191,456.73645 20.2635502,455.509033 20.2635502,454.000472 C20.2635502,452.49191 21.49191,451.264494 23.0004717,451.264494 C24.50809,451.264494 25.7364498,452.49191 25.7364498,454.000472 C25.7364498,455.509033 24.50809,456.73645 23.0004717,456.73645 Z M23.0004717,450.132365 C20.8673522,450.132365 19.1323647,451.867352 19.1323647,454.000472 C19.1323647,456.133591 20.8673522,457.868579 23.0004717,457.868579 C25.1326478,457.868579 26.8676353,456.133591 26.8676353,454.000472 C26.8676353,451.867352 25.1326478,450.132365 23.0004717,450.132365 Z" id="Settings" />
      </g>
</svg>
