<?xml version="1.0" encoding="iso-8859-1"?>
<!-- Generator: Adobe Illustrator 16.0.0, SVG Export Plug-In . SVG Version: 6.00 Build 0)  -->
<!DOCTYPE svg PUBLIC "-//W3C//DTD SVG 1.1//EN" "http://www.w3.org/Graphics/SVG/1.1/DTD/svg11.dtd">
<svg version="1.1" id="Capa_1" xmlns="http://www.w3.org/2000/svg" xmlns:xlink="http://www.w3.org/1999/xlink" x="0px" y="0px"
	 width="512px" height="512px" viewBox="0 0 512 512" style="enable-background:new 0 0 512 512;"
	 xml:space="preserve">
<g>
        <g>
      <path d="M454.587,394.943c-0.04-0.081-0.078-0.165-0.122-0.247c-7.179-14.599-19.727-22.727-20.414-23.164
        c-1.276-0.809-2.751-1.248-4.262-1.268l-92.08-1.191L186.517,305.92c-3.636-1.515-7.841-0.216-9.979,3.094
        c-0.135,0.207-9.509,14.433-25.589,23.347c-0.126,0.063-0.249,0.131-0.37,0.201c-7.285,3.976-15.92,6.85-25.685,6.85
        l-0.651-0.004c-30.859-0.398-41.653-23.685-42.076-24.629c-1.275-2.946-4.161-4.867-7.37-4.909l-19.927-0.258
        c-3.391-0.093-6.482,2.036-7.707,5.218c-0.279,0.723-25.165,65.496-40.838,118.099c-0.012,0.036-0.021,0.072-0.032,0.108
        c-1.802,6.051-3.483,11.942-4.99,17.553c-2.887,10.757-0.958,20.947,5.577,29.467c20.664,26.941,78.7,29.034,95.995,29.034
        c11.438,0,49.541-0.968,63.44-13.241c0.081-0.067,0.162-0.136,0.241-0.205c0.049-0.044,0.103-0.085,0.151-0.129
        c5.229-4.853,11.439-7.212,18.989-7.212c11.242,0,21.248,5.403,22.154,5.906c22.437,13.965,53.892,16.901,76.351,16.901
        c51.16-0.001,121.308-16.069,154.43-51.346c15.633-16.648,22.499-33.479,20.41-50.022
        C458.349,404.254,456.708,399.314,454.587,394.943z M186.108,323.407l9.725,4.062l-2,2.63c-2.723,3.581-2.028,8.691,1.553,11.415
        c1.474,1.121,3.206,1.662,4.926,1.662c2.458,0,4.888-1.108,6.49-3.215l4.566-6.003l15.825,6.61l-1.848,2.431
        c-2.723,3.581-2.028,8.691,1.554,11.414c1.474,1.121,3.206,1.662,4.924,1.662c2.458,0,4.888-1.109,6.49-3.216l4.412-5.802
        l15.825,6.61l-1.693,2.227c-2.724,3.581-2.029,8.691,1.552,11.415c1.474,1.121,3.207,1.662,4.926,1.662
        c2.458,0,4.888-1.108,6.491-3.215l4.26-5.6l15.824,6.609l-1.542,2.028c-2.723,3.581-2.027,8.691,1.555,11.415
        c1.473,1.12,3.205,1.661,4.923,1.661c2.459,0,4.889-1.109,6.492-3.216l4.106-5.399l19.211,8.024
        c-8.705,10.94-25.331,9.812-29.382,9.354l-123.733-52.62C178.044,332.719,182.956,327.299,186.108,323.407z M153.485,485.051
        c-7.2,3.983-25.856,7.75-50.61,7.75c-39.289-0.001-72.672-9.106-83.067-22.659c-3.479-4.536-4.359-9.407-2.77-15.328
        c0.916-3.411,1.899-6.93,2.934-10.528l111.436,12.077C135.256,457.334,155.059,463.417,153.485,485.051z M206.501,475.864
        c-5.475-1.963-12.815-3.851-20.802-3.851c-5.879,0.001-11.36,0.987-16.408,2.941c-3.658-21.722-23.016-32.019-34.743-34.592
        c-0.287-0.063-0.576-0.111-0.868-0.141L24.721,428.415c12.73-41.159,29.838-87.104,35.633-102.437l9.475,0.123
        c4.676,7.596,16.001,21.917,37.204,27.394c0.769,0.821,1.715,1.5,2.822,1.958l45.05,18.662c1.02,0.424,2.076,0.622,3.114,0.622
        c3.196,0,6.23-1.893,7.529-5.031c1.721-4.155-0.252-8.921-4.409-10.643l-15.836-6.56c3.388-1.079,6.601-2.382,9.636-3.85
        l98.188,41.758h-16.313l-50.706-21.004c-4.155-1.725-8.92,0.251-10.643,4.409c-1.721,4.155,0.252,8.921,4.409,10.643
        l52.203,21.625c0.988,0.409,2.047,0.62,3.117,0.62h57.349c2.244,0.323,4.811,0.526,7.616,0.526
        c13.584,0,32.211-4.622,41.176-21.815l85.674,1.109c2.587,2.014,7.619,6.425,11.373,12.695
        c-7.56,17.809-31.685,29.411-59.801,37.051c-3.443-12.863-14.06-24.399-31.178-33.675c-3.957-2.143-8.9-0.674-11.043,3.281
        c-2.144,3.956-0.674,8.898,3.28,11.043c9.233,5.005,20.143,12.879,23.116,23.174c-34.316,7.37-70.93,9.836-89.282,11.07
        c-3.927,0.264-7.279,0.49-9.93,0.704C236.66,454.035,215.118,468.98,206.501,475.864z M426.755,448.613
        c-25.137,26.773-85.09,46.206-142.554,46.207c-24.837,0-46.161-3.842-61.157-10.898c9.187-6.226,24.29-14.404,41.81-15.818
        c2.594-0.208,5.872-0.43,9.713-0.688c21.619-1.454,61.861-4.161,98.499-12.872c32.48-7.722,55.691-18.733,69.391-32.864
        C440.732,430.291,435.492,439.309,426.755,448.613z"/>
      <path d="M510.007,271.135c-0.685-2.334-2.379-4.24-4.617-5.196l-77.603-33.141L356.325,86.963
        c-1.729-3.526-5.746-5.308-9.526-4.256c-0.081,0.023-8.247,2.268-19.266,2.268c-11.267,0-27.373-2.406-40.116-13.864
        c-22.948-20.637-15.718-45.264-15.414-46.253c0.983-3.055,0.079-6.404-2.308-8.551L254.876,2.979
        c-2.535-2.279-6.22-2.74-9.235-1.155c-0.686,0.361-62.089,32.678-108.543,61.914c-0.034,0.02-0.066,0.042-0.1,0.063
        c-5.341,3.363-10.489,6.686-15.318,9.913c-13.936,9.312-18.54,24.563-12.965,42.941c8.422,27.758,36.643,55.296,48.387,65.848
        c18.404,16.537,43.658,34.164,59.036,34.003c0.039,0,0.077,0.007,0.115,0.007c0.018,0,0.037-0.004,0.057-0.004
        c0.056-0.001,0.117,0.003,0.174,0.001c17.417-0.551,26.781,14.995,30.247,22.406c0.125,0.328,0.269,0.644,0.433,0.95
        c0.634,1.429,1.004,2.441,1.118,2.765c17.992,59.246,128.027,98.533,193.008,98.528c4.91,0,9.626-0.217,14.017-0.646
        c22.728-2.22,38.984-10.353,48.315-24.173c3.103-4.595,5.125-9.403,6.41-14.099c0.022-0.074,0.044-0.148,0.062-0.223
        C514.319,286.305,510.236,271.917,510.007,271.135z M327.534,101.267c6.828,0,12.74-0.717,16.953-1.436l4.644,9.479l-3.238,0.66
        c-4.409,0.898-7.253,5.201-6.354,9.61c0.787,3.859,4.183,6.52,7.973,6.52c0.54,0,1.087-0.054,1.637-0.166l7.388-1.506
        l7.545,15.399l-2.989,0.609c-4.409,0.898-7.253,5.2-6.355,9.609c0.787,3.86,4.182,6.521,7.973,6.521
        c0.539,0,1.087-0.054,1.636-0.166l7.142-1.456l7.546,15.4l-2.741,0.559c-4.409,0.898-7.254,5.2-6.355,9.609
        c0.787,3.86,4.182,6.521,7.973,6.521c0.539,0,1.087-0.054,1.636-0.166l6.895-1.405l7.545,15.399l-2.492,0.507
        c-4.409,0.898-7.254,5.199-6.357,9.609c0.787,3.86,4.183,6.522,7.974,6.522c0.539,0,1.086-0.054,1.635-0.165l6.648-1.354
        l9.161,18.695c-5.748,1.042-11.148-0.406-15.687-2.675c-0.424-0.278-0.866-0.507-1.321-0.697
        c-5.647-3.124-9.771-7.325-11.254-8.957l-58.396-121.148C325.102,101.242,326.313,101.267,327.534,101.267z M304.387,98.233
        l46.361,96.174l-12.271-10.753l-43.878-88.879C297.731,96.14,300.997,97.295,304.387,98.233z M213.435,199.922
        c-8.475-1.842-25.994-12.059-45.443-29.535c-22.339-20.073-38.67-41.926-43.686-58.459c-4.606-15.183,1.462-21.349,6.427-24.667
        c2.937-1.963,5.995-3.962,9.145-5.986l75.869,82.534C217.602,166.485,229.045,184.492,213.435,199.922z M231.983,202.732
        c11.551-18.746,3.779-39.239-3.344-48.9c-0.175-0.236-0.362-0.463-0.559-0.678l-74.171-80.687
        c36.699-22.567,79.845-45.85,94.308-53.564l7.047,6.336c-1.49,8.796-2.411,27.029,9.927,45.123
        c0.037,1.124,0.301,2.259,0.831,3.333l58.561,118.625c0.475,0.959,1.132,1.816,1.937,2.52l43.095,37.759
        c3.605,4.216,9.263,9.221,16.228,12.998c4.098,3.451,32.011,27.819,26.046,45.495c-3.321-1.01-6.698-2.092-10.141-3.263
        c-37.37-12.712-71.423-31.242-83.668-40.339c-21.638-16.073-47.671-19.031-58.7-19.537
        C254.705,219.501,246.009,207.808,231.983,202.732z M453.724,324.299c-3.867,0.378-8.05,0.569-12.434,0.569
        c-31.736,0.002-72.991-9.868-107.668-25.758c-33.681-15.434-57.521-34.839-66.947-54.174
        c11.014,1.391,27.658,5.208,41.691,15.634c13.096,9.729,49.099,29.406,88.136,42.684c5.299,1.803,10.904,3.567,16.696,5.198
        c0.02,0.007,0.039,0.01,0.059,0.016c16.923,4.763,35.456,8.374,52.776,8.373c5.246,0,10.375-0.341,15.319-1.072
        C474.526,320.303,465.295,323.168,453.724,324.299z M495.016,294.85c-14.758,7.443-38.051,7.581-67.314,0.56
        c3.041-9.691,1.954-22.955-10.454-40.109c-1.152-1.593-2.342-3.132-3.542-4.608c2.747-0.517,5.537-1.385,8.346-2.626
        l73.042,31.193C495.66,282.81,496.159,288.622,495.016,294.85z"/>
    </g>

      </g>
</svg>
