<?xml version="1.0" encoding="iso-8859-1"?>
<!-- Generator: Adobe Illustrator 16.0.0, SVG Export Plug-In . SVG Version: 6.00 Build 0)  -->
<!DOCTYPE svg PUBLIC "-//W3C//DTD SVG 1.1//EN" "http://www.w3.org/Graphics/SVG/1.1/DTD/svg11.dtd">
<svg version="1.1" id="Capa_1" xmlns="http://www.w3.org/2000/svg" xmlns:xlink="http://www.w3.org/1999/xlink" x="0px" y="0px"
	 width="489px" height="489px" viewBox="0 0 489 489" style="enable-background:new 0 0 489 489;"
	 xml:space="preserve">
<g>
          <g>
    <path d="M477.408,360.282c-3.324-7.083-9.478-12.439-16.952-14.754c2.321-4.099,3.556-8.723,3.588-13.434
      c-0.019-15.456-12.544-27.981-28-28h-52.883c22.103-21.616,22.499-57.057,0.883-79.16s-57.057-22.499-79.16-0.883
      c-8.002,7.826-13.475,17.87-15.711,28.837c-9.123-8.267-21.009-12.823-33.321-12.77l-10.388-0.001
      c6.054-11.634,3.192-25.913-6.877-34.315L118.509,105.735c-4.896-4.016-10.646-6.859-16.81-8.312
      c22.882-20.801,24.569-56.213,3.767-79.095C84.666-4.553,49.253-6.24,26.372,14.561C3.49,35.362,1.803,70.774,22.604,93.656
      c2.429,2.672,5.112,5.103,8.009,7.259c-13.808,7.071-22.515,21.256-22.569,36.769v102.41c-4.418,0.001-7.999,3.582-8,8v224
      c0,4.418,3.582,8,8,8h448c4.418,0,8-3.582,8-8v-74.809C477.953,390.758,483.936,374.191,477.408,360.282z M436.044,320.094
      c6.624,0.007,11.993,5.376,12,12c-0.007,6.624-5.376,11.993-12,12h-80c-6.627,0-12-5.373-12-12c0-6.627,5.373-12,12-12H436.044z
       M344.044,224.094c22.091,0,40,17.909,40,40c0,22.091-17.909,40-40,40c-22.091,0-40-17.909-40-40
      C304.07,242.014,321.963,224.12,344.044,224.094z M300.247,298.893c7.914,9.961,18.983,16.932,31.385,19.768
      c-4.241,7.448-4.751,16.451-1.379,24.33l-33.197-33.201L300.247,298.893z M24.044,56.094c0-22.091,17.909-40,40-40
      s40,17.909,40,40s-17.909,40-40,40C41.963,96.069,24.07,78.175,24.044,56.094z M24.044,137.684
      c0.017-14.126,11.464-25.573,25.59-25.59h42.25c5.986,0.004,11.781,2.102,16.383,5.93l120.078,100.066
      c5.081,4.234,5.767,11.785,1.533,16.865c-4.234,5.081-11.785,5.767-16.865,1.533l-79.848-66.539
      c-3.392-2.83-8.435-2.374-11.265,1.018c-1.2,1.439-1.857,3.253-1.857,5.127v64.011l-96-0.009V137.684z M192.371,240.112
      l-56.327-0.006v-46.93L192.371,240.112z M16.044,256.094l64,0.006v87.994h-64V256.094z M448.044,464.094h-432v-104h245.105
      l45.773,38.145c1.437,1.199,3.25,1.856,5.121,1.855h136V464.094z M452.044,384.094H314.939l-45.773-38.145
      c-1.437-1.199-3.25-1.855-5.121-1.855h-168v-87.992l159.809,0.016c16.491-0.632,30.57,11.803,31.98,28.246l-7.465,25.48
      c-0.825,2.806-0.05,5.839,2.02,7.906l40,40c1.5,1.5,3.535,2.343,5.656,2.344h124c6.627,0,12,5.373,12,12
      C464.044,378.722,458.671,384.094,452.044,384.094z"/>
  </g>

      </g>
</svg>
