<?xml version="1.0" encoding="iso-8859-1"?>
<!-- Generator: Adobe Illustrator 16.0.0, SVG Export Plug-In . SVG Version: 6.00 Build 0)  -->
<!DOCTYPE svg PUBLIC "-//W3C//DTD SVG 1.1//EN" "http://www.w3.org/Graphics/SVG/1.1/DTD/svg11.dtd">
<svg version="1.1" id="Capa_1" xmlns="http://www.w3.org/2000/svg" xmlns:xlink="http://www.w3.org/1999/xlink" x="0px" y="0px"
	 width="20px" height="20px" viewBox="0 0 20 20" style="enable-background:new 0 0 20 20;"
	 xml:space="preserve">
<g id="Hamburger" transform="translate(-13.000000, -379.000000)">
        <path d="M28.5123101,390.509998 C28.1906489,390.856185 28.0387796,391.324055 28.0944336,391.794756 L28.6575764,396.509308 C28.6877616,396.760223 28.5321191,396.901716 28.4642024,396.95171 C28.3962857,397.000761 28.2132878,397.10358 27.9850122,396.998875 L23.6751302,395.005708 C23.2459342,394.806674 22.7544812,394.806674 22.324342,395.005708 L18.01446,396.998875 C17.7842978,397.10358 17.6031865,397.000761 17.5352698,396.95171 C17.467353,396.901716 17.3126538,396.760223 17.3418958,396.509308 L17.9059819,391.793813 C17.9606926,391.324055 17.8088232,390.856185 17.4881054,390.509998 L14.2620611,387.027379 C14.0894394,386.841552 14.1318873,386.635915 14.1573561,386.555735 C14.1837682,386.476499 14.2696074,386.285012 14.5176921,386.235961 L19.1765906,385.315312 C19.6406882,385.223813 20.0387556,384.934224 20.2689179,384.522007 L22.5837462,380.375314 C22.7073169,380.155528 22.9157835,380.131945 22.9997361,380.131945 C23.0836887,380.131945 23.2930986,380.155528 23.4166693,380.375314 L25.7314976,384.522007 C25.9616598,384.934224 26.3597273,385.223813 26.8238249,385.315312 L31.4817801,386.236904 C31.7298648,386.285012 31.8166473,386.476499 31.842116,386.555735 C31.8685281,386.635915 31.9109761,386.841552 31.7383544,387.027379 L28.5123101,390.509998 Z M32.5693909,387.797102 C32.9712316,387.36319 33.1014053,386.767975 32.9193507,386.206719 C32.7372962,385.644519 32.2807449,385.240792 31.7015662,385.125711 L27.0426676,384.205062 C26.9058909,384.177707 26.7879799,384.091868 26.7191199,383.970183 L24.4042916,379.82349 C24.1156456,379.307512 23.5902342,379 22.9997361,379 C22.4092379,379 21.8847699,379.307512 21.5961238,379.82349 L19.2812955,383.970183 C19.2124355,384.091868 19.0945245,384.177707 18.9568045,384.205062 L14.2988493,385.125711 C13.7187273,385.240792 13.2631193,385.644519 13.0810647,386.206719 C12.8980669,386.767975 13.0291839,387.36319 13.4310245,387.797102 L16.6589554,391.279721 C16.7532842,391.382539 16.798562,391.521202 16.7815828,391.659866 L16.21844,396.375362 C16.1486367,396.962087 16.3910617,397.520513 16.8702519,397.867643 C17.1532382,398.07328 17.4805591,398.177041 17.8107098,398.177041 C18.0399288,398.177041 18.2710343,398.127047 18.489877,398.026115 L22.7997591,396.032005 C22.9271029,395.973521 23.0723692,395.973521 23.1997131,396.032005 L27.5105384,398.026115 C28.0453826,398.273257 28.6500301,398.214773 29.1292203,397.867643 C29.6084105,397.520513 29.8517788,396.962087 29.7819755,396.375362 L29.2178893,391.660809 C29.2009102,391.521202 29.246188,391.382539 29.3424033,391.279721 L32.5693909,387.797102 Z" id="Star" />
      </g>
</svg>
