<?xml version="1.0" encoding="iso-8859-1"?>
<!-- Generator: Adobe Illustrator 16.0.0, SVG Export Plug-In . SVG Version: 6.00 Build 0)  -->
<!DOCTYPE svg PUBLIC "-//W3C//DTD SVG 1.1//EN" "http://www.w3.org/Graphics/SVG/1.1/DTD/svg11.dtd">
<svg version="1.1" id="Capa_1" xmlns="http://www.w3.org/2000/svg" xmlns:xlink="http://www.w3.org/1999/xlink" x="0px" y="0px"
	 width="512px" height="512px" viewBox="0 0 512 512" style="enable-background:new 0 0 512 512;"
	 xml:space="preserve">
<g>
        <g>
  <g>
    <path d="M420,0H92c-5.522,0-10,4.478-10,10v492c0,5.522,4.478,10,10,10h328c5.522,0,10-4.478,10-10V10C430,4.478,425.522,0,420,0z
       M410,492H102V169.282h308V492z M410,149.282H102V20h308V149.282z"/>
  </g>
</g>
<g>
  <g>
    <path d="M353.332,84.641l20.777-28.789c3.232-4.479,2.222-10.729-2.257-13.961c-4.477-3.231-10.729-2.224-13.96,2.257L341,67.554
      l-16.892-23.406c-3.231-4.48-9.483-5.488-13.96-2.257c-4.479,3.231-5.489,9.482-2.257,13.961l20.777,28.789l-20.777,28.789
      c-3.232,4.478-2.221,10.729,2.257,13.961c1.77,1.277,3.815,1.893,5.843,1.893c3.104,0,6.163-1.44,8.117-4.149L341,101.729
      l16.892,23.405c1.954,2.709,5.014,4.149,8.117,4.149c2.027,0,4.073-0.615,5.843-1.893c4.479-3.231,5.489-9.482,2.257-13.96
      L353.332,84.641z"/>
  </g>
</g>
<g>
  <g>
    <path d="M287.176,115.309l-30-69.282C255.593,42.368,251.986,40,248,40c-3.986,0-7.593,2.368-9.177,6.026l-30,69.282
      c-2.194,5.069,0.135,10.957,5.203,13.151c5.069,2.195,10.957-0.135,13.15-5.203l3.73-8.615h34.186l3.73,8.615
      c1.634,3.773,5.315,6.029,9.182,6.029c1.326,0,2.675-0.266,3.969-0.826C287.041,126.265,289.37,120.377,287.176,115.309z
       M239.568,94.641L248,75.166l8.433,19.475H239.568z"/>
  </g>
</g>
<g>
  <g>
    <path d="M206,40h-60c-5.522,0-10,4.478-10,10s4.478,10,10,10h20v59.282c0,5.522,4.478,10,10,10c5.522,0,10-4.478,10-10V60h20
      c5.522,0,10-4.478,10-10S211.522,40,206,40z"/>
  </g>
</g>
<g>
  <g>
    <path d="M380,189.282H152c-5.522,0-10,4.478-10,10c0,5.522,4.478,10,10,10h228c5.522,0,10-4.478,10-10
      C390,193.76,385.522,189.282,380,189.282z"/>
  </g>
</g>
<g>
  <g>
    <path d="M132,229.279c-5.521,0-10,4.48-10,10c0,5.521,4.479,10,10,10c5.52,0,10-4.479,10-10
      C142,233.759,137.52,229.279,132,229.279z"/>
  </g>
</g>
<g>
  <g>
    <path d="M212,229.279c-5.521,0-10,4.48-10,10c0,5.521,4.479,10,10,10c5.52,0,10-4.479,10-10
      C222,233.759,217.52,229.279,212,229.279z"/>
  </g>
</g>
<g>
  <g>
    <path d="M372,229.279c-5.521,0-10,4.48-10,10c0,5.521,4.479,10,10,10c5.52,0,10-4.479,10-10
      C382,233.759,377.52,229.279,372,229.279z"/>
  </g>
</g>
<g>
  <g>
    <path d="M172,229.279c-5.521,0-10,4.48-10,10c0,5.521,4.479,10,10,10c5.52,0,10-4.479,10-10
      C182,233.759,177.52,229.279,172,229.279z"/>
  </g>
</g>
<g>
  <g>
    <path d="M292,229.279c-5.521,0-10,4.48-10,10c0,5.521,4.479,10,10,10c5.52,0,10-4.479,10-10
      C302,233.759,297.52,229.279,292,229.279z"/>
  </g>
</g>
<g>
  <g>
    <path d="M252,229.279c-5.53,0-10,4.48-10,10c0,5.521,4.47,10,10,10c5.52,0,10-4.479,10-10C262,233.759,257.52,229.279,252,229.279
      z"/>
  </g>
</g>
<g>
  <g>
    <path d="M332,229.279c-5.521,0-10,4.48-10,10c0,5.521,4.479,10,10,10c5.52,0,10-4.479,10-10
      C342,233.759,337.52,229.279,332,229.279z"/>
  </g>
</g>
<g>
  <g>
    <path d="M380,269.282H132c-5.522,0-10,4.478-10,10c0,5.522,4.478,10,10,10h248c5.522,0,10-4.478,10-10
      C390,273.76,385.522,269.282,380,269.282z"/>
  </g>
</g>
<g>
  <g>
    <path d="M236,309.279c-5.521,0-10,4.49-10,10c0,5.521,4.479,10,10,10c5.51,0,10-4.479,10-10
      C246,313.77,241.51,309.279,236,309.279z"/>
  </g>
</g>
<g>
  <g>
    <path d="M196,309.279h-64c-5.51,0-10,4.49-10,10c0,5.521,4.49,10,10,10h64c5.51,0,10-4.479,10-10
      C206,313.769,201.51,309.279,196,309.279z"/>
  </g>
</g>
<g>
  <g>
    <path d="M236,349.279c-5.521,0-10,4.49-10,10c0,5.521,4.479,10,10,10c5.51,0,10-4.479,10-10
      C246,353.77,241.51,349.279,236,349.279z"/>
  </g>
</g>
<g>
  <g>
    <path d="M196,349.279h-64c-5.51,0-10,4.49-10,10c0,5.521,4.49,10,10,10h64c5.51,0,10-4.479,10-10
      C206,353.769,201.51,349.279,196,349.279z"/>
  </g>
</g>
<g>
  <g>
    <path d="M236,422H132c-5.522,0-10,4.478-10,10c0,5.522,4.478,10,10,10h104c5.522,0,10-4.478,10-10
      C246,426.478,241.522,422,236,422z"/>
  </g>
</g>
<g>
  <g>
    <path d="M380,309.279h-64c-5.51,0-10,4.49-10,10c0,5.521,4.49,10,10,10h64c5.51,0,10-4.479,10-10
      C390,313.77,385.51,309.279,380,309.279z"/>
  </g>
</g>
<g>
  <g>
    <path d="M380,349.279h-64c-5.51,0-10,4.49-10,10c0,5.521,4.49,10,10,10h64c5.51,0,10-4.479,10-10
      C390,353.77,385.51,349.279,380,349.279z"/>
  </g>
</g>
<g>
  <g>
    <path d="M350,392c-22.056,0-40,17.944-40,40c0,22.056,17.944,40,40,40c22.056,0,40-17.944,40-40C390,409.944,372.056,392,350,392z
       M350,452c-11.028,0-20-8.972-20-20s8.972-20,20-20s20,8.972,20,20S361.028,452,350,452z"/>
  </g>
</g>

      </g>
</svg>
