<?xml version="1.0" encoding="iso-8859-1"?>
<!-- Generator: Adobe Illustrator 16.0.0, SVG Export Plug-In . SVG Version: 6.00 Build 0)  -->
<!DOCTYPE svg PUBLIC "-//W3C//DTD SVG 1.1//EN" "http://www.w3.org/Graphics/SVG/1.1/DTD/svg11.dtd">
<svg version="1.1" id="Capa_1" xmlns="http://www.w3.org/2000/svg" xmlns:xlink="http://www.w3.org/1999/xlink" x="0px" y="0px"
	 width="512px" height="512px" viewBox="0 0 512 512" style="enable-background:new 0 0 512 512;"
	 xml:space="preserve">
<g>
        <g>
  <g>
    <path d="M365.959,201.593h-18.323c-4.744,0-8.591,3.846-8.591,8.591c0,4.744,3.846,8.591,8.591,8.591h18.323
      c4.744,0,8.591-3.846,8.591-8.591C374.549,205.439,370.703,201.593,365.959,201.593z"/>
  </g>
</g>
<g>
  <g>
    <path d="M368.217,272.564c-3.388-4.339-8.489-6.828-13.994-6.828H157.776c-5.505,0-10.605,2.489-13.994,6.828
      c-3.388,4.34-4.566,9.891-3.23,15.232l4.582,18.328c1.98,7.917,9.063,13.447,17.224,13.447h187.284
      c8.161,0,15.243-5.53,17.224-13.448l4.582-18.327C372.783,282.454,371.605,276.903,368.217,272.564z M354.779,283.63
      l-4.582,18.326c-0.064,0.257-0.292,0.434-0.555,0.434H162.358c-0.263,0-0.493-0.179-0.556-0.433l-4.582-18.327
      c-0.021-0.081-0.068-0.271,0.104-0.491s0.368-0.22,0.451-0.22h196.448c0.084,0,0.279,0,0.451,0.22S354.8,283.548,354.779,283.63z"
      />
  </g>
</g>
<g>
  <g>
    <path d="M485.083,218.774c14.842,0,26.917-12.075,26.917-26.917s-12.075-26.917-26.917-26.917h-9.163
      c-13.383,0-24.513,9.82-26.573,22.631l-22.917-63.023c-5.165-14.207-18.792-23.751-33.908-23.751h-65.337l-4.836-24.177
      c-2.506-12.539-13.608-21.639-26.394-21.639h-79.912c-12.786,0-23.886,9.1-26.394,21.639l-4.835,24.177h-65.337
      c-15.116,0-28.743,9.545-33.908,23.75L62.653,187.57c-2.059-12.81-13.189-22.63-26.572-22.63h-9.163
      C12.075,164.94,0,177.015,0,191.857c0,14.842,12.075,26.917,26.917,26.917h9.163c4.231,0,8.235-0.984,11.801-2.731l-19.64,24.551
      c-6.394,7.992-9.915,18.029-9.915,28.263v170.409c0,9.79,7.964,17.754,17.754,17.754h27.49c9.79,0,17.754-7.964,17.754-17.754
      V402.04h349.351v37.226c0,9.79,7.964,17.754,17.754,17.754h27.49c9.79,0,17.754-7.964,17.754-17.754V268.857
      c0-10.234-3.521-20.272-9.915-28.263l-19.64-24.551c3.566,1.747,7.57,2.731,11.801,2.731H485.083z M36.081,201.593h-9.163
      c-5.369,0-9.736-4.367-9.736-9.736c0-5.369,4.367-9.736,9.736-9.736h9.163c5.369,0,9.736,4.367,9.736,9.736
      C45.817,197.225,41.449,201.593,36.081,201.593z M206.497,79.988c0.907-4.535,4.922-7.827,9.546-7.827h79.912
      c4.625,0,8.64,3.292,9.546,7.827l4.162,20.809H202.335L206.497,79.988z M64.143,439.266c0,0.316-0.257,0.573-0.573,0.573h-27.49
      c-0.316,0-0.573-0.257-0.573-0.573v-42.588c5.5,3.396,11.974,5.362,18.899,5.362h9.736V439.266z M357.369,384.859H154.631V365.96
      c0-0.316,0.257-0.573,0.573-0.573h201.593c0.316,0,0.573,0.257,0.573,0.573V384.859z M476.492,439.266
      c0,0.316-0.257,0.573-0.573,0.573h-27.49c-0.316,0-0.573-0.257-0.573-0.573V402.04h9.736c6.925,0,13.399-1.966,18.899-5.362
      V439.266z M470.344,251.327c3.964,4.957,6.149,11.183,6.149,17.531v97.102c0,10.421-8.478,18.899-18.899,18.899H374.55V365.96
      c0-9.79-7.964-17.754-17.754-17.754H155.204c-9.79,0-17.754,7.964-17.754,17.754v18.899H54.407
      c-10.421,0-18.899-8.478-18.899-18.899v-97.102c0-6.348,2.184-12.574,6.15-17.531l26.041-32.553H310.98
      c4.744,0,8.591-3.846,8.591-8.591c0-4.744-3.846-8.591-8.591-8.591H75.836l25.882-71.175c2.705-7.441,9.843-12.44,17.761-12.44
      h273.044c7.918,0,15.055,5,17.761,12.44l25.882,71.175h-33.551c-4.744,0-8.591,3.846-8.591,8.591c0,4.744,3.846,8.591,8.591,8.591
      h41.688L470.344,251.327z M466.183,191.857c0-5.369,4.367-9.736,9.736-9.736h9.163c5.369,0,9.736,4.367,9.736,9.736
      c0,5.369-4.367,9.736-9.736,9.736h-9.163C470.551,201.593,466.183,197.225,466.183,191.857z"/>
  </g>
</g>
<g>
  <g>
    <path d="M91.06,329.879c-9.79,0-17.754,7.964-17.754,17.754s7.964,17.754,17.754,17.754s17.754-7.964,17.754-17.754
      S100.85,329.879,91.06,329.879z"/>
  </g>
</g>
<g>
  <g>
    <path d="M420.94,329.879c-9.79,0-17.754,7.964-17.754,17.754s7.964,17.754,17.754,17.754c9.79,0,17.754-7.964,17.754-17.754
      S430.729,329.879,420.94,329.879z"/>
  </g>
</g>
<g>
  <g>
    <path d="M86.479,256.573c-17.369,0-31.499,14.13-31.499,31.499s14.13,31.499,31.499,31.499c17.369,0,31.499-14.13,31.499-31.499
      S103.848,256.573,86.479,256.573z M86.479,302.389c-7.895,0-14.318-6.422-14.318-14.318s6.422-14.318,14.318-14.318
      s14.318,6.422,14.318,14.318S94.374,302.389,86.479,302.389z"/>
  </g>
</g>
<g>
  <g>
    <path d="M425.521,256.573c-17.369,0-31.499,14.13-31.499,31.499s14.13,31.499,31.499,31.499c17.369,0,31.499-14.13,31.499-31.499
      S442.89,256.573,425.521,256.573z M425.521,302.389c-7.895,0-14.318-6.422-14.318-14.318s6.422-14.318,14.318-14.318
      c7.895,0,14.318,6.422,14.318,14.318S433.417,302.389,425.521,302.389z"/>
  </g>
</g>

      </g>
</svg>
