<?xml version="1.0" encoding="iso-8859-1"?>
<!-- Generator: Adobe Illustrator 16.0.0, SVG Export Plug-In . SVG Version: 6.00 Build 0)  -->
<!DOCTYPE svg PUBLIC "-//W3C//DTD SVG 1.1//EN" "http://www.w3.org/Graphics/SVG/1.1/DTD/svg11.dtd">
<svg version="1.1" id="Capa_1" xmlns="http://www.w3.org/2000/svg" xmlns:xlink="http://www.w3.org/1999/xlink" x="0px" y="0px"
	 width="462px" height="462px" viewBox="0 0 462 462" style="enable-background:new 0 0 462 462;"
	 xml:space="preserve">
<g>
        <circle cx="67.71" cy="118.255" r="11.241"/>
        <path d="M452.401,292.607c-13.017-13.015-34.195-13.013-47.214,0c-4.89,4.89-9.959,9.535-15.173,13.958
          c-5.97-20.894-11.108-55.487-12.152-83.61c29.595-10.285,53.004-32.419,68.004-64.44c12.027-25.677,14.432-48.629,14.528-49.594
          c0.519-5.187-3.033-9.901-8.161-10.834c-0.706-0.127-17.499-3.037-39.264,5.421c-31.385,12.199-52.025,39.446-64.611,62.813
          c-22.44-7.405-48.815-10.811-83.355-10.462l24.74-42.851c8.165-14.142,8.165-31.026,0-45.168
          c-8.164-14.141-22.787-22.583-39.116-22.583S219.675,53.7,211.51,67.841c-8.165,14.141-8.165,31.026,0,45.168l25.32,43.855
          c-10.423,0.602-21.492,1.462-33.317,2.587c-4.479-9.289-13.726-26.833-27.378-44.805c-25.584-33.678-54.986-53.138-85.256-56.498
          c-15.71-14.744-37.54-25.944-38.514-26.44c-2.995-1.526-6.556-1.445-9.479,0.216c-2.922,1.66-4.815,4.678-5.038,8.032
          l-3.512,52.899L6.27,173.807c-5.262,15.184-0.224,31.045,12.835,40.408c13.058,9.362,29.695,9.043,42.382-0.81l35.396-27.475
          c2.387,24.303,3.777,73.114-13.08,129.944c-9.4-7.049-18.369-14.808-26.828-23.267c-13.018-13.016-34.197-13.016-47.214,0
          c-13.017,13.017-13.017,34.196,0,47.213c59.16,59.16,137.759,91.74,221.32,91.74s162.159-32.581,221.319-91.74
          c6.306-6.306,9.778-14.689,9.778-23.606C462.18,307.297,458.707,298.914,452.401,292.607z M228.83,77.841
          c4.55-7.879,12.697-12.583,21.796-12.583s17.247,4.704,21.796,12.583c4.549,7.88,4.549,17.288,0,25.168l-21.796,37.751
          l-21.795-37.751C224.281,95.129,224.281,85.721,228.83,77.841z M349.597,188.025c4.865,1.913,10.385-0.246,12.661-4.954
          c26.067-53.915,59.794-63.973,76.363-65.428c-4.941,22.622-21.743,74.323-73.552,88.342c-4.397,1.19-7.435,5.202-7.387,9.757
          c0.327,31.292,6.604,78.417,15.498,103.916c-12.918,9.173-26.612,17.017-40.91,23.475c-12.371-14.08-25.482-30.404-29.567-39.069
          c-2.186-4.638-7.531-6.87-12.364-5.168c-10.042,3.534-20.038,5.881-29.713,7.346V175.988
          C299.142,175.292,327.188,179.215,349.597,188.025z M289.005,320.358c6.193,9.711,15.739,21.457,23.61,30.639
          c-25.863,9.063-53.337,13.794-81.532,13.794c-25.106,0-49.639-3.752-72.974-10.97l17.441-32.928
          C193.875,325.898,239.653,335.168,289.005,320.358z M53.673,98.136c0.292-0.844,0.471-1.723,0.53-2.613l2.536-38.195
          c7.212,4.564,15.952,10.746,22.582,17.48c1.718,1.745,4.017,2.799,6.461,2.962c13.648,0.91,26.171,5.908,37.422,13.182
          l-60.109,57.423c-8.112-6.333-16.062-11.597-21.614-15.072L53.673,98.136z M49.222,197.607c-6.71,5.21-13.937,3.599-18.463,0.354
          c-4.528-3.246-8.375-9.576-5.592-17.604l9.569-27.601c11.236,7.367,26.325,18.505,34.862,29.035L49.222,197.607z M114.199,165.348
          c-0.714-3.369-3.112-6.132-6.345-7.316c-3.233-1.183-6.848-0.62-9.569,1.492l-12.91,10.021c-2.17-2.702-4.584-5.362-7.167-7.949
          l60.937-58.214c30.913,28.331,48.769,69.97,49.028,70.585c1.701,4.056,5.847,6.522,10.229,6.082
          c15.243-1.543,29.26-2.654,42.224-3.337v131.416c-37.559,1.497-66.281-8.475-66.674-8.615c-4.682-1.684-9.888,0.335-12.216,4.731
          l-22.671,42.803c-13.165-5.307-25.862-11.763-37.968-19.323C129.227,238.826,114.843,168.382,114.199,165.348z M438.259,325.679
          c-55.382,55.382-128.959,85.882-207.177,85.882c-78.218,0-151.795-30.5-207.178-85.882c-5.218-5.219-5.218-13.71,0-18.929
          c2.61-2.61,6.037-3.914,9.465-3.914c3.427,0,6.855,1.305,9.465,3.914c50.326,50.326,117.181,78.041,188.248,78.041
          s137.921-27.715,188.246-78.041c5.221-5.219,13.714-5.218,18.931,0c2.528,2.528,3.921,5.889,3.921,9.464
          C442.18,319.79,440.787,323.151,438.259,325.679z"/>
      </g>
</svg>
