<?xml version="1.0" encoding="iso-8859-1"?>
<!-- Generator: Adobe Illustrator 16.0.0, SVG Export Plug-In . SVG Version: 6.00 Build 0)  -->
<!DOCTYPE svg PUBLIC "-//W3C//DTD SVG 1.1//EN" "http://www.w3.org/Graphics/SVG/1.1/DTD/svg11.dtd">
<svg version="1.1" id="Capa_1" xmlns="http://www.w3.org/2000/svg" xmlns:xlink="http://www.w3.org/1999/xlink" x="0px" y="0px"
	 width="1024px" height="1024px" viewBox="0 0 1024 1024" style="enable-background:new 0 0 1024 1024;"
	 xml:space="preserve">
<g>
	      <path d="M898.2 215.3v-1.4h-1.4l0.4 0.4c0.4 0.3 0.7 0.6 1 1zM106.1 472.9l250.2-181 205.1 196.5L895.7 190c0.5-0.5 1-1.1 1.5-1.7l0.6 69.2c0.1 13.7 11.3 24.8 25 24.8h0.2c13.8-0.1 24.9-11.4 24.8-25.2l-1.2-153-163.9 0.2c-13.8 0-25 11.2-25 25s11.2 25 25 25l78-0.1-0.1 0.1-299.7 264.5L362.8 227l-286 205.4c-11.2 8.1-13.7 23.7-5.6 34.9s23.7 13.7 34.9 5.6z m790.8-318.6v1.4c-0.3-0.4-0.6-0.7-1-1l-0.4-0.4h1.4zM936.5 704.2H783.8V375.1c0-13.8-11.2-25-25-25s-25 11.2-25 25v329.1H585.4V557.6c0-13.8-11.2-25-25-25s-25 11.2-25 25v146.6h-139c0-0.5 0.1-1 0.1-1.5V400.6c0-13.8-11.2-25-25-25s-25 11.2-25 25v302.1c0 0.5 0 1 0.1 1.5H206.4V493c0-13.8-11.2-25-25-25s-25 11.2-25 25v211.2H85.9c-11 0-19.9 11.2-19.9 25s8.9 25 19.9 25h850.6c11 0 19.9-11.2 19.9-25-0.1-13.8-9-25-19.9-25z" />


</g>
</svg>
