<?xml version="1.0" encoding="iso-8859-1"?>
<!-- Generator: Adobe Illustrator 16.0.0, SVG Export Plug-In . SVG Version: 6.00 Build 0)  -->
<!DOCTYPE svg PUBLIC "-//W3C//DTD SVG 1.1//EN" "http://www.w3.org/Graphics/SVG/1.1/DTD/svg11.dtd">
<svg version="1.1" id="Capa_1" xmlns="http://www.w3.org/2000/svg" xmlns:xlink="http://www.w3.org/1999/xlink" x="0px" y="0px"
	 width="380px" height="380px" viewBox="0 0 380 380" style="enable-background:new 0 0 380 380;"
	 xml:space="preserve">
<g>
        <g>
  <g>
    <path d="M264.48,129.543h-216c-13.255,0-24,10.745-24,24v144c0,13.255,10.745,24,24,24h216c13.255,0,24-10.745,24-24v-144
      C288.48,140.288,277.735,129.543,264.48,129.543z M276.8,297.543c-0.022,6.795-5.525,12.298-12.32,12.32h-216
      c-6.795-0.022-12.298-5.525-12.32-12.32v-144c0.022-6.795,5.525-12.298,12.32-12.32h216c6.795,0.022,12.298,5.525,12.32,12.32
      V297.543z"/>
  </g>
</g>
<g>
  <g>
    <path d="M351.92,105.303h-0.04H195.12l41.6-61.16c1.8-2.64,1.12-6.24-1.52-8.04c-2.64-1.8-6.24-1.12-8.04,1.52l-44.04,64.72
      l-46.08-41.52c-2.559-1.926-6.196-1.413-8.122,1.147c-1.695,2.252-1.525,5.397,0.402,7.453l40,36H28.76
      C12.895,105.467,0.044,118.318,0,134.183v182.64c0.044,15.865,12.895,28.716,28.76,28.76h323.16
      c15.865-0.044,28.716-12.895,28.76-28.76v-182.76C380.636,118.198,367.786,105.347,351.92,105.303z M369.08,316.823
      c-0.022,9.49-7.71,17.178-17.2,17.2H28.76c-9.49-0.022-17.178-7.71-17.2-17.2v-182.76c0.022-9.49,7.71-17.178,17.2-17.2h323.16
      c9.49,0.022,17.178,7.71,17.2,17.2L369.08,316.823z"/>
  </g>
</g>
<g>
  <g>
    <path d="M344.16,152.583l-0.32-0.32c-9.022-9.035-23.661-9.046-32.697-0.023c-0.008,0.008-0.016,0.016-0.023,0.023
      c-9.035,9.022-9.046,23.661-0.023,32.697c0.008,0.008,0.016,0.016,0.023,0.023c9.348,8.73,24.004,8.229,32.734-1.119
      C352.047,175.092,352.18,161.514,344.16,152.583z M335.84,176.823c-4.53,4.527-11.87,4.527-16.4,0
      c-4.183-4.853-3.64-12.177,1.213-16.36c4.352-3.752,10.795-3.752,15.147,0l0.24,0.24c4.2,4.544,4.095,11.584-0.24,16
      L335.84,176.823z"/>
  </g>
</g>
<g>
  <g>
    <path d="M339.76,210.623c-3.255-3.259-7.674-5.087-12.28-5.08c-9.588,0.005-17.356,7.782-17.351,17.369
      c0.005,9.588,7.782,17.356,17.369,17.351c9.588-0.005,17.356-7.782,17.351-17.369C344.847,218.291,343.016,213.877,339.76,210.623
      z M331.56,226.983l-0.08,0.04c-2.255,2.275-5.927,2.291-8.202,0.036s-2.291-5.927-0.036-8.202s5.927-2.291,8.202-0.036
      c1.119,1.109,1.739,2.627,1.716,4.202C333.154,224.499,332.581,225.917,331.56,226.983z"/>
  </g>
</g>

      </g>
</svg>
