<?xml version="1.0" encoding="iso-8859-1"?>
<!-- Generator: Adobe Illustrator 16.0.0, SVG Export Plug-In . SVG Version: 6.00 Build 0)  -->
<!DOCTYPE svg PUBLIC "-//W3C//DTD SVG 1.1//EN" "http://www.w3.org/Graphics/SVG/1.1/DTD/svg11.dtd">
<svg version="1.1" id="Capa_1" xmlns="http://www.w3.org/2000/svg" xmlns:xlink="http://www.w3.org/1999/xlink" x="0px" y="0px"
	 width="642px" height="642px" viewBox="-20 -21 642.69883 642" style="enable-background:new 0 0 642 642;"
	 xml:space="preserve">
<g>
        <path d="m109.902344 170.082031c33.109375 0 59.949218-26.839843 59.949218-59.945312 0-33.113281-26.839843-59.949219-59.949218-59.949219-33.105469 0-59.945313 26.835938-59.945313 59.949219.035157 33.089843 26.851563 59.914062 59.945313 59.945312zm0-99.910156c22.074218 0 39.96875 17.886719 39.96875 39.964844 0 22.070312-17.894532 39.964843-39.96875 39.964843-22.070313 0-39.964844-17.894531-39.964844-39.964843 0-22.078125 17.894531-39.964844 39.964844-39.964844zm0 0"/><path d="m99.914062.230469h19.980469v39.964843h-19.980469zm0 0"/><path d="m25.121094 39.484375 14.132812-14.128906 28.253906 28.257812-14.125 14.132813zm0 0"/><path d="m0 100.144531h39.964844v19.980469h-39.964844zm0 0"/><path d="m25.125 180.78125 28.257812-28.257812 14.132813 14.128906-28.261719 28.261718zm0 0"/><path d="m99.914062 180.074219h19.980469v39.964843h-19.980469zm0 0"/><path d="m152.292969 166.652344 14.128906-14.128906 28.261719 28.257812-14.132813 14.132812zm0 0"/><path d="m179.84375 100.144531h39.964844v19.980469h-39.964844zm0 0"/><path d="m152.292969 53.613281 28.257812-28.257812 14.128907 14.128906-28.257813 28.261719zm0 0"/><path d="m449.609375 483.226562v-53.371093h7.570313l37.027343 37.039062c11.710938 11.703125 30.6875 11.703125 42.394531 0 11.710938-11.707031 11.710938-30.6875 0-42.394531l-42.394531-42.386719c-.589843-.589843-1.222656-1.136719-1.886719-1.648437-5.648437-6.695313-13.96875-10.5625-22.730468-10.554688h-97.386719l69.890625-144.949218c2.636719 5.34375 4.371094 11.082031 5.148438 16.988281 2.566406 13.097656 5.742187 29.394531 23.71875 38.066406 17.972656 8.675781 32.722656 1 44.570312-5.136719 11.308594-5.875 18.132812-8.992187 26.6875-4.875 8.550781 4.121094 10.34375 11.402344 12.785156 23.910156 1.160156 12.21875 6.527344 23.65625 15.179688 32.359376-.242188.613281-.421875 1.25-.679688 1.859374l9.179688 3.824219 9.222656 3.851563c37.316406-89.445313 1.042969-192.625-84.035156-239.039063l8.878906-18.449219-17.980469-8.671874-8.882812 18.4375c-89.292969-37.550782-192.535157-1.710938-239.351563 83.09375l8.75 4.816406 8.742188 4.816406c.324218-.589844.710937-1.109375 1-1.6875 12.207031 1.367188 24.511718-1.546875 34.800781-8.25 11.320313-5.871094 18.148437-8.996094 26.71875-4.859375s10.371094 11.410156 12.824219 23.929687c2.570312 13.097657 5.777344 29.402344 23.773437 38.074219 17.992188 8.675781 32.722657 1 44.570313-5.125 5.046875-3.015625 10.539062-5.210937 16.277344-6.503906l-73.976563 153.519531h-167.742187l-37.761719-37.75c-7.523438-7.792968-18.667969-10.914062-29.148438-8.171875-10.480469 2.742188-18.664062 10.925781-21.40625 21.40625-2.742187 10.480469.378907 21.621094 8.175781 29.148438l42.378907 42.394531c.703125.683594 1.441406 1.324219 2.222656 1.917969 5.675781 6.933593 14.15625 10.96875 23.117187 11h29.972657v45.6875c-86.925781 10.191406-160.738281 33.863281-176.625 69.625-7.183594-3.65625-15.144531-5.507813-23.199219-5.40625v19.980469c14.398438 0 21.351562 7.421874 30.164062 16.828124 10.570313 14.1875 27.082032 22.71875 44.769532 23.136719 17.675781-.425781 34.175781-8.960937 44.742187-23.136719 8.78125-9.40625 15.738281-16.828124 30.136719-16.828124 14.394531 0 21.347656 7.421874 30.164062 16.828124 10.566407 14.175782 27.058594 22.710938 44.738282 23.136719 17.679687-.425781 34.179687-8.960937 44.753906-23.136719 8.808594-9.40625 15.769531-16.828124 30.171875-16.828124 14.398437 0 21.367187 7.421874 30.195313 16.828124 10.28125 14.511719 26.960937 23.136719 44.753906 23.136719 17.789062 0 34.472656-8.625 44.757812-23.136719 8.808594-9.40625 15.769532-16.828124 30.171875-16.828124 14.398438 0 21.378907 7.421874 30.203125 16.828124 10.289063 14.511719 26.984375 23.136719 44.777344 23.136719s34.480469-8.625 44.773438-23.136719c8.8125-9.40625 15.789062-16.828124 30.203124-16.828124v-19.980469c-8.058593-.101563-16.019531 1.75-23.210937 5.394531-12.757813-28.636719-62.632813-49.515625-126.65625-61.929688zm-51.046875-278.078124c-11.320312 5.875-18.121094 8.992187-26.695312 4.878906-8.574219-4.117188-10.371094-11.417969-12.828126-23.929688-2.582031-13.097656-5.777343-29.414062-23.761718-38.085937s-32.753906-1-44.601563 5.125c-3.78125 2.070312-7.710937 3.867187-11.75 5.375 49.085938-63.105469 135.5625-83.375 207.574219-48.65625 72.011719 34.722656 110.007812 115.007812 91.195312 192.710937-1.316406-4.09375-2.347656-8.269531-3.074218-12.507812-2.570313-13.101563-5.746094-29.40625-23.730469-38.078125s-32.734375-1-44.574219 5.136719c-11.308594 5.882812-18.132812 8.992187-26.675781 4.875-8.542969-4.113282-10.335937-11.386719-12.785156-23.902344-2.558594-13.09375-5.75-29.402344-23.722657-38.0625-17.972656-8.664063-32.71875-.96875-44.570312 5.121094zm31.0625 274.550781c-34.988281-5.460938-70.292969-8.648438-105.699219-9.539063l19.457031-40.304687h86.242188zm-259.773438-69.824219c-3.164062-.015625-6.136718-1.539062-7.992187-4.109375-.671875-.863281-1.457031-1.632813-2.339844-2.289063-.289062-.21875-.601562-.417968-.867187-.667968l-42.390625-42.394532c-3.792969-3.917968-3.738281-10.152343.117187-14.003906 3.851563-3.855468 10.089844-3.910156 14.003906-.125l40.6875 40.679688c1.875 1.871094 4.417969 2.925781 7.066407 2.925781h291.453125c3.078125.019531 5.976562 1.46875 7.835937 3.929687.496094.632813 1.070313 1.207032 1.707031 1.707032l.945313.714844 42.394531 42.386718c3.90625 3.902344 3.90625 10.234375 0 14.136719-3.902344 3.902344-10.234375 3.902344-14.136718 0l-39.964844-39.964844c-1.867188-1.871093-4.40625-2.925781-7.054688-2.925781zm49.957032 19.980469h101.34375l-19.285156 39.964843h-2.128907c-26.695312 0-53.710937 1.25-79.929687 3.65625zm334.890625 133.042969c-8.8125 9.402343-15.789063 16.828124-30.15625 16.828124-14.367188 0-21.390625-7.425781-30.203125-16.828124-10.289063-14.511719-26.972656-23.136719-44.765625-23.136719s-34.476563 8.625-44.765625 23.136719c-8.855469 9.402343-15.808594 16.828124-30.214844 16.828124-14.410156 0-21.371094-7.425781-30.183594-16.828124-10.289062-14.511719-26.972656-23.136719-44.757812-23.136719-17.792969 0-34.476563 8.625-44.761719 23.136719-8.816406 9.402343-15.769531 16.828124-30.175781 16.828124-14.410156 0-21.351563-7.425781-30.164063-16.828124-10.566406-14.179688-27.066406-22.714844-44.738281-23.136719-17.679688.429687-34.175781 8.960937-44.742188 23.136719-8.816406 9.402343-15.769531 16.828124-30.136718 16.828124-14.367188 0-21.351563-7.425781-30.164063-16.828124-1.457031-1.558594-2.996093-3.175782-4.613281-4.792969 3.414062-32.652344 109.023438-68.300781 259.582031-68.300781 150.558594 0 256.085938 35.617187 259.605469 68.261718-1.613281 1.675782-3.167969 3.261719-4.644531 4.832032zm0 0"/>


</g>
</svg>
