<?xml version="1.0" encoding="iso-8859-1"?>
<!-- Generator: Adobe Illustrator 16.0.0, SVG Export Plug-In . SVG Version: 6.00 Build 0)  -->
<!DOCTYPE svg PUBLIC "-//W3C//DTD SVG 1.1//EN" "http://www.w3.org/Graphics/SVG/1.1/DTD/svg11.dtd">
<svg version="1.1" id="Capa_1" xmlns="http://www.w3.org/2000/svg" xmlns:xlink="http://www.w3.org/1999/xlink" x="0px" y="0px"
	 width="20px" height="20px" viewBox="0 0 20 20" style="enable-background:new 0 0 20 20;"
	 xml:space="preserve">
<g id="Hamburger" transform="translate(-13.000000, -176.000000)">
        <path d="M31.8688146,184.354532 L26.9289589,184.354532 C25.5647436,184.354532 24.4562008,185.464018 24.4562008,186.828233 L24.4562008,188.416987 C24.4562008,189.780259 25.5647436,190.890689 26.9289589,190.890689 L31.8688146,190.890689 L31.8688146,191.167117 C31.8688146,193.208723 30.1809991,194.869178 28.1082598,194.869178 L17.8926836,194.869178 C15.8190009,194.869178 14.1311854,193.208723 14.1311854,191.167117 L14.1311854,184.078103 C14.1311854,182.036498 15.8190009,180.376042 17.8926836,180.376042 L28.1082598,180.376042 C30.1809991,180.376042 31.8688146,182.036498 31.8688146,184.078103 L31.8688146,184.354532 Z M31.8688146,189.75856 L26.9289589,189.75856 C26.1893014,189.75856 25.5873862,189.156645 25.5873862,188.416987 L25.5873862,186.828233 C25.5873862,186.088576 26.1893014,185.48666 26.9289589,185.48666 L31.8688146,185.48666 L31.8688146,189.75856 Z M26.0534459,177.180608 C26.2194915,177.114567 26.4006321,177.116454 26.5666777,177.188156 C26.7327232,177.259857 26.8600877,177.393826 26.9289589,177.572136 L27.6044625,179.243913 L21.0173593,179.243913 L26.0534459,177.180608 Z M28.8564083,179.318445 L27.9827822,177.156079 C27.8054153,176.700397 27.4629464,176.342833 27.0166989,176.149427 C26.5713949,175.956022 26.0789188,175.950362 25.6270107,176.132446 L18.0294825,179.243913 L17.8926836,179.243913 C15.1944431,179.243913 13,181.41194 13,184.078103 L13,191.167117 C13,193.832337 15.1944431,196.001307 17.8926836,196.001307 L28.1082598,196.001307 C30.8055569,196.001307 33,193.832337 33,191.167117 L33,184.078103 C33,181.665725 31.1970848,179.676952 28.8564083,179.318445 Z" id="Wallet" />
      </g>
</svg>
